%FSLAX44Y44*%
%MOMM*%
G71*
G01*
G75*
G04 Layer_Physical_Order=2*
G04 Layer_Color=16711680*
%ADD10R,1.4000X1.6000*%
%ADD11R,1.9000X1.9000*%
%ADD12R,1.3500X0.4000*%
%ADD13C,0.4000*%
%ADD14O,1.6000X0.9000*%
%ADD15O,2.0000X1.2500*%
%ADD16O,2.0000X1.2500*%
%ADD17C,1.4000*%
%ADD18C,2.7000*%
%ADD19R,2.0000X2.0000*%
%ADD20C,2.0000*%
%ADD21C,0.9000*%
%ADD22R,1.0000X1.0000*%
%ADD23C,1.0000*%
%ADD24C,1.5000*%
%ADD25R,1.5000X1.5000*%
%ADD26C,3.0000*%
%ADD27C,1.2700*%
G36*
X818650Y798789D02*
X817405Y798541D01*
X816780Y800051D01*
X815651Y801521D01*
X814181Y802650D01*
X812468Y803359D01*
X810630Y803601D01*
X808400D01*
Y796497D01*
Y789399D01*
X810630D01*
X812468Y789641D01*
X814181Y790351D01*
X815651Y791479D01*
X816780Y792950D01*
X817405Y794459D01*
X818650Y794211D01*
Y732789D01*
X817405Y732541D01*
X816780Y734050D01*
X815651Y735521D01*
X814181Y736649D01*
X812468Y737359D01*
X810630Y737601D01*
X808400D01*
Y730497D01*
Y723399D01*
X810630D01*
X812468Y723641D01*
X814181Y724351D01*
X815651Y725479D01*
X816780Y726950D01*
X817405Y728459D01*
X818650Y728211D01*
Y656952D01*
X817448Y656544D01*
X817064Y657044D01*
X815071Y658573D01*
X812750Y659534D01*
X810260Y659862D01*
X807770Y659534D01*
X805449Y658573D01*
X803456Y657044D01*
X801927Y655051D01*
X800966Y652730D01*
X800638Y650240D01*
X800966Y647750D01*
X801927Y645429D01*
X803456Y643436D01*
X805449Y641907D01*
X807770Y640946D01*
X809521Y640715D01*
Y639445D01*
X810260Y639543D01*
X811530Y639376D01*
Y629917D01*
X810263D01*
Y628650D01*
X800804D01*
X800797Y628706D01*
X799658Y628145D01*
X762352Y665451D01*
X760850Y666455D01*
X759079Y666807D01*
X759079Y666807D01*
X707021D01*
X702869Y670959D01*
Y677424D01*
X702869Y677424D01*
X702516Y679195D01*
X701513Y680697D01*
X670912Y711298D01*
X669410Y712302D01*
X667639Y712654D01*
X667639Y712654D01*
X655193D01*
X655193Y712654D01*
X653422Y712302D01*
X651920Y711298D01*
X644427Y703805D01*
X643423Y702303D01*
X643071Y700532D01*
X643071Y700532D01*
Y686721D01*
X643071Y686721D01*
X643423Y684949D01*
X644427Y683447D01*
X650141Y677733D01*
X650066Y677551D01*
X649738Y675060D01*
X650066Y672570D01*
X651027Y670249D01*
X652404Y668454D01*
X651843Y667315D01*
X590677D01*
X590116Y668454D01*
X591493Y670249D01*
X592455Y672570D01*
X592782Y675060D01*
X592455Y677551D01*
X591493Y679872D01*
X589964Y681864D01*
X587971Y683393D01*
X585651Y684355D01*
X583160Y684683D01*
X580670Y684355D01*
X580282Y684194D01*
X579576Y685250D01*
X580488Y686161D01*
X580670Y686086D01*
X583160Y685758D01*
X585651Y686086D01*
X587971Y687047D01*
X589964Y688576D01*
X591493Y690569D01*
X592455Y692890D01*
X592782Y695380D01*
X592455Y697871D01*
X591493Y700191D01*
X589964Y702184D01*
X587971Y703714D01*
X585651Y704675D01*
X583160Y705003D01*
X580670Y704675D01*
X578349Y703714D01*
X576356Y702184D01*
X574827Y700191D01*
X573866Y697871D01*
X573538Y695380D01*
X573866Y692890D01*
X573941Y692708D01*
X570392Y689159D01*
X561260D01*
Y694290D01*
X546180D01*
Y689159D01*
X514743D01*
X502215Y701687D01*
Y703111D01*
X503354Y703672D01*
X504399Y702870D01*
X506720Y701909D01*
X507940Y701748D01*
Y711201D01*
Y720659D01*
X506720Y720498D01*
X504399Y719537D01*
X503354Y718735D01*
X502215Y719297D01*
Y728111D01*
X503354Y728672D01*
X504399Y727871D01*
X506720Y726909D01*
X509210Y726581D01*
X511701Y726909D01*
X514021Y727871D01*
X516014Y729400D01*
X517543Y731393D01*
X518504Y733713D01*
X518832Y736204D01*
X518504Y738694D01*
X517543Y741015D01*
X516014Y743008D01*
X514021Y744537D01*
X511701Y745498D01*
X509210Y745826D01*
X506720Y745498D01*
X504399Y744537D01*
X503354Y743735D01*
X502215Y744297D01*
Y748111D01*
X503354Y748672D01*
X504399Y747871D01*
X506720Y746909D01*
X509210Y746581D01*
X511701Y746909D01*
X514021Y747871D01*
X516014Y749400D01*
X517543Y751393D01*
X518504Y753713D01*
X518716Y755319D01*
X519919Y755727D01*
X530803Y744843D01*
Y738838D01*
X530803Y738838D01*
X531155Y737067D01*
X532159Y735565D01*
X536477Y731247D01*
X536477Y731247D01*
X537979Y730244D01*
X539750Y729891D01*
X540192D01*
X541451Y728251D01*
X542358Y727555D01*
Y726285D01*
X541451Y725589D01*
X540042Y723753D01*
X539156Y721615D01*
X538854Y719320D01*
X539156Y717025D01*
X540042Y714887D01*
X541451Y713051D01*
X543287Y711642D01*
X545425Y710756D01*
X547720Y710454D01*
X555220D01*
X557515Y710756D01*
X559653Y711642D01*
X561489Y713051D01*
X562898Y714887D01*
X563784Y717025D01*
X564086Y719320D01*
X563784Y721615D01*
X562898Y723753D01*
X561489Y725589D01*
X560582Y726285D01*
Y727555D01*
X561489Y728251D01*
X562898Y730087D01*
X563784Y732226D01*
X564086Y734520D01*
X563784Y736815D01*
X562898Y738953D01*
X561489Y740789D01*
X560582Y741485D01*
Y742755D01*
X561489Y743451D01*
X561710Y743739D01*
X562978Y743822D01*
X575553Y731247D01*
X575553Y731247D01*
X577054Y730244D01*
X577054Y730244D01*
X577054Y730244D01*
D01*
X577054Y730244D01*
X577054Y730244D01*
X578826Y729891D01*
X578826Y729891D01*
X579992D01*
X581251Y728251D01*
X582158Y727555D01*
Y726285D01*
X581251Y725589D01*
X579842Y723753D01*
X578956Y721615D01*
X578821Y720590D01*
X603718D01*
X603584Y721615D01*
X602698Y723753D01*
X601289Y725589D01*
X600382Y726285D01*
Y727555D01*
X601289Y728251D01*
X602698Y730087D01*
X603584Y732226D01*
X603886Y734520D01*
X603584Y736815D01*
X602698Y738953D01*
X601289Y740789D01*
X600382Y741485D01*
Y742755D01*
X601289Y743451D01*
X602547Y745091D01*
X621390D01*
X621390Y745091D01*
X623162Y745443D01*
X624663Y746447D01*
X646771Y768555D01*
X648466Y767853D01*
X651740Y767422D01*
X655014Y767853D01*
X658064Y769116D01*
X660684Y771126D01*
X662694Y773746D01*
X663957Y776796D01*
X664388Y780070D01*
X663957Y783344D01*
X662694Y786394D01*
X660684Y789014D01*
X658064Y791024D01*
X655014Y792287D01*
X651740Y792718D01*
X648466Y792287D01*
X645416Y791024D01*
X642796Y789014D01*
X640787Y786394D01*
X639523Y783344D01*
X639092Y780070D01*
X639523Y776796D01*
X640225Y775101D01*
X619473Y754349D01*
X602547D01*
X601289Y755989D01*
X599453Y757398D01*
X597314Y758284D01*
X595020Y758586D01*
X587520D01*
X585225Y758284D01*
X583087Y757398D01*
X581251Y755989D01*
X579842Y754153D01*
X578956Y752015D01*
X578654Y749720D01*
X578956Y747426D01*
X579842Y745287D01*
X581251Y743451D01*
X582158Y742755D01*
Y741485D01*
X581251Y740789D01*
X580905Y740338D01*
X579637Y740255D01*
X566899Y752993D01*
X565397Y753997D01*
X563626Y754349D01*
X563626Y754349D01*
X562748D01*
X561489Y755989D01*
X559653Y757398D01*
X557515Y758284D01*
X555220Y758586D01*
X547720D01*
X545425Y758284D01*
X543287Y757398D01*
X541451Y755989D01*
X540042Y754153D01*
X539156Y752015D01*
X539061Y751289D01*
X537858Y750880D01*
X517623Y771115D01*
X516121Y772119D01*
X514350Y772471D01*
X514350Y772472D01*
X514350Y773122D01*
X516014Y774399D01*
X517543Y776392D01*
X517619Y776574D01*
X525751D01*
X526920Y775794D01*
X526920Y775793D01*
X526920Y775794D01*
D01*
X526920Y775793D01*
X526920Y775794D01*
X528691Y775441D01*
X534600D01*
Y767530D01*
X559680D01*
Y792610D01*
X534600D01*
Y784699D01*
X530498D01*
X529329Y785480D01*
X527558Y785832D01*
X527558Y785832D01*
X517619D01*
X517543Y786015D01*
X516014Y788007D01*
X514021Y789537D01*
X511701Y790498D01*
X509210Y790826D01*
X506720Y790498D01*
X504399Y789537D01*
X502406Y788007D01*
X500877Y786015D01*
X499916Y783694D01*
X499588Y781203D01*
X499916Y778713D01*
X500877Y776392D01*
X502406Y774399D01*
X503352Y773674D01*
X502944Y772471D01*
X501650D01*
X501650Y772471D01*
X499879Y772119D01*
X498377Y771115D01*
X498377Y771115D01*
X494313Y767051D01*
X493309Y765549D01*
X492957Y763778D01*
X492957Y763778D01*
Y699770D01*
X492957Y699770D01*
X493309Y697999D01*
X494313Y696497D01*
X509553Y681257D01*
X509553Y681257D01*
X510056Y680921D01*
X510181Y679657D01*
X447373Y616849D01*
X447191Y616924D01*
X444700Y617252D01*
X442210Y616924D01*
X439889Y615963D01*
X437896Y614434D01*
X436367Y612441D01*
X435406Y610120D01*
X435078Y607630D01*
X435406Y605140D01*
X436367Y602819D01*
X437896Y600826D01*
X439889Y599297D01*
X442210Y598335D01*
X444700Y598008D01*
X447191Y598335D01*
X449511Y599297D01*
X451504Y600826D01*
X453033Y602819D01*
X453995Y605140D01*
X454323Y607630D01*
X453995Y610120D01*
X453919Y610303D01*
X523517Y679901D01*
X555106D01*
X555372Y679024D01*
X554550Y678056D01*
X553720Y678165D01*
X551752Y677906D01*
X549917Y677146D01*
X548342Y675938D01*
X547134Y674362D01*
X546374Y672528D01*
X546115Y670560D01*
X546374Y668592D01*
X547134Y666758D01*
X548342Y665182D01*
X549917Y663974D01*
X551752Y663214D01*
X553720Y662955D01*
X555688Y663214D01*
X557523Y663974D01*
X559098Y665182D01*
X560306Y666758D01*
X561066Y668592D01*
X561308Y670431D01*
X574752D01*
X574827Y670249D01*
X576204Y668454D01*
X575643Y667315D01*
X570486D01*
X570486Y667315D01*
X568715Y666963D01*
X567213Y665959D01*
X567213Y665959D01*
X518103Y616849D01*
X517920Y616924D01*
X515430Y617252D01*
X512940Y616924D01*
X510619Y615963D01*
X508626Y614434D01*
X507097Y612441D01*
X506136Y610120D01*
X505808Y607630D01*
X506136Y605140D01*
X507097Y602819D01*
X508626Y600826D01*
X510619Y599297D01*
X512940Y598335D01*
X515430Y598008D01*
X517920Y598335D01*
X520241Y599297D01*
X522234Y600826D01*
X523763Y602819D01*
X524725Y605140D01*
X525052Y607630D01*
X524725Y610120D01*
X524649Y610303D01*
X572403Y658057D01*
X630078D01*
X630639Y656918D01*
X629207Y655051D01*
X628246Y652730D01*
X627918Y650240D01*
X628246Y647750D01*
X629207Y645429D01*
X630736Y643436D01*
X632729Y641907D01*
X635050Y640946D01*
X636801Y640715D01*
Y639445D01*
X635050Y639214D01*
X632729Y638253D01*
X630736Y636724D01*
X629207Y634731D01*
X628246Y632410D01*
X627918Y629920D01*
X628246Y627430D01*
X629207Y625109D01*
X630736Y623116D01*
X632729Y621587D01*
X635050Y620626D01*
X637540Y620298D01*
X640030Y620626D01*
X642351Y621587D01*
X644344Y623116D01*
X645873Y625109D01*
X646834Y627430D01*
X647162Y629920D01*
X646834Y632410D01*
X645873Y634731D01*
X644344Y636724D01*
X642351Y638253D01*
X640030Y639214D01*
X638279Y639445D01*
Y640715D01*
X640030Y640946D01*
X642351Y641907D01*
X644344Y643436D01*
X645873Y645429D01*
X646834Y647750D01*
X647162Y650240D01*
X646834Y652730D01*
X645873Y655051D01*
X644344Y657044D01*
X644688Y658057D01*
X655181D01*
X692755Y620482D01*
X692269Y619309D01*
X641180D01*
X641180Y619309D01*
X639408Y618957D01*
X637907Y617953D01*
X637907Y617953D01*
X636802Y616849D01*
X636620Y616924D01*
X634130Y617252D01*
X631639Y616924D01*
X629319Y615963D01*
X627326Y614434D01*
X625797Y612441D01*
X624835Y610120D01*
X624507Y607630D01*
X624835Y605140D01*
X625797Y602819D01*
X627326Y600826D01*
X627491Y600700D01*
X627082Y599497D01*
X603809D01*
X598349Y604957D01*
X598424Y605140D01*
X598752Y607630D01*
X598424Y610120D01*
X597463Y612441D01*
X595934Y614434D01*
X593941Y615963D01*
X591620Y616924D01*
X589130Y617252D01*
X586639Y616924D01*
X584319Y615963D01*
X582326Y614434D01*
X580797Y612441D01*
X579835Y610120D01*
X579507Y607630D01*
X579835Y605140D01*
X580797Y602819D01*
X582326Y600826D01*
X584319Y599297D01*
X586639Y598335D01*
X589130Y598008D01*
X591620Y598335D01*
X591802Y598411D01*
X598618Y591595D01*
X598618Y591595D01*
X599519Y590993D01*
X600120Y590591D01*
X601892Y590239D01*
X653637D01*
X653637Y590239D01*
X655409Y590591D01*
X656911Y591595D01*
X659197Y593881D01*
X659379Y593806D01*
X661870Y593478D01*
X664360Y593806D01*
X666681Y594767D01*
X668674Y596296D01*
X670203Y598289D01*
X671164Y600610D01*
X671492Y603100D01*
X671164Y605591D01*
X670203Y607911D01*
X668674Y609904D01*
X668724Y610051D01*
X678743D01*
X679305Y608912D01*
X678537Y607911D01*
X677575Y605591D01*
X677247Y603100D01*
X677575Y600610D01*
X678537Y598289D01*
X680066Y596296D01*
X682059Y594767D01*
X684379Y593806D01*
X686870Y593478D01*
X689360Y593806D01*
X691681Y594767D01*
X693674Y596296D01*
X695203Y598289D01*
X696164Y600610D01*
X696492Y603100D01*
X696164Y605591D01*
X695968Y606063D01*
X697024Y606769D01*
X703967Y599827D01*
X705468Y598824D01*
X707240Y598471D01*
X707240Y598471D01*
X753461D01*
X753537Y598289D01*
X755066Y596296D01*
X757059Y594767D01*
X759380Y593806D01*
X761870Y593478D01*
X764360Y593806D01*
X766681Y594767D01*
X768674Y596296D01*
X770203Y598289D01*
X771164Y600610D01*
X771492Y603100D01*
X771164Y605591D01*
X770203Y607911D01*
X768674Y609904D01*
X766681Y611433D01*
X764360Y612395D01*
X761870Y612722D01*
X759380Y612395D01*
X757059Y611433D01*
X755066Y609904D01*
X753537Y607911D01*
X753461Y607729D01*
X709157D01*
X704452Y612434D01*
X704938Y613607D01*
X722376D01*
X722376Y613607D01*
X724147Y613959D01*
X725649Y614963D01*
X731387Y620701D01*
X731570Y620626D01*
X734060Y620298D01*
X736550Y620626D01*
X738871Y621587D01*
X740864Y623116D01*
X742393Y625109D01*
X743354Y627430D01*
X743682Y629920D01*
X743354Y632410D01*
X742393Y634731D01*
X740864Y636724D01*
X738871Y638253D01*
X736550Y639214D01*
X734060Y639542D01*
X731570Y639214D01*
X729249Y638253D01*
X727256Y636724D01*
X725727Y634731D01*
X724766Y632410D01*
X724535Y630659D01*
X723265D01*
X723034Y632410D01*
X722073Y634731D01*
X720544Y636724D01*
X718551Y638253D01*
X716230Y639214D01*
X713740Y639542D01*
X711250Y639214D01*
X708929Y638253D01*
X706936Y636724D01*
X705407Y634731D01*
X704446Y632410D01*
X704118Y629920D01*
X704446Y627430D01*
X705407Y625109D01*
X706255Y624004D01*
X705693Y622865D01*
X703465D01*
X661525Y664806D01*
X661851Y665766D01*
X664171Y666727D01*
X666164Y668256D01*
X667693Y670249D01*
X668655Y672570D01*
X668982Y675060D01*
X668655Y677551D01*
X668494Y677939D01*
X669550Y678644D01*
X701227Y646967D01*
X702729Y645963D01*
X704501Y645611D01*
X704501Y645611D01*
X705331D01*
X705407Y645429D01*
X706936Y643436D01*
X708929Y641907D01*
X711250Y640946D01*
X713740Y640618D01*
X716230Y640946D01*
X718551Y641907D01*
X720544Y643436D01*
X722073Y645429D01*
X723034Y647750D01*
X723265Y649501D01*
X724535D01*
X724766Y647750D01*
X725727Y645429D01*
X727256Y643436D01*
X729249Y641907D01*
X731570Y640946D01*
X734060Y640618D01*
X736550Y640946D01*
X738871Y641907D01*
X740864Y643436D01*
X742393Y645429D01*
X743354Y647750D01*
X743682Y650240D01*
X743354Y652730D01*
X742393Y655051D01*
X740864Y657044D01*
X741035Y657549D01*
X757162D01*
X809137Y605573D01*
X808651Y604400D01*
X792600D01*
Y584320D01*
X810203D01*
Y583069D01*
X805695Y578562D01*
X805261Y578742D01*
X802640Y579087D01*
X800019Y578742D01*
X797577Y577730D01*
X795479Y576121D01*
X793870Y574023D01*
X793690Y573589D01*
X601017D01*
X569649Y604957D01*
X569724Y605140D01*
X570052Y607630D01*
X569724Y610120D01*
X568763Y612441D01*
X567234Y614434D01*
X565241Y615963D01*
X562920Y616924D01*
X560430Y617252D01*
X557939Y616924D01*
X555619Y615963D01*
X553626Y614434D01*
X552096Y612441D01*
X551135Y610120D01*
X550807Y607630D01*
X551135Y605140D01*
X552096Y602819D01*
X553626Y600826D01*
X555619Y599297D01*
X557939Y598335D01*
X560430Y598008D01*
X562920Y598335D01*
X563102Y598411D01*
X595826Y565687D01*
X595826Y565687D01*
X597328Y564683D01*
X597328Y564683D01*
X597328Y564683D01*
D01*
X597328Y564683D01*
X597328Y564683D01*
X599100Y564331D01*
X793690D01*
X793870Y563897D01*
X795479Y561799D01*
X797577Y560190D01*
X800019Y559178D01*
X802640Y558833D01*
X805261Y559178D01*
X807703Y560190D01*
X809801Y561799D01*
X811410Y563897D01*
X812422Y566339D01*
X812767Y568960D01*
X812422Y571581D01*
X812242Y572015D01*
X817477Y577251D01*
X818650Y576765D01*
Y534600D01*
X641311D01*
X640903Y535802D01*
X640934Y535826D01*
X642463Y537819D01*
X643424Y540139D01*
X643752Y542630D01*
X643424Y545120D01*
X642463Y547441D01*
X640934Y549434D01*
X638941Y550963D01*
X636620Y551924D01*
X634130Y552252D01*
X631639Y551924D01*
X629319Y550963D01*
X627326Y549434D01*
X625797Y547441D01*
X624835Y545120D01*
X624507Y542630D01*
X624835Y540139D01*
X625797Y537819D01*
X627326Y535826D01*
X627357Y535802D01*
X626948Y534600D01*
X596311D01*
X595903Y535802D01*
X595934Y535826D01*
X597463Y537819D01*
X598424Y540139D01*
X598752Y542630D01*
X598424Y545120D01*
X597463Y547441D01*
X595934Y549434D01*
X593941Y550963D01*
X591620Y551924D01*
X589130Y552252D01*
X586639Y551924D01*
X584319Y550963D01*
X582326Y549434D01*
X580797Y547441D01*
X579835Y545120D01*
X579507Y542630D01*
X579835Y540139D01*
X580797Y537819D01*
X582326Y535826D01*
X582356Y535802D01*
X581948Y534600D01*
X567611D01*
X567203Y535802D01*
X567234Y535826D01*
X568763Y537819D01*
X569724Y540139D01*
X570052Y542630D01*
X569724Y545120D01*
X568763Y547441D01*
X567234Y549434D01*
X565241Y550963D01*
X562920Y551924D01*
X560430Y552252D01*
X557939Y551924D01*
X555619Y550963D01*
X553626Y549434D01*
X552096Y547441D01*
X551135Y545120D01*
X550807Y542630D01*
X551135Y540139D01*
X552096Y537819D01*
X553626Y535826D01*
X553656Y535802D01*
X553248Y534600D01*
X522612D01*
X522203Y535802D01*
X522234Y535826D01*
X523763Y537819D01*
X524725Y540139D01*
X525052Y542630D01*
X524725Y545120D01*
X523763Y547441D01*
X522234Y549434D01*
X520241Y550963D01*
X517920Y551924D01*
X515430Y552252D01*
X512940Y551924D01*
X510619Y550963D01*
X508626Y549434D01*
X507097Y547441D01*
X506136Y545120D01*
X505808Y542630D01*
X506136Y540139D01*
X507097Y537819D01*
X508626Y535826D01*
X508657Y535802D01*
X508248Y534600D01*
X451882D01*
X451473Y535802D01*
X451504Y535826D01*
X453033Y537819D01*
X453995Y540139D01*
X454323Y542630D01*
X453995Y545120D01*
X453033Y547441D01*
X451504Y549434D01*
X449511Y550963D01*
X447191Y551924D01*
X444700Y552252D01*
X442210Y551924D01*
X439889Y550963D01*
X437896Y549434D01*
X436367Y547441D01*
X435406Y545120D01*
X435078Y542630D01*
X435406Y540139D01*
X436367Y537819D01*
X437896Y535826D01*
X437927Y535802D01*
X437519Y534600D01*
X406881D01*
X406473Y535802D01*
X406504Y535826D01*
X408033Y537819D01*
X408994Y540139D01*
X409155Y541360D01*
X390245D01*
X390406Y540139D01*
X391367Y537819D01*
X392896Y535826D01*
X392927Y535802D01*
X392519Y534600D01*
X382830D01*
Y825401D01*
X472340D01*
X472768Y824205D01*
X470813Y822600D01*
X468809Y820158D01*
X467319Y817371D01*
X466402Y814348D01*
X466217Y812473D01*
X498202D01*
X498018Y814348D01*
X497101Y817371D01*
X495611Y820158D01*
X493607Y822600D01*
X491164Y824605D01*
X491364Y825401D01*
X533702D01*
X534600Y824503D01*
Y800260D01*
X559680D01*
Y824503D01*
X559680Y824503D01*
D01*
D01*
X559680Y825340D01*
D01*
X559740Y825401D01*
X646136D01*
X646384Y824155D01*
X645416Y823754D01*
X642796Y821744D01*
X640787Y819125D01*
X639523Y816074D01*
X639092Y812801D01*
X639523Y809527D01*
X640787Y806476D01*
X642796Y803857D01*
X645416Y801847D01*
X648466Y800583D01*
X651740Y800152D01*
X655014Y800583D01*
X658064Y801847D01*
X660684Y803857D01*
X662694Y806476D01*
X663957Y809527D01*
X664388Y812801D01*
X663957Y816074D01*
X662694Y819125D01*
X660684Y821744D01*
X658064Y823754D01*
X655014Y825018D01*
X655039Y825401D01*
X818650D01*
Y798789D01*
D02*
G37*
%LPC*%
G36*
X480940Y695946D02*
X479066Y695761D01*
X476042Y694844D01*
X473255Y693355D01*
X470813Y691350D01*
X468809Y688908D01*
X467319Y686121D01*
X466402Y683098D01*
X466217Y681223D01*
X480940D01*
Y695946D01*
D02*
G37*
G36*
X483480D02*
Y681223D01*
X498202D01*
X498018Y683098D01*
X497101Y686121D01*
X495611Y688908D01*
X493607Y691350D01*
X491164Y693355D01*
X488378Y694844D01*
X485354Y695761D01*
X483480Y695946D01*
D02*
G37*
G36*
X720500Y714125D02*
X717062Y713786D01*
X713755Y712783D01*
X710708Y711154D01*
X708037Y708963D01*
X705845Y706292D01*
X704217Y703245D01*
X703214Y699939D01*
X702875Y696500D01*
X703214Y693062D01*
X704217Y689755D01*
X705845Y686708D01*
X708037Y684037D01*
X710708Y681845D01*
X713755Y680217D01*
X717062Y679214D01*
X720500Y678875D01*
X723939Y679214D01*
X727245Y680217D01*
X730292Y681845D01*
X732963Y684037D01*
X735154Y686708D01*
X736783Y689755D01*
X737786Y693062D01*
X738125Y696500D01*
X737786Y699939D01*
X736783Y703245D01*
X735154Y706292D01*
X732963Y708963D01*
X730292Y711154D01*
X727245Y712783D01*
X723939Y713786D01*
X720500Y714125D01*
D02*
G37*
G36*
X480940Y678683D02*
X466217D01*
X466402Y676809D01*
X467319Y673785D01*
X468809Y670999D01*
X470813Y668557D01*
X473255Y666552D01*
X476042Y665063D01*
X479066Y664146D01*
X480940Y663961D01*
Y678683D01*
D02*
G37*
G36*
X498202D02*
X483480D01*
Y663961D01*
X485354Y664146D01*
X488378Y665063D01*
X491164Y666552D01*
X493607Y668557D01*
X495611Y670999D01*
X497101Y673785D01*
X498018Y676809D01*
X498202Y678683D01*
D02*
G37*
G36*
X749690Y714440D02*
X742160D01*
X742299Y713389D01*
X743195Y711227D01*
X744620Y709370D01*
X746477Y707945D01*
X748639Y707049D01*
X749690Y706910D01*
Y714440D01*
D02*
G37*
G36*
X759760D02*
X752230D01*
Y706910D01*
X753281Y707049D01*
X755443Y707945D01*
X757300Y709370D01*
X758725Y711227D01*
X759621Y713389D01*
X759760Y714440D01*
D02*
G37*
G36*
X518665Y709934D02*
X510480D01*
Y701748D01*
X511701Y701909D01*
X514021Y702870D01*
X516014Y704400D01*
X517543Y706392D01*
X518504Y708713D01*
X518665Y709934D01*
D02*
G37*
G36*
X552450Y703100D02*
X546180D01*
Y696830D01*
X552450D01*
Y703100D01*
D02*
G37*
G36*
X561260D02*
X554990D01*
Y696830D01*
X561260D01*
Y703100D01*
D02*
G37*
G36*
X808990Y639375D02*
X807770Y639214D01*
X805449Y638253D01*
X803456Y636724D01*
X801927Y634731D01*
X800966Y632410D01*
X800805Y631190D01*
X808990D01*
Y639375D01*
D02*
G37*
G36*
X398430Y552085D02*
X397210Y551924D01*
X394889Y550963D01*
X392896Y549434D01*
X391367Y547441D01*
X390406Y545120D01*
X390245Y543900D01*
X398430D01*
Y552085D01*
D02*
G37*
G36*
X400970D02*
Y543900D01*
X409155D01*
X408994Y545120D01*
X408033Y547441D01*
X406504Y549434D01*
X404511Y550963D01*
X402190Y551924D01*
X400970Y552085D01*
D02*
G37*
G36*
X761870Y562722D02*
X759380Y562394D01*
X757059Y561433D01*
X755066Y559904D01*
X753537Y557911D01*
X752576Y555590D01*
X752248Y553100D01*
X752576Y550609D01*
X753537Y548289D01*
X755066Y546296D01*
X757059Y544767D01*
X759380Y543805D01*
X761870Y543477D01*
X764360Y543805D01*
X766681Y544767D01*
X768674Y546296D01*
X770203Y548289D01*
X771164Y550609D01*
X771492Y553100D01*
X771164Y555590D01*
X770203Y557911D01*
X768674Y559904D01*
X766681Y561433D01*
X764360Y562394D01*
X761870Y562722D01*
D02*
G37*
G36*
X661870D02*
X659379Y562394D01*
X657058Y561433D01*
X655066Y559904D01*
X653537Y557911D01*
X652575Y555590D01*
X652247Y553100D01*
X652575Y550609D01*
X653537Y548289D01*
X655066Y546296D01*
X657058Y544767D01*
X659379Y543805D01*
X661870Y543477D01*
X664360Y543805D01*
X666681Y544767D01*
X668674Y546296D01*
X670203Y548289D01*
X671164Y550609D01*
X671492Y553100D01*
X671164Y555590D01*
X670203Y557911D01*
X668674Y559904D01*
X666681Y561433D01*
X664360Y562394D01*
X661870Y562722D01*
D02*
G37*
G36*
X686870D02*
X684379Y562394D01*
X682059Y561433D01*
X680066Y559904D01*
X678537Y557911D01*
X677575Y555590D01*
X677247Y553100D01*
X677575Y550609D01*
X678537Y548289D01*
X680066Y546296D01*
X682059Y544767D01*
X684379Y543805D01*
X686870Y543477D01*
X689360Y543805D01*
X691681Y544767D01*
X693674Y546296D01*
X695203Y548289D01*
X696164Y550609D01*
X696492Y553100D01*
X696164Y555590D01*
X695203Y557911D01*
X693674Y559904D01*
X691681Y561433D01*
X689360Y562394D01*
X686870Y562722D01*
D02*
G37*
G36*
X398430Y617085D02*
X397210Y616924D01*
X394889Y615963D01*
X392896Y614434D01*
X391367Y612441D01*
X390406Y610120D01*
X390245Y608900D01*
X398430D01*
Y617085D01*
D02*
G37*
G36*
X400970D02*
Y608900D01*
X409155D01*
X408994Y610120D01*
X408033Y612441D01*
X406504Y614434D01*
X404511Y615963D01*
X402190Y616924D01*
X400970Y617085D01*
D02*
G37*
G36*
X409155Y606360D02*
X400970D01*
Y598175D01*
X402190Y598335D01*
X404511Y599297D01*
X406504Y600826D01*
X408033Y602819D01*
X408994Y605140D01*
X409155Y606360D01*
D02*
G37*
G36*
X480750Y596375D02*
X477312Y596036D01*
X474005Y595033D01*
X470958Y593405D01*
X468287Y591213D01*
X466096Y588542D01*
X464467Y585495D01*
X463464Y582188D01*
X463125Y578750D01*
X463464Y575312D01*
X464467Y572005D01*
X466096Y568958D01*
X468287Y566287D01*
X470958Y564095D01*
X474005Y562467D01*
X477312Y561464D01*
X480750Y561125D01*
X484188Y561464D01*
X487495Y562467D01*
X490542Y564095D01*
X493213Y566287D01*
X495405Y568958D01*
X497033Y572005D01*
X498036Y575312D01*
X498375Y578750D01*
X498036Y582188D01*
X497033Y585495D01*
X495405Y588542D01*
X493213Y591213D01*
X490542Y593405D01*
X487495Y595033D01*
X484188Y596036D01*
X480750Y596375D01*
D02*
G37*
G36*
X398430Y606360D02*
X390245D01*
X390406Y605140D01*
X391367Y602819D01*
X392896Y600826D01*
X394889Y599297D01*
X397210Y598335D01*
X398430Y598175D01*
Y606360D01*
D02*
G37*
G36*
X699480Y765799D02*
X698429Y765661D01*
X696267Y764765D01*
X694410Y763340D01*
X692985Y761483D01*
X692089Y759321D01*
X691951Y758270D01*
X699480D01*
Y765799D01*
D02*
G37*
G36*
X702020D02*
Y758270D01*
X709549D01*
X709411Y759321D01*
X708515Y761483D01*
X707090Y763340D01*
X705233Y764765D01*
X703071Y765661D01*
X702020Y765799D01*
D02*
G37*
G36*
X709549Y755730D02*
X702020D01*
Y748201D01*
X703071Y748339D01*
X705233Y749235D01*
X707090Y750660D01*
X708515Y752517D01*
X709411Y754679D01*
X709549Y755730D01*
D02*
G37*
G36*
X649180Y753613D02*
Y747950D01*
X654844D01*
X654769Y748518D01*
X654060Y750230D01*
X652931Y751701D01*
X651461Y752829D01*
X649748Y753539D01*
X649180Y753613D01*
D02*
G37*
G36*
X699480Y755730D02*
X691951D01*
X692089Y754679D01*
X692985Y752517D01*
X694410Y750660D01*
X696267Y749235D01*
X698429Y748339D01*
X699480Y748201D01*
Y755730D01*
D02*
G37*
G36*
X498202Y809933D02*
X483480D01*
Y795211D01*
X485354Y795395D01*
X488378Y796313D01*
X491164Y797802D01*
X493607Y799807D01*
X495611Y802249D01*
X497101Y805035D01*
X498018Y808059D01*
X498202Y809933D01*
D02*
G37*
G36*
X805860Y803601D02*
X803630D01*
X801792Y803359D01*
X800080Y802650D01*
X798609Y801521D01*
X797481Y800051D01*
X796771Y798338D01*
X796697Y797770D01*
X805860D01*
Y803601D01*
D02*
G37*
G36*
X480940Y809933D02*
X466217D01*
X466402Y808059D01*
X467319Y805035D01*
X468809Y802249D01*
X470813Y799807D01*
X473255Y797802D01*
X476042Y796313D01*
X479066Y795395D01*
X480940Y795211D01*
Y809933D01*
D02*
G37*
G36*
X699250Y815875D02*
X695812Y815536D01*
X692505Y814533D01*
X689458Y812905D01*
X686787Y810713D01*
X684595Y808042D01*
X682967Y804995D01*
X681964Y801688D01*
X681625Y798250D01*
X681964Y794811D01*
X682967Y791505D01*
X684595Y788458D01*
X686787Y785787D01*
X689458Y783596D01*
X692505Y781967D01*
X695812Y780964D01*
X699250Y780625D01*
X702689Y780964D01*
X705995Y781967D01*
X709042Y783596D01*
X711713Y785787D01*
X713904Y788458D01*
X715533Y791505D01*
X716536Y794811D01*
X716875Y798250D01*
X716536Y801688D01*
X715533Y804995D01*
X713904Y808042D01*
X711713Y810713D01*
X709042Y812905D01*
X705995Y814533D01*
X702689Y815536D01*
X699250Y815875D01*
D02*
G37*
G36*
X805860Y795230D02*
X796697D01*
X796771Y794662D01*
X797481Y792950D01*
X798609Y791479D01*
X800080Y790351D01*
X801792Y789641D01*
X803630Y789399D01*
X805860D01*
Y795230D01*
D02*
G37*
G36*
X646640Y753613D02*
X646072Y753539D01*
X644360Y752829D01*
X642889Y751701D01*
X641761Y750230D01*
X641051Y748518D01*
X640977Y747950D01*
X646640D01*
Y753613D01*
D02*
G37*
G36*
X647910Y728781D02*
X646072Y728539D01*
X644360Y727830D01*
X642889Y726701D01*
X641761Y725230D01*
X641051Y723518D01*
X640810Y721680D01*
X641051Y719842D01*
X641761Y718130D01*
X642889Y716659D01*
X644360Y715531D01*
X646072Y714821D01*
X647910Y714579D01*
X649748Y714821D01*
X651461Y715531D01*
X652931Y716659D01*
X654060Y718130D01*
X654769Y719842D01*
X655011Y721680D01*
X654769Y723518D01*
X654060Y725230D01*
X652931Y726701D01*
X651461Y727830D01*
X649748Y728539D01*
X647910Y728781D01*
D02*
G37*
G36*
X749690Y724510D02*
X748639Y724371D01*
X746477Y723475D01*
X744620Y722050D01*
X743195Y720193D01*
X742299Y718031D01*
X742160Y716980D01*
X749690D01*
Y724510D01*
D02*
G37*
G36*
X510480Y720659D02*
Y712474D01*
X518665D01*
X518504Y713694D01*
X517543Y716015D01*
X516014Y718008D01*
X514021Y719537D01*
X511701Y720498D01*
X510480Y720659D01*
D02*
G37*
G36*
X590000Y718050D02*
X578821D01*
X578956Y717025D01*
X579842Y714887D01*
X581251Y713051D01*
X583087Y711642D01*
X585225Y710756D01*
X587520Y710454D01*
X590000D01*
Y718050D01*
D02*
G37*
G36*
X603718D02*
X592540D01*
Y710454D01*
X595020D01*
X597314Y710756D01*
X599453Y711642D01*
X601289Y713051D01*
X602698Y714887D01*
X603584Y717025D01*
X603718Y718050D01*
D02*
G37*
G36*
X646640Y745410D02*
X640977D01*
X641051Y744842D01*
X641761Y743129D01*
X642889Y741659D01*
X644360Y740530D01*
X646072Y739821D01*
X646640Y739746D01*
Y745410D01*
D02*
G37*
G36*
X654844D02*
X649180D01*
Y739746D01*
X649748Y739821D01*
X651461Y740530D01*
X652931Y741659D01*
X654060Y743129D01*
X654769Y744842D01*
X654844Y745410D01*
D02*
G37*
G36*
X805860Y737601D02*
X803630D01*
X801792Y737359D01*
X800080Y736649D01*
X798609Y735521D01*
X797481Y734050D01*
X796771Y732338D01*
X796697Y731770D01*
X805860D01*
Y737601D01*
D02*
G37*
G36*
X752230Y724510D02*
Y716980D01*
X759760D01*
X759621Y718031D01*
X758725Y720193D01*
X757300Y722050D01*
X755443Y723475D01*
X753281Y724371D01*
X752230Y724510D01*
D02*
G37*
G36*
X805860Y729230D02*
X796697D01*
X796771Y728662D01*
X797481Y726950D01*
X798609Y725479D01*
X800080Y724351D01*
X801792Y723641D01*
X803630Y723399D01*
X805860D01*
Y729230D01*
D02*
G37*
%LPD*%
D13*
X750500Y689250D02*
Y715710D01*
X750960D01*
X750500Y689250D02*
X759280Y680470D01*
X509210Y781203D02*
X527558D01*
X528691Y780070D01*
X547140D01*
X551470Y749720D02*
X563626D01*
X578826Y734520D01*
X591270D01*
X634130Y607630D02*
X641180Y614680D01*
X695660D01*
X707240Y603100D01*
X761870D01*
X621390Y749720D02*
X651740Y780070D01*
X591270Y749720D02*
X621390D01*
X553720Y695560D02*
X577480Y719320D01*
X591270D01*
X521600Y684530D02*
X572310D01*
X509210Y711204D02*
X524853Y695560D01*
X553720D01*
X399700Y607630D02*
Y649636D01*
X430017Y679953D01*
X482210D01*
X599100Y568960D02*
X802640D01*
X560430Y607630D02*
X599100Y568960D01*
X515430Y607630D02*
X570486Y662686D01*
X657098D01*
X701548Y618236D01*
X722376D01*
X734060Y629920D01*
X553720Y670560D02*
X558220Y675060D01*
X583160D01*
X620550Y719320D02*
X647910Y746680D01*
X591270Y719320D02*
X620550D01*
X759280Y680470D02*
X759710D01*
X810260Y629920D01*
X589130Y607630D02*
X601892Y594868D01*
X653637D01*
X661870Y603100D01*
X539750Y734520D02*
X551470D01*
X535432Y738838D02*
X539750Y734520D01*
X535432Y738838D02*
Y746760D01*
X514350Y767842D02*
X535432Y746760D01*
X501650Y767842D02*
X514350D01*
X497586Y763778D02*
X501650Y767842D01*
X497586Y699770D02*
Y763778D01*
Y699770D02*
X512826Y684530D01*
X572310D02*
X583160Y695380D01*
X659360D02*
X704501Y650240D01*
X713740D01*
X647700Y686721D02*
X659360Y675060D01*
X647700Y686721D02*
Y700532D01*
X655193Y708025D01*
X667639D01*
X698240Y677424D01*
Y669042D02*
Y677424D01*
Y669042D02*
X705104Y662178D01*
X759079D01*
X814832Y606425D01*
Y581152D02*
Y606425D01*
X802640Y568960D02*
X814832Y581152D01*
X444700Y607630D02*
X521600Y684530D01*
X512826D02*
X521600D01*
X572310D01*
X690430Y746680D02*
X700750Y757000D01*
X647910Y746680D02*
X690430D01*
D14*
X807130Y796500D02*
D03*
Y730500D02*
D03*
D15*
X591270Y749720D02*
D03*
Y719320D02*
D03*
X551470D02*
D03*
Y749720D02*
D03*
D16*
X591270Y734520D02*
D03*
X551470D02*
D03*
D17*
X637540Y650240D02*
D03*
X713740D02*
D03*
X509210Y781203D02*
D03*
Y756204D02*
D03*
Y736204D02*
D03*
Y711204D02*
D03*
X444700Y542630D02*
D03*
Y607630D02*
D03*
X399700Y542630D02*
D03*
Y607630D02*
D03*
X589130D02*
D03*
Y542630D02*
D03*
X634130Y607630D02*
D03*
Y542630D02*
D03*
X583160Y695380D02*
D03*
X659360D02*
D03*
X713740Y629920D02*
D03*
X637540D02*
D03*
X661870Y553100D02*
D03*
X686870D02*
D03*
X761870D02*
D03*
Y603100D02*
D03*
X686870D02*
D03*
X661870D02*
D03*
X810260Y650240D02*
D03*
X734060D02*
D03*
X659360Y675060D02*
D03*
X583160D02*
D03*
X810260Y629920D02*
D03*
X734060D02*
D03*
X560430Y542630D02*
D03*
Y607630D02*
D03*
X515430Y542630D02*
D03*
Y607630D02*
D03*
D18*
X482210Y811203D02*
D03*
Y679953D02*
D03*
D19*
X547140Y780070D02*
D03*
Y812801D02*
D03*
D20*
X651740Y780070D02*
D03*
Y812801D02*
D03*
D21*
X647910Y721680D02*
D03*
Y746680D02*
D03*
D22*
X553720Y695560D02*
D03*
D23*
Y670560D02*
D03*
D24*
X802640Y568960D02*
D03*
D25*
Y594360D02*
D03*
D26*
X480750Y578750D02*
D03*
X720500Y696500D02*
D03*
X699250Y798250D02*
D03*
D27*
X700750Y757000D02*
D03*
X750960Y715710D02*
D03*
M02*
