M48
;Layer_Color=9474304
;FILE_FORMAT=2:5
INCH,LZ
;TYPE=PLATED
T1F00S00C0.01968
T3F00S00C0.02756
T4F00S00C0.02800
T5F00S00C0.03346
T6F00S00C0.03543
T7F00S00C0.03937
T8F00S00C0.04724
T9F00S00C0.09055
T10F00S00C0.11417
%
T01
X0255083Y0284126
Y0293968
T03
X0218Y0264
Y0273843
X0217114Y0283197
Y0289181
Y0295165
X0232783
Y0289181
Y0283197
T04
X0275886Y0298031
X0295654Y0281776
T05
X0319Y0248
Y0256
X0289
X0281
Y0248
X0289
X0251
Y0256
X0259591Y0265772
Y0273772
X0229591
Y0265772
T06
X0316Y0224
Y0234
T07
X0157362Y0213634
X0175079
Y0239224
X0157362
X0202925
X0220642
X0231941
X0249657
X0260579Y0237441
X0270421
Y0217756
X0260579
X0249657Y0213634
X0231941
X0220642
X0202925
X0200476Y0280001
Y0289844
Y0297718
Y030756
X0299949Y0237441
Y0217756
T08
X0215409Y0307114
X0256591
Y032
X0215409
T09
X0189846Y0267698
Y0319371
T10
X0189272Y0227854
X0283661Y0274213
X0275295Y0314272
M30
