%FSLAX44Y44*%
%MOMM*%
G71*
G01*
G75*
G04 Layer_Color=65535*
%ADD10R,1.4000X1.6000*%
%ADD11R,1.9000X1.9000*%
%ADD12R,1.3500X0.4000*%
%ADD13C,0.4000*%
%ADD14O,1.6000X0.9000*%
%ADD15O,2.0000X1.2500*%
%ADD16O,2.0000X1.2500*%
%ADD17C,1.4000*%
%ADD18C,2.7000*%
%ADD19R,2.0000X2.0000*%
%ADD20C,2.0000*%
%ADD21C,0.9000*%
%ADD22R,1.0000X1.0000*%
%ADD23C,1.0000*%
%ADD24C,1.5000*%
%ADD25R,1.5000X1.5000*%
%ADD26C,3.0000*%
%ADD27C,1.2700*%
%ADD28C,0.2000*%
%ADD29C,0.1000*%
%ADD30C,0.1500*%
%ADD31R,0.8000X2.8000*%
G36*
X588915Y658768D02*
X589068D01*
Y658615D01*
X589373D01*
Y658463D01*
Y658311D01*
X589525D01*
Y658158D01*
Y658006D01*
Y657853D01*
Y657701D01*
Y657549D01*
Y657396D01*
Y657244D01*
Y657091D01*
Y656939D01*
Y656786D01*
Y656634D01*
Y656481D01*
Y656329D01*
Y656177D01*
Y656024D01*
Y655872D01*
Y655719D01*
Y655567D01*
Y655415D01*
Y655262D01*
Y655110D01*
Y654957D01*
Y654805D01*
Y654652D01*
Y654500D01*
Y654348D01*
Y654195D01*
Y654043D01*
Y653890D01*
Y653738D01*
Y653585D01*
Y653433D01*
Y653281D01*
Y653128D01*
Y652976D01*
X589373D01*
Y652823D01*
X589525D01*
Y652671D01*
X589373D01*
Y652518D01*
Y652366D01*
Y652214D01*
X589220D01*
Y652061D01*
Y651909D01*
Y651756D01*
X589068D01*
Y651604D01*
X588915D01*
Y651451D01*
X588763D01*
Y651299D01*
X588611D01*
Y651147D01*
X588458D01*
Y650994D01*
X588306D01*
Y650842D01*
X587849D01*
Y650689D01*
X587696D01*
Y650842D01*
X587544D01*
Y650689D01*
X587391D01*
Y650537D01*
X585105D01*
Y650689D01*
X584648D01*
Y650842D01*
X584190D01*
Y650994D01*
X584038D01*
Y651147D01*
X583885D01*
Y651299D01*
X583733D01*
Y651451D01*
X583581D01*
Y651604D01*
X583428D01*
Y651756D01*
X583276D01*
Y651909D01*
X583123D01*
Y652061D01*
X582971D01*
Y652214D01*
X583123D01*
Y652366D01*
X582971D01*
Y652518D01*
Y652671D01*
Y652823D01*
Y652976D01*
Y653128D01*
X582818D01*
Y653281D01*
X582971D01*
Y653433D01*
X582818D01*
Y653585D01*
Y653738D01*
Y653890D01*
Y654043D01*
Y654195D01*
Y654348D01*
Y654500D01*
Y654652D01*
Y654805D01*
Y654957D01*
Y655110D01*
Y655262D01*
Y655415D01*
Y655567D01*
Y655719D01*
Y655872D01*
Y656024D01*
Y656177D01*
Y656329D01*
Y656481D01*
Y656634D01*
Y656786D01*
Y656939D01*
Y657091D01*
Y657244D01*
Y657396D01*
Y657549D01*
Y657701D01*
Y657853D01*
Y658006D01*
Y658158D01*
X582971D01*
Y658311D01*
X583123D01*
Y658463D01*
X582971D01*
Y658615D01*
X583123D01*
Y658768D01*
X583581D01*
Y658920D01*
X584038D01*
Y658768D01*
X584190D01*
Y658615D01*
X584343D01*
Y658463D01*
X584495D01*
Y658311D01*
X584648D01*
Y658158D01*
Y658006D01*
Y657853D01*
Y657701D01*
Y657549D01*
Y657396D01*
Y657244D01*
Y657091D01*
Y656939D01*
Y656786D01*
Y656634D01*
Y656481D01*
Y656329D01*
Y656177D01*
Y656024D01*
Y655872D01*
Y655719D01*
Y655567D01*
Y655415D01*
Y655262D01*
Y655110D01*
Y654957D01*
Y654805D01*
Y654652D01*
Y654500D01*
Y654348D01*
Y654195D01*
Y654043D01*
Y653890D01*
Y653738D01*
Y653585D01*
Y653433D01*
Y653281D01*
X584800D01*
Y653128D01*
Y652976D01*
Y652823D01*
X584952D01*
Y652671D01*
X585105D01*
Y652518D01*
X585257D01*
Y652366D01*
X585410D01*
Y652214D01*
X585562D01*
Y652366D01*
X585715D01*
Y652214D01*
X585867D01*
Y652366D01*
X586019D01*
Y652214D01*
X586172D01*
Y652366D01*
X586324D01*
Y652214D01*
X586477D01*
Y652366D01*
X586629D01*
Y652214D01*
X586782D01*
Y652366D01*
X586934D01*
Y652518D01*
X587391D01*
Y652671D01*
Y652823D01*
X587696D01*
Y652976D01*
X587544D01*
Y653128D01*
X587696D01*
Y653281D01*
Y653433D01*
Y653585D01*
Y653738D01*
Y653890D01*
Y654043D01*
Y654195D01*
Y654348D01*
Y654500D01*
Y654652D01*
Y654805D01*
Y654957D01*
Y655110D01*
Y655262D01*
Y655415D01*
Y655567D01*
Y655719D01*
Y655872D01*
Y656024D01*
Y656177D01*
Y656329D01*
Y656481D01*
Y656634D01*
Y656786D01*
Y656939D01*
Y657091D01*
Y657244D01*
Y657396D01*
Y657549D01*
Y657701D01*
Y657853D01*
Y658006D01*
Y658158D01*
X587849D01*
Y658311D01*
X588001D01*
Y658463D01*
X587849D01*
Y658615D01*
X588001D01*
Y658768D01*
X588153D01*
Y658615D01*
X588306D01*
Y658768D01*
X588458D01*
Y658920D01*
X588915D01*
Y658768D01*
D02*
G37*
G36*
X568490D02*
X568643D01*
Y658615D01*
X568948D01*
Y658463D01*
Y658311D01*
X569100D01*
Y658158D01*
Y658006D01*
Y657853D01*
Y657701D01*
Y657549D01*
Y657396D01*
Y657244D01*
Y657091D01*
Y656939D01*
Y656786D01*
Y656634D01*
Y656481D01*
Y656329D01*
Y656177D01*
Y656024D01*
Y655872D01*
Y655719D01*
Y655567D01*
Y655415D01*
Y655262D01*
Y655110D01*
Y654957D01*
Y654805D01*
Y654652D01*
Y654500D01*
Y654348D01*
Y654195D01*
Y654043D01*
Y653890D01*
Y653738D01*
Y653585D01*
Y653433D01*
Y653281D01*
Y653128D01*
Y652976D01*
Y652823D01*
Y652671D01*
Y652518D01*
Y652366D01*
Y652214D01*
Y652061D01*
Y651909D01*
Y651756D01*
Y651604D01*
Y651451D01*
Y651299D01*
Y651147D01*
X568948D01*
Y650994D01*
X569100D01*
Y650842D01*
X568643D01*
Y650689D01*
X568490D01*
Y650537D01*
X568033D01*
Y650689D01*
X567728D01*
Y650842D01*
X567423D01*
Y650994D01*
Y651147D01*
Y651299D01*
X567271D01*
Y651451D01*
Y651604D01*
Y651756D01*
X567423D01*
Y651909D01*
X567271D01*
Y652061D01*
Y652214D01*
Y652366D01*
X567423D01*
Y652518D01*
X567271D01*
Y652671D01*
Y652823D01*
Y652976D01*
X567423D01*
Y653128D01*
X567271D01*
Y653281D01*
Y653433D01*
Y653585D01*
X567423D01*
Y653738D01*
X567271D01*
Y653890D01*
Y654043D01*
Y654195D01*
X567423D01*
Y654348D01*
X567271D01*
Y654500D01*
Y654652D01*
Y654805D01*
X567423D01*
Y654957D01*
X567271D01*
Y655110D01*
Y655262D01*
Y655415D01*
X567423D01*
Y655567D01*
X567271D01*
Y655719D01*
Y655872D01*
Y656024D01*
X567423D01*
Y656177D01*
X567271D01*
Y656329D01*
Y656481D01*
Y656634D01*
X567423D01*
Y656786D01*
X567271D01*
Y656939D01*
Y657091D01*
Y657244D01*
X567423D01*
Y657396D01*
X567271D01*
Y657549D01*
Y657701D01*
Y657853D01*
X567423D01*
Y658006D01*
X567271D01*
Y658158D01*
X567423D01*
Y658311D01*
Y658463D01*
Y658615D01*
X567728D01*
Y658768D01*
Y658920D01*
X567881D01*
Y658768D01*
X568033D01*
Y658920D01*
X568186D01*
Y658768D01*
X568338D01*
Y658920D01*
X568490D01*
Y658768D01*
D02*
G37*
G36*
X616047D02*
X616200D01*
Y658615D01*
X616352D01*
Y658463D01*
Y658311D01*
Y658158D01*
X616505D01*
Y658006D01*
Y657853D01*
Y657701D01*
X616352D01*
Y657549D01*
Y657396D01*
Y657244D01*
X616200D01*
Y657091D01*
Y656939D01*
Y656786D01*
X616047D01*
Y656634D01*
X615895D01*
Y656481D01*
X616047D01*
Y656329D01*
X615895D01*
Y656177D01*
X615743D01*
Y656024D01*
Y655872D01*
Y655719D01*
X615590D01*
Y655567D01*
X615438D01*
Y655415D01*
Y655262D01*
Y655110D01*
X615285D01*
Y654957D01*
Y654805D01*
Y654652D01*
X615133D01*
Y654500D01*
X614981D01*
Y654348D01*
X615133D01*
Y654195D01*
X614981D01*
Y654043D01*
X614828D01*
Y653890D01*
Y653738D01*
Y653585D01*
X614676D01*
Y653433D01*
Y653281D01*
X614523D01*
Y653128D01*
Y652976D01*
X614371D01*
Y652823D01*
Y652671D01*
Y652518D01*
X614218D01*
Y652366D01*
X614066D01*
Y652214D01*
X614218D01*
Y652061D01*
X614066D01*
Y651909D01*
Y651756D01*
X613913D01*
Y651604D01*
Y651451D01*
X613761D01*
Y651299D01*
Y651147D01*
X613609D01*
Y650994D01*
Y650842D01*
X613456D01*
Y650689D01*
X613609D01*
Y650537D01*
X613456D01*
Y650384D01*
X613304D01*
Y650232D01*
Y650080D01*
Y649927D01*
X613151D01*
Y649775D01*
Y649622D01*
X612999D01*
Y649470D01*
Y649317D01*
X612846D01*
Y649165D01*
X612694D01*
Y649013D01*
X612542D01*
Y648860D01*
X612694D01*
Y648708D01*
X612389D01*
Y648555D01*
Y648403D01*
X612237D01*
Y648251D01*
X612084D01*
Y648098D01*
X611627D01*
Y647946D01*
X611475D01*
Y647793D01*
X611322D01*
Y647641D01*
X611170D01*
Y647793D01*
X611017D01*
Y647641D01*
X610865D01*
Y647488D01*
X610713D01*
Y647641D01*
X610560D01*
Y647488D01*
X610103D01*
Y647641D01*
X609950D01*
Y647488D01*
X609798D01*
Y647641D01*
X609646D01*
Y647488D01*
X609493D01*
Y647641D01*
X609341D01*
Y647793D01*
X609188D01*
Y647946D01*
Y648098D01*
X609036D01*
Y648251D01*
Y648403D01*
Y648555D01*
Y648708D01*
X609188D01*
Y648860D01*
X609341D01*
Y649013D01*
X609188D01*
Y649165D01*
X609646D01*
Y649317D01*
X609798D01*
Y649165D01*
X609950D01*
Y649317D01*
X610408D01*
Y649470D01*
X610865D01*
Y649622D01*
X611017D01*
Y649775D01*
X611170D01*
Y649927D01*
X611322D01*
Y650080D01*
X611475D01*
Y650232D01*
X611322D01*
Y650384D01*
X611475D01*
Y650537D01*
X611627D01*
Y650689D01*
Y650842D01*
Y650994D01*
X611780D01*
Y651147D01*
Y651299D01*
Y651451D01*
Y651604D01*
Y651756D01*
X611627D01*
Y651909D01*
X611780D01*
Y652061D01*
X611627D01*
Y652214D01*
X611475D01*
Y652366D01*
Y652518D01*
Y652671D01*
X611322D01*
Y652823D01*
Y652976D01*
X611170D01*
Y653128D01*
Y653281D01*
X611017D01*
Y653433D01*
X611170D01*
Y653585D01*
X611017D01*
Y653738D01*
X610865D01*
Y653890D01*
X610713D01*
Y654043D01*
X610865D01*
Y654195D01*
X610713D01*
Y654348D01*
X610560D01*
Y654500D01*
Y654652D01*
Y654805D01*
X610408D01*
Y654957D01*
Y655110D01*
Y655262D01*
X610255D01*
Y655415D01*
X610103D01*
Y655567D01*
X610255D01*
Y655719D01*
X610103D01*
Y655872D01*
X609950D01*
Y656024D01*
Y656177D01*
Y656329D01*
X609798D01*
Y656481D01*
X609646D01*
Y656634D01*
Y656786D01*
Y656939D01*
X609493D01*
Y657091D01*
Y657244D01*
Y657396D01*
X609341D01*
Y657549D01*
X609188D01*
Y657701D01*
X609341D01*
Y657853D01*
X609188D01*
Y658006D01*
X609341D01*
Y658158D01*
X609188D01*
Y658311D01*
X609341D01*
Y658463D01*
X609493D01*
Y658615D01*
X609646D01*
Y658768D01*
X609798D01*
Y658920D01*
X610255D01*
Y658768D01*
X610408D01*
Y658920D01*
X610560D01*
Y658768D01*
X610713D01*
Y658615D01*
X610865D01*
Y658463D01*
X611017D01*
Y658311D01*
X611170D01*
Y658158D01*
X611017D01*
Y658006D01*
X611170D01*
Y657853D01*
Y657701D01*
X611322D01*
Y657549D01*
Y657396D01*
X611475D01*
Y657244D01*
X611322D01*
Y657091D01*
X611475D01*
Y656939D01*
X611627D01*
Y656786D01*
Y656634D01*
Y656481D01*
X611780D01*
Y656329D01*
X611932D01*
Y656177D01*
Y656024D01*
Y655872D01*
X612084D01*
Y655719D01*
Y655567D01*
Y655415D01*
X612237D01*
Y655262D01*
X612389D01*
Y655110D01*
X612237D01*
Y654957D01*
X612389D01*
Y654805D01*
Y654652D01*
X612542D01*
Y654500D01*
Y654348D01*
X612694D01*
Y654195D01*
Y654043D01*
Y653890D01*
X612846D01*
Y653738D01*
X612999D01*
Y653890D01*
X612846D01*
Y654043D01*
X612999D01*
Y654195D01*
X613151D01*
Y654348D01*
Y654500D01*
Y654652D01*
X613304D01*
Y654805D01*
Y654957D01*
Y655110D01*
X613456D01*
Y655262D01*
X613609D01*
Y655415D01*
Y655567D01*
Y655719D01*
X613761D01*
Y655872D01*
Y656024D01*
Y656177D01*
X613913D01*
Y656329D01*
Y656481D01*
Y656634D01*
X614066D01*
Y656786D01*
X614218D01*
Y656939D01*
X614066D01*
Y657091D01*
X614218D01*
Y657244D01*
X614371D01*
Y657396D01*
X614523D01*
Y657549D01*
X614371D01*
Y657701D01*
X614523D01*
Y657853D01*
Y658006D01*
X614676D01*
Y658158D01*
Y658311D01*
X614828D01*
Y658463D01*
X614981D01*
Y658615D01*
X615133D01*
Y658768D01*
X615285D01*
Y658920D01*
X615743D01*
Y658768D01*
X615895D01*
Y658920D01*
X616047D01*
Y658768D01*
D02*
G37*
G36*
X546236Y657549D02*
X546389D01*
Y657396D01*
X546846D01*
Y657244D01*
X546998D01*
Y657091D01*
X547151D01*
Y656939D01*
X547303D01*
Y656786D01*
X547455D01*
Y656634D01*
X547608D01*
Y656481D01*
X547760D01*
Y656329D01*
X547913D01*
Y656177D01*
X548065D01*
Y656024D01*
X548218D01*
Y656177D01*
X548675D01*
Y656329D01*
X548827D01*
Y656481D01*
X549285D01*
Y656634D01*
X549437D01*
Y656481D01*
X549590D01*
Y656634D01*
X549742D01*
Y656786D01*
X549894D01*
Y656634D01*
X550047D01*
Y656786D01*
X550809D01*
Y656939D01*
X550961D01*
Y656786D01*
X551114D01*
Y656939D01*
X551266D01*
Y656786D01*
X551419D01*
Y656939D01*
X551571D01*
Y656786D01*
X551723D01*
Y656939D01*
X551876D01*
Y656786D01*
X552638D01*
Y656634D01*
X552790D01*
Y656786D01*
X552943D01*
Y656634D01*
X553095D01*
Y656481D01*
X553857D01*
Y656329D01*
X554010D01*
Y656177D01*
X554467D01*
Y656024D01*
X554619D01*
Y655872D01*
X554772D01*
Y655719D01*
X554924D01*
Y655872D01*
X555077D01*
Y655719D01*
Y655567D01*
X555382D01*
Y655415D01*
X555534D01*
Y655262D01*
X555686D01*
Y655110D01*
X555839D01*
Y654957D01*
X555991D01*
Y654805D01*
X556144D01*
Y654652D01*
X556296D01*
Y654500D01*
Y654348D01*
X556449D01*
Y654195D01*
Y654043D01*
X556601D01*
Y653890D01*
X556754D01*
Y653738D01*
X556906D01*
Y653585D01*
X556754D01*
Y653433D01*
X556906D01*
Y653281D01*
X557058D01*
Y653128D01*
X557211D01*
Y652976D01*
X557058D01*
Y652823D01*
X557211D01*
Y652671D01*
X557363D01*
Y652518D01*
Y652366D01*
Y652214D01*
X557516D01*
Y652061D01*
X557363D01*
Y651909D01*
X557516D01*
Y651756D01*
Y651604D01*
Y651451D01*
X557668D01*
Y651299D01*
X557516D01*
Y651147D01*
X557668D01*
Y650994D01*
Y650842D01*
Y650689D01*
Y650537D01*
Y650384D01*
Y650232D01*
Y650080D01*
X557516D01*
Y649927D01*
Y649775D01*
Y649622D01*
Y649470D01*
Y649317D01*
X557363D01*
Y649165D01*
X557516D01*
Y649013D01*
X557363D01*
Y648860D01*
Y648708D01*
Y648555D01*
X557211D01*
Y648403D01*
Y648251D01*
Y648098D01*
X557058D01*
Y647946D01*
Y647793D01*
Y647641D01*
X556906D01*
Y647488D01*
X556754D01*
Y647336D01*
X556906D01*
Y647184D01*
X556754D01*
Y647031D01*
X556906D01*
Y646879D01*
X556754D01*
Y646726D01*
X556906D01*
Y646574D01*
Y646421D01*
Y646269D01*
Y646116D01*
Y645964D01*
X557058D01*
Y645812D01*
X556906D01*
Y645659D01*
Y645507D01*
Y645354D01*
X557058D01*
Y645202D01*
X556906D01*
Y645050D01*
Y644897D01*
Y644745D01*
X556754D01*
Y644592D01*
X556906D01*
Y644440D01*
X556754D01*
Y644287D01*
X556906D01*
Y644135D01*
X556754D01*
Y643982D01*
X556601D01*
Y643830D01*
Y643678D01*
Y643525D01*
X556449D01*
Y643373D01*
X556601D01*
Y643220D01*
X556449D01*
Y643068D01*
X556296D01*
Y642916D01*
X556144D01*
Y642763D01*
Y642611D01*
Y642458D01*
X555991D01*
Y642306D01*
X555839D01*
Y642153D01*
X555686D01*
Y642001D01*
X555534D01*
Y641849D01*
X555686D01*
Y641696D01*
X555229D01*
Y641544D01*
Y641391D01*
X554924D01*
Y641239D01*
X555077D01*
Y641086D01*
X554619D01*
Y640934D01*
X554467D01*
Y640782D01*
X554315D01*
Y640629D01*
X554162D01*
Y640477D01*
X554010D01*
Y640324D01*
X553857D01*
Y640172D01*
Y640019D01*
X554010D01*
Y639867D01*
Y639715D01*
X553857D01*
Y639562D01*
Y639410D01*
Y639257D01*
X554010D01*
Y639105D01*
X553857D01*
Y638952D01*
Y638800D01*
Y638648D01*
X553705D01*
Y638495D01*
X553857D01*
Y638343D01*
X553705D01*
Y638190D01*
X553857D01*
Y638038D01*
X553705D01*
Y637886D01*
X553553D01*
Y637733D01*
Y637581D01*
Y637428D01*
X553400D01*
Y637276D01*
X553248D01*
Y637123D01*
Y636971D01*
Y636819D01*
X553095D01*
Y636666D01*
X552943D01*
Y636514D01*
X552790D01*
Y636361D01*
X552943D01*
Y636209D01*
X552790D01*
Y636056D01*
X552638D01*
Y635904D01*
X552486D01*
Y635751D01*
X552333D01*
Y635599D01*
X552181D01*
Y635447D01*
X552028D01*
Y635294D01*
X551876D01*
Y635142D01*
X551723D01*
Y634989D01*
X551571D01*
Y634837D01*
X551266D01*
Y634684D01*
X550961D01*
Y634532D01*
X550809D01*
Y634380D01*
X550352D01*
Y634227D01*
X550199D01*
Y634075D01*
X549742D01*
Y633922D01*
X549590D01*
Y634075D01*
X549437D01*
Y633922D01*
X549285D01*
Y633770D01*
X548218D01*
Y633618D01*
X548065D01*
Y633465D01*
X547913D01*
Y633313D01*
Y633160D01*
X547760D01*
Y633008D01*
Y632855D01*
X547608D01*
Y632703D01*
X547455D01*
Y632551D01*
X547303D01*
Y632398D01*
X547151D01*
Y632246D01*
X546998D01*
Y632093D01*
X546846D01*
Y631941D01*
X546389D01*
Y631788D01*
X546236D01*
Y631636D01*
X546084D01*
Y631484D01*
X545931D01*
Y631331D01*
X545474D01*
Y631179D01*
X545017D01*
Y631026D01*
X544559D01*
Y630874D01*
X544102D01*
Y630721D01*
X543950D01*
Y630874D01*
X543797D01*
Y630721D01*
X541816D01*
Y630874D01*
X541663D01*
Y630721D01*
X541511D01*
Y630874D01*
X541054D01*
Y631026D01*
X540596D01*
Y631179D01*
X540291D01*
Y631331D01*
X539987D01*
Y631484D01*
X539834D01*
Y631636D01*
X539682D01*
Y631484D01*
X539529D01*
Y631636D01*
X539377D01*
Y631788D01*
X539224D01*
Y631941D01*
X539072D01*
Y632093D01*
X538920D01*
Y632246D01*
X538615D01*
Y632398D01*
X538462D01*
Y632551D01*
X538158D01*
Y632703D01*
Y632855D01*
X538005D01*
Y633008D01*
Y633160D01*
X537853D01*
Y633313D01*
X537700D01*
Y633465D01*
X537548D01*
Y633618D01*
X537395D01*
Y633770D01*
X536633D01*
Y633922D01*
X536481D01*
Y633770D01*
X536328D01*
Y633922D01*
X536176D01*
Y634075D01*
X535719D01*
Y634227D01*
X535566D01*
Y634075D01*
X535414D01*
Y634227D01*
X535261D01*
Y634380D01*
X534804D01*
Y634532D01*
X534652D01*
Y634684D01*
X534499D01*
Y634837D01*
X534347D01*
Y634989D01*
X533890D01*
Y635142D01*
Y635294D01*
X533585D01*
Y635447D01*
X533432D01*
Y635599D01*
X533280D01*
Y635751D01*
Y635904D01*
X533127D01*
Y636056D01*
X532975D01*
Y636209D01*
X532822D01*
Y636361D01*
Y636514D01*
X532670D01*
Y636666D01*
X532518D01*
Y636819D01*
X532365D01*
Y636971D01*
X532518D01*
Y637123D01*
X532365D01*
Y637276D01*
X532213D01*
Y637428D01*
Y637581D01*
Y637733D01*
X532060D01*
Y637886D01*
Y638038D01*
Y638190D01*
X531908D01*
Y638343D01*
Y638495D01*
Y638648D01*
X531756D01*
Y638800D01*
X531908D01*
Y638952D01*
X531756D01*
Y639105D01*
X531908D01*
Y639257D01*
X531756D01*
Y639410D01*
X531908D01*
Y639562D01*
X531756D01*
Y639715D01*
Y639867D01*
Y640019D01*
X531908D01*
Y640172D01*
X531756D01*
Y640324D01*
Y640477D01*
X531451D01*
Y640629D01*
X531298D01*
Y640782D01*
X531146D01*
Y640934D01*
X530993D01*
Y641086D01*
X530841D01*
Y641239D01*
X530689D01*
Y641391D01*
X530536D01*
Y641544D01*
X530384D01*
Y641696D01*
X530231D01*
Y641849D01*
X530079D01*
Y642001D01*
X529926D01*
Y642153D01*
X529774D01*
Y642306D01*
X529622D01*
Y642458D01*
Y642611D01*
Y642763D01*
X529469D01*
Y642916D01*
X529317D01*
Y643068D01*
X529469D01*
Y643220D01*
X529317D01*
Y643373D01*
X529164D01*
Y643525D01*
X529012D01*
Y643678D01*
X529164D01*
Y643830D01*
X529012D01*
Y643982D01*
X528859D01*
Y644135D01*
Y644287D01*
Y644440D01*
Y644592D01*
Y644745D01*
X528707D01*
Y644897D01*
X528859D01*
Y645050D01*
X528707D01*
Y645202D01*
X528859D01*
Y645354D01*
X528707D01*
Y645507D01*
X528859D01*
Y645659D01*
X528707D01*
Y645812D01*
Y645964D01*
Y646116D01*
X528859D01*
Y646269D01*
X528707D01*
Y646421D01*
X528859D01*
Y646574D01*
X528707D01*
Y646726D01*
X528859D01*
Y646879D01*
Y647031D01*
Y647184D01*
Y647336D01*
Y647488D01*
X528707D01*
Y647641D01*
Y647793D01*
Y647946D01*
X528555D01*
Y648098D01*
X528402D01*
Y648251D01*
X528555D01*
Y648403D01*
X528402D01*
Y648555D01*
Y648708D01*
Y648860D01*
X528250D01*
Y649013D01*
X528097D01*
Y649165D01*
X528250D01*
Y649317D01*
X528097D01*
Y649470D01*
X528250D01*
Y649622D01*
X528097D01*
Y649775D01*
Y649927D01*
Y650080D01*
Y650232D01*
Y650384D01*
Y650537D01*
Y650689D01*
Y650842D01*
Y650994D01*
Y651147D01*
Y651299D01*
X528250D01*
Y651451D01*
X528097D01*
Y651604D01*
X528250D01*
Y651756D01*
X528097D01*
Y651909D01*
X528250D01*
Y652061D01*
Y652214D01*
Y652366D01*
X528402D01*
Y652518D01*
X528555D01*
Y652671D01*
X528402D01*
Y652823D01*
X528555D01*
Y652976D01*
Y653128D01*
X528707D01*
Y653281D01*
Y653433D01*
X528859D01*
Y653585D01*
Y653738D01*
X529012D01*
Y653890D01*
Y654043D01*
X529164D01*
Y654195D01*
X529317D01*
Y654348D01*
X529469D01*
Y654500D01*
X529317D01*
Y654652D01*
X529774D01*
Y654805D01*
X529622D01*
Y654957D01*
X529926D01*
Y655110D01*
Y655262D01*
X530384D01*
Y655415D01*
Y655567D01*
X530689D01*
Y655719D01*
X530841D01*
Y655872D01*
X530993D01*
Y656024D01*
X531146D01*
Y655872D01*
X531298D01*
Y656024D01*
X531451D01*
Y656177D01*
X531603D01*
Y656329D01*
X531756D01*
Y656481D01*
X531908D01*
Y656329D01*
X532060D01*
Y656481D01*
X532518D01*
Y656634D01*
X532670D01*
Y656786D01*
X532822D01*
Y656634D01*
X532975D01*
Y656786D01*
X533737D01*
Y656939D01*
X533890D01*
Y656786D01*
X534042D01*
Y656939D01*
X534194D01*
Y656786D01*
X534347D01*
Y656939D01*
X534499D01*
Y656786D01*
X534652D01*
Y656939D01*
X534804D01*
Y656786D01*
X534957D01*
Y656939D01*
X535109D01*
Y656786D01*
X535871D01*
Y656634D01*
X536023D01*
Y656481D01*
X536176D01*
Y656634D01*
X536328D01*
Y656481D01*
X536786D01*
Y656329D01*
X536938D01*
Y656177D01*
X537395D01*
Y656024D01*
X537548D01*
Y656177D01*
X537700D01*
Y656329D01*
X537853D01*
Y656481D01*
X538005D01*
Y656634D01*
X538158D01*
Y656786D01*
X538310D01*
Y656939D01*
X538462D01*
Y657091D01*
X538767D01*
Y657244D01*
X538920D01*
Y657396D01*
X539224D01*
Y657549D01*
X539377D01*
Y657701D01*
X540444D01*
Y657549D01*
X540596D01*
Y657396D01*
X540749D01*
Y657244D01*
Y657091D01*
Y656939D01*
X540901D01*
Y656786D01*
X540749D01*
Y656634D01*
Y656481D01*
Y656329D01*
X540596D01*
Y656177D01*
Y656024D01*
X540291D01*
Y655872D01*
X540139D01*
Y655719D01*
X539987D01*
Y655567D01*
X539834D01*
Y655415D01*
X539529D01*
Y655262D01*
X539377D01*
Y655110D01*
X539072D01*
Y654957D01*
Y654805D01*
X538920D01*
Y654652D01*
Y654500D01*
X538767D01*
Y654348D01*
X538615D01*
Y654195D01*
X538462D01*
Y654043D01*
Y653890D01*
X538310D01*
Y653738D01*
Y653585D01*
X538158D01*
Y653433D01*
Y653281D01*
Y653128D01*
X538005D01*
Y652976D01*
X537853D01*
Y652823D01*
X538005D01*
Y652671D01*
X537853D01*
Y652518D01*
X538005D01*
Y652366D01*
X537853D01*
Y652214D01*
X538005D01*
Y652061D01*
X537853D01*
Y651909D01*
Y651756D01*
Y651604D01*
Y651451D01*
Y651299D01*
Y651147D01*
Y650994D01*
X538005D01*
Y650842D01*
X537853D01*
Y650689D01*
X538005D01*
Y650537D01*
X537853D01*
Y650384D01*
X538005D01*
Y650232D01*
Y650080D01*
Y649927D01*
X538158D01*
Y649775D01*
X538310D01*
Y649622D01*
X538158D01*
Y649470D01*
X538310D01*
Y649317D01*
X538462D01*
Y649165D01*
X538615D01*
Y649013D01*
X538462D01*
Y648860D01*
X538615D01*
Y648708D01*
X538767D01*
Y648555D01*
X538920D01*
Y648403D01*
X539072D01*
Y648251D01*
X539224D01*
Y648098D01*
Y647946D01*
X539529D01*
Y647793D01*
X539682D01*
Y647641D01*
X539834D01*
Y647488D01*
X539987D01*
Y647336D01*
X540444D01*
Y647184D01*
X540596D01*
Y647031D01*
X541054D01*
Y646879D01*
X541206D01*
Y646726D01*
X541968D01*
Y646574D01*
X542121D01*
Y646726D01*
X542273D01*
Y646574D01*
X542425D01*
Y646421D01*
X542578D01*
Y646574D01*
X542730D01*
Y646421D01*
X542883D01*
Y646574D01*
X543035D01*
Y646421D01*
X543187D01*
Y646574D01*
X543340D01*
Y646726D01*
X543492D01*
Y646574D01*
X543645D01*
Y646726D01*
X543797D01*
Y646574D01*
X543950D01*
Y646726D01*
X544407D01*
Y646879D01*
X544559D01*
Y646726D01*
X544712D01*
Y646879D01*
X544864D01*
Y647031D01*
X545169D01*
Y647184D01*
X545474D01*
Y647336D01*
X545626D01*
Y647488D01*
X545779D01*
Y647641D01*
X545931D01*
Y647793D01*
X546084D01*
Y647641D01*
X546236D01*
Y647793D01*
Y647946D01*
X546541D01*
Y648098D01*
Y648251D01*
X546693D01*
Y648403D01*
Y648555D01*
X546846D01*
Y648708D01*
X546998D01*
Y648860D01*
X547151D01*
Y649013D01*
Y649165D01*
X547303D01*
Y649317D01*
Y649470D01*
X547455D01*
Y649622D01*
X547608D01*
Y649775D01*
Y649927D01*
Y650080D01*
X547760D01*
Y650232D01*
X547608D01*
Y650384D01*
X547760D01*
Y650537D01*
Y650689D01*
Y650842D01*
X547913D01*
Y650994D01*
Y651147D01*
Y651299D01*
Y651451D01*
Y651604D01*
Y651756D01*
Y651909D01*
X547760D01*
Y652061D01*
Y652214D01*
Y652366D01*
Y652518D01*
Y652671D01*
X547608D01*
Y652823D01*
X547760D01*
Y652976D01*
X547608D01*
Y653128D01*
Y653281D01*
Y653433D01*
X547455D01*
Y653585D01*
X547303D01*
Y653738D01*
X547455D01*
Y653890D01*
X547303D01*
Y654043D01*
X547151D01*
Y654195D01*
X546998D01*
Y654348D01*
Y654500D01*
X546846D01*
Y654652D01*
Y654805D01*
X546693D01*
Y654957D01*
X546541D01*
Y655110D01*
X546389D01*
Y655262D01*
X546236D01*
Y655415D01*
X546084D01*
Y655567D01*
X545931D01*
Y655719D01*
X545474D01*
Y655872D01*
X545322D01*
Y656024D01*
X545169D01*
Y656177D01*
X545017D01*
Y656329D01*
X544864D01*
Y656481D01*
X545017D01*
Y656634D01*
X544864D01*
Y656786D01*
X545017D01*
Y656939D01*
X544864D01*
Y657091D01*
X545017D01*
Y657244D01*
Y657396D01*
X545322D01*
Y657549D01*
X545474D01*
Y657701D01*
X546236D01*
Y657549D01*
D02*
G37*
G36*
X603548Y658768D02*
X603701D01*
Y658615D01*
X603853D01*
Y658768D01*
X604006D01*
Y658615D01*
X604158D01*
Y658463D01*
X604311D01*
Y658311D01*
X604768D01*
Y658158D01*
X604920D01*
Y658006D01*
X605073D01*
Y657853D01*
Y657701D01*
X605225D01*
Y657549D01*
Y657396D01*
X605378D01*
Y657244D01*
X605530D01*
Y657091D01*
X605682D01*
Y656939D01*
Y656786D01*
Y656634D01*
X605835D01*
Y656481D01*
Y656329D01*
Y656177D01*
X605987D01*
Y656024D01*
X605835D01*
Y655872D01*
X605987D01*
Y655719D01*
X605835D01*
Y655567D01*
X605987D01*
Y655415D01*
Y655262D01*
Y655110D01*
Y654957D01*
Y654805D01*
Y654652D01*
Y654500D01*
Y654348D01*
Y654195D01*
Y654043D01*
Y653890D01*
X605835D01*
Y653738D01*
X605987D01*
Y653585D01*
X605835D01*
Y653433D01*
X605987D01*
Y653281D01*
X605835D01*
Y653128D01*
Y652976D01*
X605682D01*
Y652823D01*
Y652671D01*
X605530D01*
Y652518D01*
X605682D01*
Y652366D01*
X605530D01*
Y652214D01*
X605378D01*
Y652061D01*
X605225D01*
Y651909D01*
X605378D01*
Y651756D01*
X605073D01*
Y651604D01*
Y651451D01*
X604768D01*
Y651299D01*
Y651147D01*
X604311D01*
Y650994D01*
X604158D01*
Y650842D01*
X603701D01*
Y650689D01*
X603548D01*
Y650537D01*
X603396D01*
Y650689D01*
X603244D01*
Y650537D01*
X601567D01*
Y650689D01*
X601414D01*
Y650537D01*
X601262D01*
Y650689D01*
X601110D01*
Y650842D01*
X600652D01*
Y650994D01*
X600500D01*
Y650842D01*
Y650689D01*
Y650537D01*
Y650384D01*
Y650232D01*
Y650080D01*
Y649927D01*
Y649775D01*
Y649622D01*
Y649470D01*
Y649317D01*
Y649165D01*
Y649013D01*
Y648860D01*
Y648708D01*
Y648555D01*
Y648403D01*
Y648251D01*
Y648098D01*
X600348D01*
Y647946D01*
Y647793D01*
X600043D01*
Y647641D01*
X599890D01*
Y647488D01*
X599433D01*
Y647641D01*
X599281D01*
Y647793D01*
X599128D01*
Y647641D01*
X598976D01*
Y647793D01*
X598823D01*
Y647946D01*
Y648098D01*
Y648251D01*
X598671D01*
Y648403D01*
Y648555D01*
Y648708D01*
Y648860D01*
Y649013D01*
Y649165D01*
Y649317D01*
Y649470D01*
Y649622D01*
Y649775D01*
Y649927D01*
Y650080D01*
Y650232D01*
Y650384D01*
Y650537D01*
Y650689D01*
Y650842D01*
Y650994D01*
Y651147D01*
Y651299D01*
Y651451D01*
Y651604D01*
Y651756D01*
Y651909D01*
Y652061D01*
Y652214D01*
Y652366D01*
Y652518D01*
Y652671D01*
Y652823D01*
Y652976D01*
Y653128D01*
Y653281D01*
Y653433D01*
Y653585D01*
Y653738D01*
Y653890D01*
Y654043D01*
Y654195D01*
Y654348D01*
Y654500D01*
Y654652D01*
Y654805D01*
Y654957D01*
Y655110D01*
Y655262D01*
Y655415D01*
Y655567D01*
Y655719D01*
Y655872D01*
Y656024D01*
Y656177D01*
Y656329D01*
Y656481D01*
Y656634D01*
Y656786D01*
Y656939D01*
Y657091D01*
Y657244D01*
Y657396D01*
Y657549D01*
Y657701D01*
Y657853D01*
Y658006D01*
Y658158D01*
X598823D01*
Y658311D01*
X598976D01*
Y658463D01*
X598823D01*
Y658615D01*
X598976D01*
Y658768D01*
X599128D01*
Y658615D01*
X599281D01*
Y658768D01*
X599433D01*
Y658920D01*
X599890D01*
Y658768D01*
X600043D01*
Y658615D01*
X600348D01*
Y658463D01*
Y658311D01*
X600500D01*
Y658463D01*
X600652D01*
Y658615D01*
X601110D01*
Y658768D01*
X601262D01*
Y658920D01*
X603548D01*
Y658768D01*
D02*
G37*
G36*
X595317D02*
X595775D01*
Y658615D01*
X596232D01*
Y658463D01*
X596384D01*
Y658311D01*
X596537D01*
Y658158D01*
X596689D01*
Y658006D01*
X596842D01*
Y657853D01*
X596994D01*
Y657701D01*
X597146D01*
Y657549D01*
X597299D01*
Y657396D01*
X597451D01*
Y657244D01*
Y657091D01*
Y656939D01*
X597604D01*
Y656786D01*
X597756D01*
Y656634D01*
X597604D01*
Y656481D01*
X597756D01*
Y656329D01*
Y656177D01*
Y656024D01*
X597909D01*
Y655872D01*
Y655719D01*
Y655567D01*
X598061D01*
Y655415D01*
X597909D01*
Y655262D01*
Y655110D01*
Y654957D01*
X598061D01*
Y654805D01*
X597909D01*
Y654652D01*
Y654500D01*
Y654348D01*
X598061D01*
Y654195D01*
X597909D01*
Y654043D01*
Y653890D01*
Y653738D01*
X597756D01*
Y653585D01*
X597909D01*
Y653433D01*
X597756D01*
Y653281D01*
Y653128D01*
Y652976D01*
X597604D01*
Y652823D01*
X597756D01*
Y652671D01*
X597604D01*
Y652518D01*
X597451D01*
Y652366D01*
Y652214D01*
Y652061D01*
X597299D01*
Y651909D01*
X597146D01*
Y651756D01*
X596994D01*
Y651604D01*
X596842D01*
Y651451D01*
X596689D01*
Y651299D01*
X596537D01*
Y651147D01*
X596384D01*
Y650994D01*
X596232D01*
Y650842D01*
X595775D01*
Y650689D01*
X595317D01*
Y650537D01*
X593641D01*
Y650689D01*
X593488D01*
Y650537D01*
X593336D01*
Y650689D01*
X593183D01*
Y650842D01*
X593031D01*
Y650689D01*
X592879D01*
Y650842D01*
X592726D01*
Y650994D01*
X592574D01*
Y650842D01*
X592421D01*
Y650689D01*
X592574D01*
Y650537D01*
X592421D01*
Y650384D01*
X592574D01*
Y650232D01*
X592421D01*
Y650080D01*
X592574D01*
Y649927D01*
X592421D01*
Y649775D01*
X592574D01*
Y649622D01*
X592421D01*
Y649470D01*
X592574D01*
Y649317D01*
X592421D01*
Y649165D01*
X592574D01*
Y649013D01*
X592421D01*
Y648860D01*
X592574D01*
Y648708D01*
X592421D01*
Y648555D01*
X592574D01*
Y648403D01*
X592421D01*
Y648251D01*
X592574D01*
Y648098D01*
X592421D01*
Y647946D01*
X592269D01*
Y647793D01*
X592117D01*
Y647641D01*
X591964D01*
Y647488D01*
X591812D01*
Y647641D01*
X591659D01*
Y647488D01*
X591202D01*
Y647641D01*
X591049D01*
Y647793D01*
X590897D01*
Y647946D01*
X590745D01*
Y648098D01*
X590592D01*
Y648251D01*
X590745D01*
Y648403D01*
X590592D01*
Y648555D01*
X590745D01*
Y648708D01*
X590592D01*
Y648860D01*
X590745D01*
Y649013D01*
X590592D01*
Y649165D01*
X590745D01*
Y649317D01*
X590592D01*
Y649470D01*
X590745D01*
Y649622D01*
X590592D01*
Y649775D01*
X590745D01*
Y649927D01*
X590592D01*
Y650080D01*
X590745D01*
Y650232D01*
X590592D01*
Y650384D01*
X590745D01*
Y650537D01*
X590592D01*
Y650689D01*
X590745D01*
Y650842D01*
X590592D01*
Y650994D01*
X590745D01*
Y651147D01*
X590592D01*
Y651299D01*
X590745D01*
Y651451D01*
X590592D01*
Y651604D01*
X590745D01*
Y651756D01*
X590592D01*
Y651909D01*
X590745D01*
Y652061D01*
X590592D01*
Y652214D01*
X590745D01*
Y652366D01*
X590592D01*
Y652518D01*
X590745D01*
Y652671D01*
X590592D01*
Y652823D01*
X590745D01*
Y652976D01*
X590592D01*
Y653128D01*
X590745D01*
Y653281D01*
X590592D01*
Y653433D01*
X590745D01*
Y653585D01*
X590592D01*
Y653738D01*
X590745D01*
Y653890D01*
X590592D01*
Y654043D01*
X590745D01*
Y654195D01*
X590592D01*
Y654348D01*
X590745D01*
Y654500D01*
X590592D01*
Y654652D01*
X590745D01*
Y654805D01*
X590592D01*
Y654957D01*
X590745D01*
Y655110D01*
X590592D01*
Y655262D01*
X590745D01*
Y655415D01*
X590592D01*
Y655567D01*
X590745D01*
Y655719D01*
X590592D01*
Y655872D01*
X590745D01*
Y656024D01*
X590592D01*
Y656177D01*
X590745D01*
Y656329D01*
X590592D01*
Y656481D01*
X590745D01*
Y656634D01*
X590592D01*
Y656786D01*
X590745D01*
Y656939D01*
X590592D01*
Y657091D01*
X590745D01*
Y657244D01*
X590592D01*
Y657396D01*
X590745D01*
Y657549D01*
X590592D01*
Y657701D01*
X590745D01*
Y657853D01*
X590592D01*
Y658006D01*
X590745D01*
Y658158D01*
X590592D01*
Y658311D01*
X590745D01*
Y658463D01*
X590897D01*
Y658615D01*
X591049D01*
Y658768D01*
X591202D01*
Y658920D01*
X591354D01*
Y658768D01*
X591507D01*
Y658920D01*
X591964D01*
Y658768D01*
X592117D01*
Y658615D01*
X592269D01*
Y658463D01*
X592574D01*
Y658615D01*
X592879D01*
Y658768D01*
X593336D01*
Y658920D01*
X595317D01*
Y658768D01*
D02*
G37*
G36*
X543492Y662426D02*
Y662274D01*
X543797D01*
Y662121D01*
X543645D01*
Y661969D01*
X543797D01*
Y661816D01*
X543950D01*
Y661664D01*
X543797D01*
Y661512D01*
X543950D01*
Y661359D01*
X543797D01*
Y661207D01*
X543950D01*
Y661054D01*
X543797D01*
Y660902D01*
X543950D01*
Y660750D01*
X543797D01*
Y660597D01*
X543950D01*
Y660445D01*
X543797D01*
Y660292D01*
X543950D01*
Y660140D01*
X543797D01*
Y659987D01*
X543950D01*
Y659835D01*
X543797D01*
Y659682D01*
X543950D01*
Y659530D01*
X543797D01*
Y659378D01*
X543950D01*
Y659225D01*
X543797D01*
Y659073D01*
X543950D01*
Y658920D01*
X543797D01*
Y658768D01*
X543950D01*
Y658615D01*
X543797D01*
Y658463D01*
X543950D01*
Y658311D01*
X543797D01*
Y658158D01*
X543950D01*
Y658006D01*
X543797D01*
Y657853D01*
X543950D01*
Y657701D01*
X543797D01*
Y657549D01*
X543950D01*
Y657396D01*
X543797D01*
Y657244D01*
X543950D01*
Y657091D01*
X543797D01*
Y656939D01*
X543950D01*
Y656786D01*
X543797D01*
Y656634D01*
X543950D01*
Y656481D01*
X543797D01*
Y656329D01*
X543950D01*
Y656177D01*
X543797D01*
Y656024D01*
X543950D01*
Y655872D01*
X543797D01*
Y655719D01*
X543950D01*
Y655567D01*
X543797D01*
Y655415D01*
X543950D01*
Y655262D01*
X543797D01*
Y655110D01*
X543950D01*
Y654957D01*
X543797D01*
Y654805D01*
X543950D01*
Y654652D01*
X543797D01*
Y654500D01*
X543950D01*
Y654348D01*
X543797D01*
Y654195D01*
X543950D01*
Y654043D01*
X543797D01*
Y653890D01*
X543950D01*
Y653738D01*
X543797D01*
Y653585D01*
X543950D01*
Y653433D01*
X543797D01*
Y653281D01*
X543950D01*
Y653128D01*
X543797D01*
Y652976D01*
X543950D01*
Y652823D01*
X543797D01*
Y652671D01*
X543950D01*
Y652518D01*
X543797D01*
Y652366D01*
X543950D01*
Y652214D01*
X543797D01*
Y652061D01*
X543950D01*
Y651909D01*
X543797D01*
Y651756D01*
Y651604D01*
Y651451D01*
X543645D01*
Y651299D01*
X543492D01*
Y651147D01*
X543340D01*
Y650994D01*
X543187D01*
Y651147D01*
X543035D01*
Y650994D01*
X542883D01*
Y651147D01*
X542730D01*
Y650994D01*
X542883D01*
Y650842D01*
X542730D01*
Y650994D01*
X542578D01*
Y651147D01*
X542121D01*
Y651299D01*
X541968D01*
Y651451D01*
X541816D01*
Y651604D01*
X541968D01*
Y651756D01*
X541816D01*
Y651909D01*
Y652061D01*
Y652214D01*
Y652366D01*
Y652518D01*
Y652671D01*
Y652823D01*
Y652976D01*
Y653128D01*
Y653281D01*
Y653433D01*
Y653585D01*
Y653738D01*
Y653890D01*
Y654043D01*
Y654195D01*
Y654348D01*
Y654500D01*
Y654652D01*
Y654805D01*
Y654957D01*
Y655110D01*
Y655262D01*
Y655415D01*
Y655567D01*
Y655719D01*
Y655872D01*
Y656024D01*
Y656177D01*
Y656329D01*
Y656481D01*
Y656634D01*
Y656786D01*
Y656939D01*
Y657091D01*
Y657244D01*
Y657396D01*
Y657549D01*
Y657701D01*
Y657853D01*
Y658006D01*
Y658158D01*
Y658311D01*
Y658463D01*
Y658615D01*
Y658768D01*
Y658920D01*
Y659073D01*
Y659225D01*
Y659378D01*
Y659530D01*
Y659682D01*
Y659835D01*
Y659987D01*
Y660140D01*
Y660292D01*
Y660445D01*
Y660597D01*
Y660750D01*
Y660902D01*
Y661054D01*
Y661207D01*
Y661359D01*
Y661512D01*
Y661664D01*
Y661816D01*
Y661969D01*
X541968D01*
Y662121D01*
X542121D01*
Y662274D01*
X542273D01*
Y662426D01*
X542425D01*
Y662579D01*
X543187D01*
Y662426D01*
X543340D01*
Y662579D01*
X543492D01*
Y662426D01*
D02*
G37*
G36*
X578246D02*
X578398D01*
Y662274D01*
X578550D01*
Y662426D01*
X578703D01*
Y662274D01*
X578855D01*
Y662426D01*
X579008D01*
Y662274D01*
X579465D01*
Y662121D01*
X579618D01*
Y662274D01*
X579770D01*
Y662121D01*
X579922D01*
Y661969D01*
X580380D01*
Y661816D01*
X580532D01*
Y661664D01*
X580685D01*
Y661512D01*
X580837D01*
Y661664D01*
X580989D01*
Y661512D01*
Y661359D01*
X581294D01*
Y661207D01*
Y661054D01*
X581599D01*
Y660902D01*
X581447D01*
Y660750D01*
X581599D01*
Y660597D01*
X581752D01*
Y660445D01*
X581904D01*
Y660292D01*
X581752D01*
Y660140D01*
X581904D01*
Y659987D01*
X581752D01*
Y659835D01*
X581904D01*
Y659682D01*
X581752D01*
Y659530D01*
X581599D01*
Y659378D01*
X581447D01*
Y659225D01*
X580989D01*
Y659073D01*
X580837D01*
Y659225D01*
X580532D01*
Y659378D01*
X580227D01*
Y659530D01*
Y659682D01*
X579922D01*
Y659835D01*
Y659987D01*
X579618D01*
Y660140D01*
X579465D01*
Y660292D01*
X579313D01*
Y660445D01*
X579160D01*
Y660292D01*
X579008D01*
Y660445D01*
X578855D01*
Y660597D01*
X577179D01*
Y660445D01*
X577026D01*
Y660597D01*
X576874D01*
Y660445D01*
X576721D01*
Y660292D01*
X576569D01*
Y660140D01*
X576417D01*
Y659987D01*
X576264D01*
Y659835D01*
X576112D01*
Y659682D01*
Y659530D01*
Y659378D01*
X575959D01*
Y659225D01*
X576112D01*
Y659073D01*
Y658920D01*
Y658768D01*
X576264D01*
Y658615D01*
X576417D01*
Y658463D01*
X576569D01*
Y658311D01*
X577026D01*
Y658158D01*
X577179D01*
Y658006D01*
X577636D01*
Y657853D01*
X577788D01*
Y657701D01*
X577941D01*
Y657853D01*
X578093D01*
Y657701D01*
X578550D01*
Y657549D01*
X578703D01*
Y657396D01*
X578855D01*
Y657549D01*
X579008D01*
Y657396D01*
X579313D01*
Y657244D01*
X579618D01*
Y657091D01*
X580075D01*
Y656939D01*
X580227D01*
Y656786D01*
X580685D01*
Y656634D01*
X580837D01*
Y656481D01*
X580989D01*
Y656329D01*
X581142D01*
Y656177D01*
X581294D01*
Y656024D01*
X581447D01*
Y655872D01*
X581599D01*
Y655719D01*
Y655567D01*
X581752D01*
Y655415D01*
Y655262D01*
X581904D01*
Y655110D01*
Y654957D01*
Y654805D01*
X582056D01*
Y654652D01*
Y654500D01*
Y654348D01*
X582209D01*
Y654195D01*
X582056D01*
Y654043D01*
Y653890D01*
Y653738D01*
X582209D01*
Y653585D01*
X582056D01*
Y653433D01*
Y653281D01*
Y653128D01*
X581904D01*
Y652976D01*
Y652823D01*
Y652671D01*
X581752D01*
Y652518D01*
Y652366D01*
Y652214D01*
X581599D01*
Y652061D01*
X581447D01*
Y651909D01*
X581294D01*
Y651756D01*
X581142D01*
Y651604D01*
X581294D01*
Y651451D01*
X580837D01*
Y651299D01*
X580685D01*
Y651147D01*
X580532D01*
Y650994D01*
X580380D01*
Y650842D01*
X579618D01*
Y650689D01*
X579465D01*
Y650537D01*
X579313D01*
Y650689D01*
X579160D01*
Y650537D01*
X576874D01*
Y650689D01*
X576721D01*
Y650537D01*
X576569D01*
Y650689D01*
X576417D01*
Y650842D01*
X576264D01*
Y650689D01*
X576112D01*
Y650842D01*
X575654D01*
Y650994D01*
X575502D01*
Y651147D01*
X575197D01*
Y651299D01*
X574892D01*
Y651451D01*
X574740D01*
Y651604D01*
X574587D01*
Y651756D01*
X574435D01*
Y651909D01*
X574282D01*
Y652061D01*
X574130D01*
Y652214D01*
X573978D01*
Y652366D01*
Y652518D01*
Y652671D01*
X573825D01*
Y652823D01*
X573673D01*
Y652976D01*
Y653128D01*
Y653281D01*
Y653433D01*
X573825D01*
Y653585D01*
Y653738D01*
X573978D01*
Y653890D01*
X574130D01*
Y654043D01*
X574892D01*
Y653890D01*
X575045D01*
Y654043D01*
X575197D01*
Y653890D01*
X575350D01*
Y653738D01*
X575502D01*
Y653585D01*
X575350D01*
Y653433D01*
X575502D01*
Y653281D01*
X575654D01*
Y653128D01*
X575807D01*
Y652976D01*
X575959D01*
Y652823D01*
X576417D01*
Y652671D01*
X576569D01*
Y652518D01*
X577026D01*
Y652366D01*
X577179D01*
Y652214D01*
X577331D01*
Y652366D01*
X577483D01*
Y652214D01*
X577636D01*
Y652366D01*
X577788D01*
Y652214D01*
X577941D01*
Y652366D01*
X578093D01*
Y652214D01*
X578246D01*
Y652366D01*
X578398D01*
Y652214D01*
X578550D01*
Y652366D01*
X579008D01*
Y652518D01*
X579465D01*
Y652671D01*
X579618D01*
Y652823D01*
X579770D01*
Y652976D01*
X579922D01*
Y653128D01*
X580075D01*
Y653281D01*
Y653433D01*
Y653585D01*
X580227D01*
Y653738D01*
X580075D01*
Y653890D01*
X580227D01*
Y654043D01*
Y654195D01*
Y654348D01*
X580075D01*
Y654500D01*
X579922D01*
Y654652D01*
X580075D01*
Y654805D01*
X579922D01*
Y654957D01*
X579770D01*
Y655110D01*
X579313D01*
Y655262D01*
X579160D01*
Y655415D01*
X579008D01*
Y655567D01*
X578855D01*
Y655415D01*
X578703D01*
Y655567D01*
X578550D01*
Y655719D01*
X578093D01*
Y655872D01*
X577941D01*
Y655719D01*
X577788D01*
Y655872D01*
X577636D01*
Y656024D01*
X577179D01*
Y656177D01*
X576721D01*
Y656329D01*
X576264D01*
Y656481D01*
X576112D01*
Y656634D01*
X575654D01*
Y656786D01*
X575502D01*
Y656939D01*
X575197D01*
Y657091D01*
Y657244D01*
X574892D01*
Y657396D01*
Y657549D01*
X574740D01*
Y657701D01*
X574587D01*
Y657853D01*
X574435D01*
Y658006D01*
Y658158D01*
Y658311D01*
X574282D01*
Y658463D01*
Y658615D01*
Y658768D01*
X574130D01*
Y658920D01*
X574282D01*
Y659073D01*
X574130D01*
Y659225D01*
X574282D01*
Y659378D01*
X574130D01*
Y659530D01*
X574282D01*
Y659682D01*
X574130D01*
Y659835D01*
X574282D01*
Y659987D01*
Y660140D01*
Y660292D01*
X574435D01*
Y660445D01*
Y660597D01*
Y660750D01*
X574587D01*
Y660902D01*
X574740D01*
Y661054D01*
X574892D01*
Y661207D01*
Y661359D01*
X575197D01*
Y661512D01*
Y661664D01*
X575502D01*
Y661816D01*
X575654D01*
Y661969D01*
X576112D01*
Y662121D01*
X576264D01*
Y662274D01*
X577026D01*
Y662426D01*
X577179D01*
Y662274D01*
X577331D01*
Y662426D01*
X577483D01*
Y662579D01*
X577636D01*
Y662426D01*
X578093D01*
Y662579D01*
X578246D01*
Y662426D01*
D02*
G37*
G36*
X607816Y662731D02*
X607969D01*
Y662579D01*
X608274D01*
Y662426D01*
Y662274D01*
X608426D01*
Y662121D01*
Y661969D01*
Y661816D01*
Y661664D01*
Y661512D01*
Y661359D01*
Y661207D01*
Y661054D01*
Y660902D01*
Y660750D01*
Y660597D01*
Y660445D01*
Y660292D01*
Y660140D01*
Y659987D01*
Y659835D01*
Y659682D01*
Y659530D01*
Y659378D01*
Y659225D01*
Y659073D01*
Y658920D01*
Y658768D01*
Y658615D01*
Y658463D01*
Y658311D01*
Y658158D01*
Y658006D01*
Y657853D01*
Y657701D01*
Y657549D01*
Y657396D01*
Y657244D01*
Y657091D01*
Y656939D01*
Y656786D01*
Y656634D01*
Y656481D01*
Y656329D01*
Y656177D01*
Y656024D01*
Y655872D01*
Y655719D01*
Y655567D01*
Y655415D01*
Y655262D01*
Y655110D01*
Y654957D01*
Y654805D01*
Y654652D01*
Y654500D01*
Y654348D01*
Y654195D01*
Y654043D01*
Y653890D01*
Y653738D01*
Y653585D01*
Y653433D01*
Y653281D01*
Y653128D01*
Y652976D01*
Y652823D01*
Y652671D01*
Y652518D01*
Y652366D01*
X608578D01*
Y652214D01*
X608731D01*
Y652366D01*
X608883D01*
Y652214D01*
X609341D01*
Y652061D01*
X609493D01*
Y651909D01*
Y651756D01*
Y651604D01*
X609646D01*
Y651451D01*
X609493D01*
Y651299D01*
X609646D01*
Y651147D01*
X609493D01*
Y650994D01*
X609341D01*
Y650842D01*
X609188D01*
Y650689D01*
X609036D01*
Y650537D01*
X608883D01*
Y650689D01*
X608731D01*
Y650537D01*
X608578D01*
Y650689D01*
X608426D01*
Y650537D01*
X608274D01*
Y650689D01*
X607816D01*
Y650842D01*
X607359D01*
Y650994D01*
X607207D01*
Y651147D01*
X607054D01*
Y651299D01*
X606902D01*
Y651451D01*
X606749D01*
Y651604D01*
X606902D01*
Y651756D01*
X606749D01*
Y651909D01*
Y652061D01*
Y652214D01*
X606597D01*
Y652366D01*
Y652518D01*
Y652671D01*
Y652823D01*
Y652976D01*
Y653128D01*
Y653281D01*
Y653433D01*
Y653585D01*
Y653738D01*
Y653890D01*
Y654043D01*
Y654195D01*
Y654348D01*
Y654500D01*
Y654652D01*
Y654805D01*
Y654957D01*
Y655110D01*
Y655262D01*
Y655415D01*
Y655567D01*
Y655719D01*
Y655872D01*
Y656024D01*
Y656177D01*
Y656329D01*
Y656481D01*
Y656634D01*
Y656786D01*
Y656939D01*
Y657091D01*
Y657244D01*
Y657396D01*
Y657549D01*
Y657701D01*
Y657853D01*
Y658006D01*
Y658158D01*
Y658311D01*
Y658463D01*
Y658615D01*
Y658768D01*
Y658920D01*
Y659073D01*
Y659225D01*
Y659378D01*
Y659530D01*
Y659682D01*
Y659835D01*
Y659987D01*
Y660140D01*
Y660292D01*
Y660445D01*
Y660597D01*
Y660750D01*
Y660902D01*
Y661054D01*
Y661207D01*
Y661359D01*
Y661512D01*
Y661664D01*
Y661816D01*
Y661969D01*
Y662121D01*
X606749D01*
Y662274D01*
Y662426D01*
Y662579D01*
X607054D01*
Y662731D01*
X607359D01*
Y662883D01*
X607511D01*
Y662731D01*
X607664D01*
Y662883D01*
X607816D01*
Y662731D01*
D02*
G37*
G36*
X568490Y661512D02*
X568948D01*
Y661359D01*
X569100D01*
Y661207D01*
Y661054D01*
Y660902D01*
X569253D01*
Y660750D01*
Y660597D01*
Y660445D01*
Y660292D01*
Y660140D01*
X569100D01*
Y659987D01*
X568948D01*
Y659835D01*
X568795D01*
Y659682D01*
X568643D01*
Y659530D01*
X568490D01*
Y659682D01*
X568338D01*
Y659530D01*
X568186D01*
Y659682D01*
X568033D01*
Y659530D01*
X567881D01*
Y659682D01*
X567423D01*
Y659835D01*
Y659987D01*
X567271D01*
Y660140D01*
Y660292D01*
X567118D01*
Y660445D01*
X567271D01*
Y660597D01*
X567118D01*
Y660750D01*
X567271D01*
Y660902D01*
Y661054D01*
Y661207D01*
X567423D01*
Y661359D01*
X567576D01*
Y661512D01*
X568033D01*
Y661664D01*
X568186D01*
Y661512D01*
X568338D01*
Y661664D01*
X568490D01*
Y661512D01*
D02*
G37*
G36*
X563918Y662121D02*
X564070D01*
Y661969D01*
X564527D01*
Y661816D01*
X564680D01*
Y661969D01*
X564832D01*
Y661816D01*
X564985D01*
Y661664D01*
X565137D01*
Y661512D01*
X565289D01*
Y661359D01*
X565594D01*
Y661207D01*
Y661054D01*
X565747D01*
Y660902D01*
X565899D01*
Y660750D01*
X566051D01*
Y660597D01*
X566204D01*
Y660445D01*
X566051D01*
Y660292D01*
X566204D01*
Y660140D01*
X566356D01*
Y659987D01*
X566204D01*
Y659835D01*
X566356D01*
Y659682D01*
Y659530D01*
Y659378D01*
X566509D01*
Y659225D01*
Y659073D01*
Y658920D01*
Y658768D01*
Y658615D01*
Y658463D01*
Y658311D01*
X566356D01*
Y658158D01*
X566509D01*
Y658006D01*
X566356D01*
Y657853D01*
Y657701D01*
Y657549D01*
X566204D01*
Y657396D01*
X566356D01*
Y657244D01*
X566204D01*
Y657091D01*
Y656939D01*
X566051D01*
Y656786D01*
Y656634D01*
X565899D01*
Y656481D01*
X565747D01*
Y656329D01*
X565594D01*
Y656177D01*
X565442D01*
Y656024D01*
X565289D01*
Y655872D01*
X565137D01*
Y655719D01*
X564985D01*
Y655567D01*
X564527D01*
Y655415D01*
X564070D01*
Y655262D01*
X563613D01*
Y655110D01*
X563460D01*
Y655262D01*
X563308D01*
Y655110D01*
X563155D01*
Y655262D01*
X563003D01*
Y655110D01*
X562851D01*
Y655262D01*
X562698D01*
Y655110D01*
X562546D01*
Y655262D01*
X562393D01*
Y655110D01*
X562241D01*
Y655262D01*
X562088D01*
Y655110D01*
X561936D01*
Y655262D01*
X561784D01*
Y655110D01*
X561631D01*
Y655262D01*
X561479D01*
Y655110D01*
X561326D01*
Y655262D01*
X561174D01*
Y655110D01*
X561021D01*
Y655262D01*
X560869D01*
Y655110D01*
X560717D01*
Y654957D01*
X560869D01*
Y654805D01*
X560717D01*
Y654652D01*
X560869D01*
Y654500D01*
X560717D01*
Y654348D01*
X560869D01*
Y654195D01*
X560717D01*
Y654043D01*
X560869D01*
Y653890D01*
X560717D01*
Y653738D01*
X560869D01*
Y653585D01*
X560717D01*
Y653433D01*
X560869D01*
Y653281D01*
X560717D01*
Y653128D01*
X560869D01*
Y652976D01*
X560717D01*
Y652823D01*
X560869D01*
Y652671D01*
X560717D01*
Y652518D01*
X560869D01*
Y652366D01*
X560717D01*
Y652214D01*
X560869D01*
Y652061D01*
X560717D01*
Y651909D01*
X560869D01*
Y651756D01*
X560717D01*
Y651604D01*
X560869D01*
Y651451D01*
X560717D01*
Y651299D01*
X560869D01*
Y651147D01*
X560717D01*
Y650994D01*
X560564D01*
Y650842D01*
X560412D01*
Y650689D01*
X560259D01*
Y650537D01*
X560107D01*
Y650689D01*
X559954D01*
Y650537D01*
X559802D01*
Y650689D01*
X559650D01*
Y650537D01*
X559497D01*
Y650689D01*
X559345D01*
Y650842D01*
X559192D01*
Y650994D01*
X559040D01*
Y651147D01*
X558887D01*
Y651299D01*
X559040D01*
Y651451D01*
X558887D01*
Y651604D01*
X559040D01*
Y651756D01*
X558887D01*
Y651909D01*
X559040D01*
Y652061D01*
X558887D01*
Y652214D01*
X559040D01*
Y652366D01*
X558887D01*
Y652518D01*
X559040D01*
Y652671D01*
X558887D01*
Y652823D01*
X559040D01*
Y652976D01*
X558887D01*
Y653128D01*
X559040D01*
Y653281D01*
X558887D01*
Y653433D01*
X559040D01*
Y653585D01*
X558887D01*
Y653738D01*
X559040D01*
Y653890D01*
X558887D01*
Y654043D01*
X559040D01*
Y654195D01*
X558887D01*
Y654348D01*
X559040D01*
Y654500D01*
X558887D01*
Y654652D01*
X559040D01*
Y654805D01*
X558887D01*
Y654957D01*
X559040D01*
Y655110D01*
X558887D01*
Y655262D01*
X559040D01*
Y655415D01*
X558887D01*
Y655567D01*
X559040D01*
Y655719D01*
X558887D01*
Y655872D01*
X559040D01*
Y656024D01*
X558887D01*
Y656177D01*
X559040D01*
Y656329D01*
X558887D01*
Y656481D01*
X559040D01*
Y656634D01*
X558887D01*
Y656786D01*
X559040D01*
Y656939D01*
X558887D01*
Y657091D01*
X559040D01*
Y657244D01*
X558887D01*
Y657396D01*
X559040D01*
Y657549D01*
X558887D01*
Y657701D01*
X559040D01*
Y657853D01*
X558887D01*
Y658006D01*
X559040D01*
Y658158D01*
X558887D01*
Y658311D01*
X559040D01*
Y658463D01*
X558887D01*
Y658615D01*
X559040D01*
Y658768D01*
X558887D01*
Y658920D01*
X559040D01*
Y659073D01*
X558887D01*
Y659225D01*
X559040D01*
Y659378D01*
X558887D01*
Y659530D01*
X559040D01*
Y659682D01*
X558887D01*
Y659835D01*
X559040D01*
Y659987D01*
X558887D01*
Y660140D01*
X559040D01*
Y660292D01*
X558887D01*
Y660445D01*
X559040D01*
Y660597D01*
X558887D01*
Y660750D01*
X559040D01*
Y660902D01*
X558887D01*
Y661054D01*
X559040D01*
Y661207D01*
X558887D01*
Y661359D01*
X559040D01*
Y661512D01*
X558887D01*
Y661664D01*
X559040D01*
Y661816D01*
X559192D01*
Y661969D01*
X559345D01*
Y662121D01*
X559497D01*
Y662274D01*
X559650D01*
Y662121D01*
X559802D01*
Y662274D01*
X559954D01*
Y662121D01*
X560107D01*
Y662274D01*
X560259D01*
Y662121D01*
X560412D01*
Y662274D01*
X560564D01*
Y662121D01*
X560717D01*
Y662274D01*
X560869D01*
Y662121D01*
X561021D01*
Y662274D01*
X561174D01*
Y662121D01*
X561326D01*
Y662274D01*
X561479D01*
Y662121D01*
X561631D01*
Y662274D01*
X561784D01*
Y662121D01*
X561936D01*
Y662274D01*
X562088D01*
Y662121D01*
X562241D01*
Y662274D01*
X562393D01*
Y662121D01*
X562546D01*
Y662274D01*
X562698D01*
Y662121D01*
X562851D01*
Y662274D01*
X563003D01*
Y662121D01*
X563155D01*
Y662274D01*
X563308D01*
Y662121D01*
X563460D01*
Y662274D01*
X563613D01*
Y662121D01*
X563765D01*
Y662274D01*
X563918D01*
Y662121D01*
D02*
G37*
%LPC*%
G36*
X530384Y645659D02*
X530231D01*
Y645507D01*
Y645354D01*
Y645202D01*
X530384D01*
Y645050D01*
X530231D01*
Y644897D01*
X530384D01*
Y644745D01*
X530231D01*
Y644592D01*
X530384D01*
Y644440D01*
Y644287D01*
Y644135D01*
X530536D01*
Y643982D01*
X530689D01*
Y643830D01*
X530536D01*
Y643678D01*
X530689D01*
Y643525D01*
X530841D01*
Y643373D01*
X530993D01*
Y643220D01*
Y643068D01*
X531298D01*
Y642916D01*
X531146D01*
Y642763D01*
X531298D01*
Y642611D01*
X531451D01*
Y642458D01*
X531603D01*
Y642306D01*
X531756D01*
Y642153D01*
X531908D01*
Y642306D01*
Y642458D01*
Y642611D01*
X531756D01*
Y642763D01*
X531908D01*
Y642916D01*
X531756D01*
Y643068D01*
X531908D01*
Y643220D01*
X531756D01*
Y643373D01*
Y643525D01*
Y643678D01*
Y643830D01*
Y643982D01*
Y644135D01*
Y644287D01*
X531908D01*
Y644440D01*
X531756D01*
Y644592D01*
Y644745D01*
Y644897D01*
X531451D01*
Y645050D01*
X531146D01*
Y645202D01*
X530993D01*
Y645354D01*
X530536D01*
Y645507D01*
X530384D01*
Y645659D01*
D02*
G37*
G36*
X538920Y645964D02*
X538767D01*
Y645812D01*
X538615D01*
Y645659D01*
X538158D01*
Y645507D01*
Y645354D01*
X537853D01*
Y645202D01*
X537700D01*
Y645050D01*
X537243D01*
Y644897D01*
X537090D01*
Y644745D01*
X536633D01*
Y644592D01*
X536481D01*
Y644440D01*
X536328D01*
Y644592D01*
X536176D01*
Y644440D01*
X535719D01*
Y644287D01*
X535566D01*
Y644440D01*
X535414D01*
Y644287D01*
X534957D01*
Y644135D01*
X534804D01*
Y644287D01*
X534652D01*
Y644135D01*
X534499D01*
Y644287D01*
X534347D01*
Y644135D01*
X534194D01*
Y644287D01*
X534042D01*
Y644135D01*
X533890D01*
Y644287D01*
X533737D01*
Y644440D01*
X533585D01*
Y644287D01*
X533737D01*
Y644135D01*
X533585D01*
Y643982D01*
Y643830D01*
Y643678D01*
X533737D01*
Y643525D01*
X533585D01*
Y643373D01*
X533737D01*
Y643220D01*
X533585D01*
Y643068D01*
X533737D01*
Y642916D01*
Y642763D01*
Y642611D01*
X533890D01*
Y642458D01*
Y642306D01*
Y642153D01*
X534042D01*
Y642001D01*
X534194D01*
Y641849D01*
X534347D01*
Y641696D01*
X534194D01*
Y641544D01*
X534347D01*
Y641391D01*
X534499D01*
Y641239D01*
X534652D01*
Y641086D01*
X534804D01*
Y640934D01*
X534957D01*
Y640782D01*
X535109D01*
Y640629D01*
X535261D01*
Y640477D01*
X535414D01*
Y640324D01*
X535566D01*
Y640172D01*
X535719D01*
Y640019D01*
X536176D01*
Y639867D01*
X536328D01*
Y639715D01*
X537090D01*
Y639562D01*
X537548D01*
Y639410D01*
X537700D01*
Y639562D01*
X537853D01*
Y639410D01*
X538005D01*
Y639562D01*
X538158D01*
Y639410D01*
X538310D01*
Y639562D01*
X538462D01*
Y639410D01*
X538615D01*
Y639562D01*
X538767D01*
Y639715D01*
X538920D01*
Y639562D01*
X539072D01*
Y639715D01*
X539529D01*
Y639867D01*
X539682D01*
Y640019D01*
X539834D01*
Y639867D01*
X539987D01*
Y640019D01*
X540139D01*
Y640172D01*
X540291D01*
Y640019D01*
X540444D01*
Y640172D01*
Y640324D01*
X540749D01*
Y640477D01*
X540901D01*
Y640629D01*
X541054D01*
Y640782D01*
X541206D01*
Y640934D01*
X541358D01*
Y641086D01*
X541511D01*
Y641239D01*
X541663D01*
Y641391D01*
Y641544D01*
X541816D01*
Y641696D01*
X541663D01*
Y641849D01*
Y642001D01*
X541511D01*
Y642153D01*
X541663D01*
Y642306D01*
X541511D01*
Y642458D01*
X541663D01*
Y642611D01*
X541511D01*
Y642763D01*
X541358D01*
Y642916D01*
X541511D01*
Y643068D01*
X541358D01*
Y643220D01*
Y643373D01*
Y643525D01*
Y643678D01*
Y643830D01*
Y643982D01*
Y644135D01*
Y644287D01*
Y644440D01*
Y644592D01*
Y644745D01*
X541206D01*
Y644897D01*
X541054D01*
Y645050D01*
X540901D01*
Y644897D01*
X541054D01*
Y644745D01*
X540901D01*
Y644897D01*
X540749D01*
Y645050D01*
X540291D01*
Y645202D01*
X540139D01*
Y645354D01*
X539987D01*
Y645202D01*
X539834D01*
Y645354D01*
X539682D01*
Y645507D01*
X539529D01*
Y645659D01*
X539072D01*
Y645812D01*
X538920D01*
Y645964D01*
D02*
G37*
G36*
X553857Y642306D02*
X553705D01*
Y642153D01*
X553857D01*
Y642306D01*
D02*
G37*
G36*
X542883Y639867D02*
X542730D01*
Y639715D01*
Y639562D01*
X542425D01*
Y639410D01*
Y639257D01*
X542121D01*
Y639105D01*
X541968D01*
Y638952D01*
X541816D01*
Y638800D01*
X541663D01*
Y638648D01*
X541206D01*
Y638495D01*
X541054D01*
Y638343D01*
X540901D01*
Y638190D01*
X540444D01*
Y638038D01*
X539987D01*
Y637886D01*
X539834D01*
Y637733D01*
X539682D01*
Y637886D01*
X539529D01*
Y637733D01*
X538462D01*
Y637581D01*
Y637428D01*
Y637276D01*
Y637123D01*
Y636971D01*
X538310D01*
Y636819D01*
X538462D01*
Y636666D01*
Y636514D01*
Y636361D01*
X538615D01*
Y636209D01*
X538462D01*
Y636056D01*
X538615D01*
Y635904D01*
X538462D01*
Y635751D01*
X538615D01*
Y635599D01*
X538767D01*
Y635447D01*
Y635294D01*
Y635142D01*
X538920D01*
Y634989D01*
Y634837D01*
X539072D01*
Y634684D01*
Y634532D01*
X539224D01*
Y634380D01*
X539377D01*
Y634227D01*
X539529D01*
Y634075D01*
X539682D01*
Y633922D01*
X539834D01*
Y633770D01*
X539987D01*
Y633618D01*
X540139D01*
Y633465D01*
X540291D01*
Y633313D01*
X540749D01*
Y633160D01*
X540901D01*
Y633008D01*
X541054D01*
Y632855D01*
X541206D01*
Y633008D01*
X541358D01*
Y632855D01*
X541511D01*
Y632703D01*
X542273D01*
Y632551D01*
X542425D01*
Y632703D01*
X542578D01*
Y632551D01*
X542730D01*
Y632703D01*
X542883D01*
Y632551D01*
X543035D01*
Y632703D01*
X543187D01*
Y632551D01*
X543340D01*
Y632703D01*
X544102D01*
Y632855D01*
X544559D01*
Y633008D01*
X544712D01*
Y633160D01*
X544864D01*
Y633008D01*
X545017D01*
Y633160D01*
X545169D01*
Y633313D01*
X545322D01*
Y633465D01*
X545474D01*
Y633618D01*
X545779D01*
Y633770D01*
Y633922D01*
X546084D01*
Y634075D01*
Y634227D01*
X546236D01*
Y634380D01*
X546389D01*
Y634532D01*
X546541D01*
Y634684D01*
X546693D01*
Y634837D01*
X546846D01*
Y634989D01*
X546693D01*
Y635142D01*
X546846D01*
Y635294D01*
X546998D01*
Y635447D01*
Y635599D01*
Y635751D01*
X547151D01*
Y635904D01*
Y636056D01*
Y636209D01*
Y636361D01*
Y636514D01*
X547303D01*
Y636666D01*
Y636819D01*
Y636971D01*
Y637123D01*
Y637276D01*
Y637428D01*
Y637581D01*
X547151D01*
Y637733D01*
X546998D01*
Y637581D01*
X546846D01*
Y637733D01*
X546084D01*
Y637886D01*
X545626D01*
Y638038D01*
X545169D01*
Y638190D01*
X545017D01*
Y638343D01*
X544559D01*
Y638495D01*
X544407D01*
Y638648D01*
X543950D01*
Y638800D01*
X543797D01*
Y638952D01*
X543645D01*
Y639105D01*
X543492D01*
Y639257D01*
X543340D01*
Y639410D01*
X543187D01*
Y639562D01*
X543035D01*
Y639715D01*
X542883D01*
Y639867D01*
D02*
G37*
G36*
X533280Y639715D02*
X533127D01*
Y639562D01*
X533280D01*
Y639410D01*
Y639257D01*
Y639105D01*
X533432D01*
Y638952D01*
X533280D01*
Y638800D01*
X533432D01*
Y638648D01*
X533280D01*
Y638495D01*
X533432D01*
Y638343D01*
X533585D01*
Y638190D01*
Y638038D01*
Y637886D01*
X533737D01*
Y637733D01*
Y637581D01*
X533890D01*
Y637428D01*
Y637276D01*
X534042D01*
Y637123D01*
X534194D01*
Y636971D01*
X534347D01*
Y636819D01*
X534499D01*
Y636666D01*
X534652D01*
Y636514D01*
X534804D01*
Y636361D01*
X534957D01*
Y636209D01*
X535109D01*
Y636056D01*
X535261D01*
Y635904D01*
X535414D01*
Y635751D01*
X535871D01*
Y635599D01*
X536023D01*
Y635447D01*
X536176D01*
Y635599D01*
X536328D01*
Y635447D01*
X536786D01*
Y635599D01*
X536633D01*
Y635751D01*
X536786D01*
Y635904D01*
X536633D01*
Y636056D01*
Y636209D01*
Y636361D01*
X536481D01*
Y636514D01*
X536633D01*
Y636666D01*
X536481D01*
Y636819D01*
Y636971D01*
Y637123D01*
X536633D01*
Y637276D01*
X536481D01*
Y637428D01*
X536633D01*
Y637581D01*
X536481D01*
Y637733D01*
X536328D01*
Y637886D01*
X536176D01*
Y638038D01*
X535414D01*
Y638190D01*
X535261D01*
Y638343D01*
X535109D01*
Y638495D01*
X534652D01*
Y638648D01*
X534499D01*
Y638800D01*
X534347D01*
Y638952D01*
X533890D01*
Y639105D01*
X534042D01*
Y639257D01*
X533585D01*
Y639410D01*
Y639562D01*
X533280D01*
Y639715D01*
D02*
G37*
G36*
X533432Y639867D02*
X533280D01*
Y639715D01*
X533432D01*
Y639867D01*
D02*
G37*
G36*
X552486Y639715D02*
X552333D01*
Y639562D01*
X552181D01*
Y639410D01*
X552028D01*
Y639257D01*
X551876D01*
Y639105D01*
X551723D01*
Y638952D01*
X551266D01*
Y638800D01*
X551419D01*
Y638648D01*
X551266D01*
Y638800D01*
X551114D01*
Y638648D01*
X550961D01*
Y638495D01*
X550809D01*
Y638343D01*
X550352D01*
Y638190D01*
X550199D01*
Y638038D01*
X549742D01*
Y637886D01*
X549285D01*
Y637733D01*
X549132D01*
Y637581D01*
X549285D01*
Y637428D01*
X549132D01*
Y637276D01*
X549285D01*
Y637123D01*
X549132D01*
Y636971D01*
X549285D01*
Y636819D01*
X549132D01*
Y636666D01*
X549285D01*
Y636514D01*
X549132D01*
Y636361D01*
Y636209D01*
Y636056D01*
X548980D01*
Y635904D01*
X549132D01*
Y635751D01*
X548980D01*
Y635599D01*
Y635447D01*
Y635294D01*
X549132D01*
Y635447D01*
X549590D01*
Y635599D01*
X549742D01*
Y635751D01*
X550199D01*
Y635904D01*
X550352D01*
Y636056D01*
X550504D01*
Y636209D01*
X550656D01*
Y636361D01*
X550961D01*
Y636514D01*
Y636666D01*
X551266D01*
Y636819D01*
Y636971D01*
X551571D01*
Y637123D01*
Y637276D01*
X551723D01*
Y637428D01*
X551876D01*
Y637581D01*
X552028D01*
Y637733D01*
X551876D01*
Y637886D01*
X552028D01*
Y638038D01*
X552181D01*
Y638190D01*
Y638343D01*
Y638495D01*
X552333D01*
Y638648D01*
Y638800D01*
Y638952D01*
Y639105D01*
Y639257D01*
X552486D01*
Y639410D01*
Y639562D01*
Y639715D01*
D02*
G37*
G36*
X595013Y657244D02*
X594860D01*
Y657091D01*
X594708D01*
Y657244D01*
X593946D01*
Y657091D01*
X593793D01*
Y657244D01*
X593641D01*
Y657091D01*
X593488D01*
Y656939D01*
X593031D01*
Y656786D01*
X592879D01*
Y656634D01*
X592726D01*
Y656481D01*
X592879D01*
Y656329D01*
X592726D01*
Y656177D01*
X592574D01*
Y656024D01*
Y655872D01*
Y655719D01*
X592421D01*
Y655567D01*
X592574D01*
Y655415D01*
X592421D01*
Y655262D01*
Y655110D01*
Y654957D01*
X592574D01*
Y654805D01*
X592421D01*
Y654652D01*
Y654500D01*
Y654348D01*
X592574D01*
Y654195D01*
X592421D01*
Y654043D01*
X592574D01*
Y653890D01*
X592421D01*
Y653738D01*
X592574D01*
Y653585D01*
Y653433D01*
Y653281D01*
X592726D01*
Y653128D01*
X592879D01*
Y652976D01*
X592726D01*
Y652823D01*
X593031D01*
Y652671D01*
Y652518D01*
X593488D01*
Y652366D01*
X593641D01*
Y652214D01*
X593793D01*
Y652366D01*
X593946D01*
Y652214D01*
X594708D01*
Y652366D01*
X595165D01*
Y652518D01*
X595317D01*
Y652671D01*
X595470D01*
Y652823D01*
X595622D01*
Y652976D01*
X595775D01*
Y653128D01*
X595927D01*
Y653281D01*
X595775D01*
Y653433D01*
X595927D01*
Y653585D01*
X596080D01*
Y653738D01*
X595927D01*
Y653890D01*
X596080D01*
Y654043D01*
Y654195D01*
Y654348D01*
X596232D01*
Y654500D01*
X596080D01*
Y654652D01*
X596232D01*
Y654805D01*
X596080D01*
Y654957D01*
X596232D01*
Y655110D01*
X596080D01*
Y655262D01*
Y655415D01*
Y655567D01*
X595927D01*
Y655719D01*
Y655872D01*
Y656024D01*
X595775D01*
Y656177D01*
X595927D01*
Y656329D01*
X595775D01*
Y656481D01*
X595622D01*
Y656634D01*
X595470D01*
Y656786D01*
X595317D01*
Y656939D01*
X595165D01*
Y657091D01*
X595013D01*
Y657244D01*
D02*
G37*
G36*
X602939D02*
X601872D01*
Y657091D01*
X601719D01*
Y657244D01*
X601567D01*
Y657091D01*
X601414D01*
Y656939D01*
X601262D01*
Y656786D01*
X601110D01*
Y656634D01*
X600957D01*
Y656481D01*
X600805D01*
Y656329D01*
Y656177D01*
Y656024D01*
X600652D01*
Y655872D01*
Y655719D01*
Y655567D01*
X600500D01*
Y655415D01*
Y655262D01*
Y655110D01*
Y654957D01*
Y654805D01*
Y654652D01*
Y654500D01*
Y654348D01*
Y654195D01*
Y654043D01*
Y653890D01*
X600652D01*
Y653738D01*
Y653585D01*
Y653433D01*
X600805D01*
Y653281D01*
Y653128D01*
Y652976D01*
X600957D01*
Y652823D01*
X601110D01*
Y652671D01*
X601262D01*
Y652518D01*
X601414D01*
Y652366D01*
X601872D01*
Y652214D01*
X602939D01*
Y652366D01*
X603091D01*
Y652518D01*
X603548D01*
Y652671D01*
Y652823D01*
X603853D01*
Y652976D01*
X603701D01*
Y653128D01*
X603853D01*
Y653281D01*
X604006D01*
Y653433D01*
Y653585D01*
Y653738D01*
X604158D01*
Y653890D01*
X604006D01*
Y654043D01*
X604158D01*
Y654195D01*
X604006D01*
Y654348D01*
X604158D01*
Y654500D01*
X604006D01*
Y654652D01*
X604158D01*
Y654805D01*
X604006D01*
Y654957D01*
X604158D01*
Y655110D01*
Y655262D01*
Y655415D01*
X604006D01*
Y655567D01*
X604158D01*
Y655719D01*
X604006D01*
Y655872D01*
Y656024D01*
Y656177D01*
X603853D01*
Y656329D01*
X603701D01*
Y656481D01*
X603853D01*
Y656634D01*
X603548D01*
Y656786D01*
Y656939D01*
X603091D01*
Y657091D01*
X602939D01*
Y657244D01*
D02*
G37*
G36*
X563460Y660445D02*
X563308D01*
Y660292D01*
X563155D01*
Y660445D01*
X562698D01*
Y660292D01*
X562546D01*
Y660445D01*
X562088D01*
Y660292D01*
X561936D01*
Y660445D01*
X561479D01*
Y660292D01*
X561326D01*
Y660445D01*
X560869D01*
Y660292D01*
X560717D01*
Y660140D01*
X560869D01*
Y659987D01*
X560717D01*
Y659835D01*
X560869D01*
Y659682D01*
X560717D01*
Y659530D01*
X560869D01*
Y659378D01*
X560717D01*
Y659225D01*
X560869D01*
Y659073D01*
X560717D01*
Y658920D01*
X560869D01*
Y658768D01*
X560717D01*
Y658615D01*
X560869D01*
Y658463D01*
X560717D01*
Y658311D01*
X560869D01*
Y658158D01*
X560717D01*
Y658006D01*
X560869D01*
Y657853D01*
X560717D01*
Y657701D01*
X560869D01*
Y657549D01*
X560717D01*
Y657396D01*
X560869D01*
Y657244D01*
X560717D01*
Y657091D01*
X560869D01*
Y656939D01*
X561021D01*
Y657091D01*
X561174D01*
Y656939D01*
X561326D01*
Y657091D01*
X561479D01*
Y656939D01*
X561631D01*
Y657091D01*
X561784D01*
Y656939D01*
X561936D01*
Y657091D01*
X562088D01*
Y656939D01*
X562241D01*
Y657091D01*
X562393D01*
Y656939D01*
X562546D01*
Y657091D01*
X562698D01*
Y656939D01*
X562851D01*
Y657091D01*
X563003D01*
Y656939D01*
X563155D01*
Y657091D01*
X563918D01*
Y657244D01*
X564070D01*
Y657396D01*
X564222D01*
Y657549D01*
Y657701D01*
X564375D01*
Y657853D01*
Y658006D01*
X564527D01*
Y658158D01*
Y658311D01*
Y658463D01*
Y658615D01*
Y658768D01*
Y658920D01*
Y659073D01*
Y659225D01*
Y659378D01*
X564375D01*
Y659530D01*
Y659682D01*
Y659835D01*
X564222D01*
Y659987D01*
X564070D01*
Y660140D01*
X563918D01*
Y660292D01*
X563460D01*
Y660445D01*
D02*
G37*
G36*
X552181Y654957D02*
X552028D01*
Y654805D01*
X551876D01*
Y654957D01*
X551114D01*
Y654805D01*
X550961D01*
Y654957D01*
X550504D01*
Y654805D01*
X550352D01*
Y654957D01*
X550199D01*
Y654805D01*
X549742D01*
Y654652D01*
X549590D01*
Y654500D01*
X549132D01*
Y654348D01*
X549285D01*
Y654195D01*
Y654043D01*
Y653890D01*
X549437D01*
Y653738D01*
Y653585D01*
Y653433D01*
X549590D01*
Y653281D01*
Y653128D01*
Y652976D01*
Y652823D01*
X549742D01*
Y652671D01*
Y652518D01*
Y652366D01*
Y652214D01*
Y652061D01*
Y651909D01*
X549894D01*
Y651756D01*
X549742D01*
Y651604D01*
X549894D01*
Y651451D01*
X549742D01*
Y651299D01*
X549894D01*
Y651147D01*
X549742D01*
Y650994D01*
Y650842D01*
Y650689D01*
X549590D01*
Y650537D01*
X549742D01*
Y650384D01*
X549590D01*
Y650232D01*
X549742D01*
Y650080D01*
X549590D01*
Y649927D01*
X549437D01*
Y649775D01*
X549590D01*
Y649622D01*
X549437D01*
Y649470D01*
Y649317D01*
Y649165D01*
X549285D01*
Y649013D01*
X549132D01*
Y648860D01*
X549285D01*
Y648708D01*
X549132D01*
Y648555D01*
X548980D01*
Y648403D01*
Y648251D01*
Y648098D01*
X548827D01*
Y647946D01*
X548675D01*
Y647793D01*
X548522D01*
Y647641D01*
Y647488D01*
X548218D01*
Y647336D01*
X548370D01*
Y647184D01*
X548522D01*
Y647031D01*
X548675D01*
Y646879D01*
X548827D01*
Y646726D01*
X549285D01*
Y646574D01*
X549437D01*
Y646421D01*
X549894D01*
Y646269D01*
X550352D01*
Y646116D01*
X550504D01*
Y646269D01*
X550656D01*
Y646116D01*
X552028D01*
Y646269D01*
X552181D01*
Y646116D01*
X552333D01*
Y646269D01*
X552486D01*
Y646421D01*
X552638D01*
Y646269D01*
X552790D01*
Y646421D01*
X553095D01*
Y646574D01*
X553400D01*
Y646726D01*
X553553D01*
Y646879D01*
X553857D01*
Y647031D01*
X554162D01*
Y647184D01*
X554315D01*
Y647336D01*
X554467D01*
Y647488D01*
X554619D01*
Y647641D01*
X554772D01*
Y647793D01*
Y647946D01*
X555077D01*
Y648098D01*
X554924D01*
Y648251D01*
X555077D01*
Y648403D01*
X555229D01*
Y648555D01*
X555382D01*
Y648708D01*
X555229D01*
Y648860D01*
X555382D01*
Y649013D01*
X555534D01*
Y649165D01*
X555686D01*
Y649317D01*
X555534D01*
Y649470D01*
X555686D01*
Y649622D01*
X555534D01*
Y649775D01*
X555686D01*
Y649927D01*
Y650080D01*
Y650232D01*
Y650384D01*
Y650537D01*
X555839D01*
Y650689D01*
X555686D01*
Y650842D01*
Y650994D01*
Y651147D01*
Y651299D01*
Y651451D01*
X555534D01*
Y651604D01*
X555686D01*
Y651756D01*
X555534D01*
Y651909D01*
Y652061D01*
X555382D01*
Y652214D01*
Y652366D01*
X555229D01*
Y652518D01*
Y652671D01*
X555077D01*
Y652823D01*
Y652976D01*
X554924D01*
Y653128D01*
X554772D01*
Y653281D01*
X554619D01*
Y653433D01*
Y653585D01*
X554315D01*
Y653738D01*
Y653890D01*
X554010D01*
Y654043D01*
X553857D01*
Y654195D01*
X553705D01*
Y654348D01*
X553553D01*
Y654500D01*
X553095D01*
Y654652D01*
X552943D01*
Y654805D01*
X552181D01*
Y654957D01*
D02*
G37*
G36*
X547151Y645964D02*
X546693D01*
Y645812D01*
X546541D01*
Y645659D01*
X546389D01*
Y645507D01*
X546236D01*
Y645354D01*
X545779D01*
Y645202D01*
X545626D01*
Y645050D01*
X545474D01*
Y645202D01*
X545322D01*
Y645050D01*
X544864D01*
Y644897D01*
X544712D01*
Y644745D01*
X544559D01*
Y644897D01*
X544407D01*
Y644745D01*
X543645D01*
Y644592D01*
X543492D01*
Y644745D01*
X543340D01*
Y644592D01*
X543187D01*
Y644440D01*
X543340D01*
Y644287D01*
X543187D01*
Y644135D01*
Y643982D01*
Y643830D01*
X543340D01*
Y643678D01*
X543187D01*
Y643525D01*
X543340D01*
Y643373D01*
Y643220D01*
Y643068D01*
X543492D01*
Y642916D01*
X543340D01*
Y642763D01*
X543492D01*
Y642611D01*
X543340D01*
Y642458D01*
X543492D01*
Y642306D01*
X543645D01*
Y642153D01*
X543797D01*
Y642001D01*
X543645D01*
Y641849D01*
X543797D01*
Y641696D01*
X543950D01*
Y641544D01*
X544102D01*
Y641391D01*
X543950D01*
Y641239D01*
X544254D01*
Y641086D01*
Y640934D01*
X544407D01*
Y640782D01*
X544559D01*
Y640629D01*
X544864D01*
Y640477D01*
Y640324D01*
X545322D01*
Y640172D01*
X545474D01*
Y640019D01*
X545931D01*
Y639867D01*
X546084D01*
Y639715D01*
X546541D01*
Y639562D01*
X546693D01*
Y639715D01*
X546846D01*
Y639562D01*
X547303D01*
Y639410D01*
X547455D01*
Y639562D01*
X547608D01*
Y639410D01*
X547760D01*
Y639562D01*
X547913D01*
Y639410D01*
X548065D01*
Y639562D01*
X548218D01*
Y639410D01*
X548370D01*
Y639562D01*
X548522D01*
Y639715D01*
X548980D01*
Y639867D01*
X549132D01*
Y639715D01*
X549285D01*
Y639867D01*
X549437D01*
Y640019D01*
X549894D01*
Y640172D01*
X550047D01*
Y640324D01*
X550199D01*
Y640477D01*
X550352D01*
Y640629D01*
X550809D01*
Y640782D01*
Y640934D01*
X551114D01*
Y641086D01*
X550961D01*
Y641239D01*
X551114D01*
Y641391D01*
X551266D01*
Y641544D01*
X551419D01*
Y641696D01*
X551571D01*
Y641849D01*
Y642001D01*
Y642153D01*
X551723D01*
Y642306D01*
X551876D01*
Y642458D01*
Y642611D01*
Y642763D01*
X552028D01*
Y642916D01*
X551876D01*
Y643068D01*
X552028D01*
Y643220D01*
Y643373D01*
Y643525D01*
Y643678D01*
Y643830D01*
Y643982D01*
Y644135D01*
X551876D01*
Y644287D01*
X551723D01*
Y644135D01*
X551571D01*
Y644287D01*
X551419D01*
Y644135D01*
X551266D01*
Y644287D01*
X551114D01*
Y644135D01*
X550961D01*
Y644287D01*
X550809D01*
Y644135D01*
X550656D01*
Y644287D01*
X550199D01*
Y644440D01*
X550047D01*
Y644287D01*
X549894D01*
Y644440D01*
X549437D01*
Y644592D01*
X549285D01*
Y644440D01*
X549132D01*
Y644592D01*
X548980D01*
Y644745D01*
X548522D01*
Y644897D01*
X548370D01*
Y645050D01*
X547913D01*
Y645202D01*
X547760D01*
Y645354D01*
X547608D01*
Y645507D01*
X547455D01*
Y645659D01*
X547303D01*
Y645812D01*
X547151D01*
Y645964D01*
D02*
G37*
G36*
X555534Y645812D02*
X555382D01*
Y645659D01*
X555229D01*
Y645507D01*
X555077D01*
Y645354D01*
X554619D01*
Y645202D01*
X554772D01*
Y645050D01*
X554619D01*
Y645202D01*
X554467D01*
Y645050D01*
X554315D01*
Y644897D01*
X554162D01*
Y644745D01*
X554010D01*
Y644592D01*
X553857D01*
Y644440D01*
X554010D01*
Y644287D01*
Y644135D01*
Y643982D01*
X553857D01*
Y643830D01*
X554010D01*
Y643678D01*
Y643525D01*
Y643373D01*
X553857D01*
Y643220D01*
Y643068D01*
Y642916D01*
Y642763D01*
Y642611D01*
X553705D01*
Y642458D01*
X553857D01*
Y642306D01*
X554010D01*
Y642458D01*
X554162D01*
Y642611D01*
X554315D01*
Y642763D01*
X554467D01*
Y642916D01*
X554619D01*
Y643068D01*
X554772D01*
Y643220D01*
Y643373D01*
X554924D01*
Y643525D01*
Y643678D01*
X555077D01*
Y643830D01*
Y643982D01*
Y644135D01*
X555229D01*
Y644287D01*
X555382D01*
Y644440D01*
X555229D01*
Y644592D01*
X555382D01*
Y644745D01*
Y644897D01*
Y645050D01*
X555534D01*
Y645202D01*
X555382D01*
Y645354D01*
X555534D01*
Y645507D01*
Y645659D01*
Y645812D01*
D02*
G37*
G36*
X535109Y654957D02*
X534042D01*
Y654805D01*
X533890D01*
Y654957D01*
X533737D01*
Y654805D01*
X533585D01*
Y654957D01*
X533432D01*
Y654805D01*
X532975D01*
Y654652D01*
X532518D01*
Y654500D01*
X532365D01*
Y654348D01*
X532213D01*
Y654195D01*
X532060D01*
Y654348D01*
X531908D01*
Y654195D01*
X531756D01*
Y654043D01*
X531603D01*
Y653890D01*
X531451D01*
Y653738D01*
X531298D01*
Y653585D01*
X531146D01*
Y653433D01*
X530993D01*
Y653281D01*
X530841D01*
Y653128D01*
X530689D01*
Y652976D01*
X530536D01*
Y652823D01*
X530689D01*
Y652671D01*
X530536D01*
Y652518D01*
X530384D01*
Y652366D01*
X530231D01*
Y652214D01*
X530384D01*
Y652061D01*
X530231D01*
Y651909D01*
X530079D01*
Y651756D01*
Y651604D01*
Y651451D01*
Y651299D01*
Y651147D01*
X529926D01*
Y650994D01*
X530079D01*
Y650842D01*
X529926D01*
Y650689D01*
Y650537D01*
Y650384D01*
X530079D01*
Y650232D01*
X529926D01*
Y650080D01*
X530079D01*
Y649927D01*
X529926D01*
Y649775D01*
X530079D01*
Y649622D01*
Y649470D01*
Y649317D01*
X530231D01*
Y649165D01*
Y649013D01*
Y648860D01*
X530384D01*
Y648708D01*
Y648555D01*
X530536D01*
Y648403D01*
Y648251D01*
X530689D01*
Y648098D01*
X530841D01*
Y647946D01*
X530993D01*
Y647793D01*
Y647641D01*
X531146D01*
Y647488D01*
Y647336D01*
X531451D01*
Y647184D01*
X531603D01*
Y647031D01*
X531908D01*
Y646879D01*
X532060D01*
Y646726D01*
X532213D01*
Y646574D01*
X532365D01*
Y646726D01*
X532518D01*
Y646574D01*
X532670D01*
Y646421D01*
X533127D01*
Y646269D01*
X533280D01*
Y646116D01*
X533432D01*
Y646269D01*
X533585D01*
Y646116D01*
X535261D01*
Y646269D01*
X535414D01*
Y646116D01*
X535566D01*
Y646269D01*
X535719D01*
Y646421D01*
X536176D01*
Y646574D01*
X536328D01*
Y646726D01*
X536786D01*
Y646879D01*
X536938D01*
Y647031D01*
X537090D01*
Y647184D01*
X537243D01*
Y647336D01*
X537395D01*
Y647488D01*
X537243D01*
Y647641D01*
X537090D01*
Y647793D01*
X536938D01*
Y647946D01*
Y648098D01*
X536786D01*
Y648251D01*
Y648403D01*
X536633D01*
Y648555D01*
Y648708D01*
X536481D01*
Y648860D01*
Y649013D01*
X536328D01*
Y649165D01*
Y649317D01*
Y649470D01*
X536176D01*
Y649622D01*
X536023D01*
Y649775D01*
X536176D01*
Y649927D01*
X536023D01*
Y650080D01*
X536176D01*
Y650232D01*
X536023D01*
Y650384D01*
X536176D01*
Y650537D01*
X536023D01*
Y650689D01*
Y650842D01*
Y650994D01*
X535871D01*
Y651147D01*
X536023D01*
Y651299D01*
X535871D01*
Y651451D01*
X536023D01*
Y651604D01*
X535871D01*
Y651756D01*
X536023D01*
Y651909D01*
X535871D01*
Y652061D01*
X536023D01*
Y652214D01*
X535871D01*
Y652366D01*
X536023D01*
Y652518D01*
Y652671D01*
Y652823D01*
X536176D01*
Y652976D01*
X536023D01*
Y653128D01*
X536176D01*
Y653281D01*
X536023D01*
Y653433D01*
X536176D01*
Y653585D01*
X536328D01*
Y653738D01*
Y653890D01*
Y654043D01*
X536481D01*
Y654195D01*
Y654348D01*
Y654500D01*
X536023D01*
Y654652D01*
X535871D01*
Y654805D01*
X535109D01*
Y654957D01*
D02*
G37*
%LPD*%
D28*
X576270Y714720D02*
G03*
X576270Y754320I15000J19800D01*
G01*
X566470D02*
G03*
X566470Y714720I-15000J-19800D01*
G01*
X576270Y714720D02*
Y754320D01*
X566470Y714720D02*
Y754321D01*
X650240Y642620D02*
Y650240D01*
Y642620D02*
X701040D01*
Y657860D01*
X650240D02*
X701040D01*
X650240Y650240D02*
Y657860D01*
X701040Y650240D02*
X703326D01*
X647954D02*
X650240D01*
X572940Y794070D02*
X625940D01*
X572940Y766070D02*
X625940D01*
Y794070D01*
X572940Y826801D02*
X625940D01*
X572940Y798800D02*
X625940D01*
Y826801D01*
X595860Y687760D02*
Y695380D01*
Y687760D02*
X646660D01*
Y703000D01*
X595860D02*
X646660D01*
X595860Y695380D02*
Y703000D01*
X646660Y695380D02*
X648946D01*
X593574D02*
X595860D01*
X701040Y629920D02*
Y637540D01*
X650240D02*
X701040D01*
X650240Y622300D02*
Y637540D01*
Y622300D02*
X701040D01*
Y629920D01*
X647954D02*
X650240D01*
X701040D02*
X703326D01*
X651620Y613100D02*
X771620D01*
Y543100D02*
Y613100D01*
X651620Y543100D02*
X771620D01*
X651620D02*
Y613100D01*
X744474Y650240D02*
X746760D01*
X797560D02*
X799846D01*
X746760D02*
Y657860D01*
X797560D01*
Y642620D02*
Y657860D01*
X746760Y642620D02*
X797560D01*
X746760D02*
Y650240D01*
X593574Y675060D02*
X595860D01*
X646660D02*
X648946D01*
X595860D02*
Y682680D01*
X646660D01*
Y667440D02*
Y682680D01*
X595860Y667440D02*
X646660D01*
X595860D02*
Y675060D01*
X744474Y629920D02*
X746760D01*
X797560D02*
X799846D01*
X746760D02*
Y637540D01*
X797560D01*
Y622300D02*
Y637540D01*
X746760Y622300D02*
X797560D01*
X746760D02*
Y629920D01*
X815340Y556260D02*
Y607060D01*
X789940D02*
X815340D01*
X789940Y556260D02*
Y607060D01*
Y556260D02*
X815340D01*
X389750Y647082D02*
Y643083D01*
X391083Y641750D01*
X392416Y643083D01*
X393749Y641750D01*
X395082Y643083D01*
Y647082D01*
X397747D02*
Y643083D01*
X399080Y641750D01*
X400413Y643083D01*
X401746Y641750D01*
X403079Y643083D01*
Y647082D01*
X405745D02*
Y643083D01*
X407078Y641750D01*
X408411Y643083D01*
X409744Y641750D01*
X411076Y643083D01*
Y647082D01*
X413742Y641750D02*
Y643083D01*
X415075D01*
Y641750D01*
X413742D01*
X420407Y639084D02*
Y647082D01*
X424406D01*
X425738Y645749D01*
Y643083D01*
X424406Y641750D01*
X420407D01*
X428404D02*
X431070D01*
X429737D01*
Y647082D01*
X428404D01*
X435069Y645749D02*
X440400D01*
X443066Y641750D02*
X447065D01*
X448398Y643083D01*
X447065Y644416D01*
X444399D01*
X443066Y645749D01*
X444399Y647082D01*
X448398D01*
X451064D02*
Y643083D01*
X452397Y641750D01*
X456395D01*
Y647082D01*
X459061Y639084D02*
Y647082D01*
X463060D01*
X464393Y645749D01*
Y643083D01*
X463060Y641750D01*
X459061D01*
X467058Y639084D02*
Y647082D01*
X471057D01*
X472390Y645749D01*
Y643083D01*
X471057Y641750D01*
X467058D01*
X475056D02*
X477722D01*
X476389D01*
Y649747D01*
X475056D01*
X481720Y647082D02*
Y643083D01*
X483053Y641750D01*
X487052D01*
Y640417D01*
X485719Y639084D01*
X484386D01*
X487052Y641750D02*
Y647082D01*
X489718Y641750D02*
Y643083D01*
X491051D01*
Y641750D01*
X489718D01*
X501714Y647082D02*
X497715D01*
X496382Y645749D01*
Y643083D01*
X497715Y641750D01*
X501714D01*
X505713D02*
X508378D01*
X509711Y643083D01*
Y645749D01*
X508378Y647082D01*
X505713D01*
X504380Y645749D01*
Y643083D01*
X505713Y641750D01*
X512377D02*
Y647082D01*
X513710D01*
X515043Y645749D01*
Y641750D01*
Y645749D01*
X516376Y647082D01*
X517709Y645749D01*
Y641750D01*
X779000Y571165D02*
X780333Y572497D01*
X782999D01*
X784332Y571165D01*
Y569832D01*
X782999Y568499D01*
X784332Y567166D01*
Y565833D01*
X782999Y564500D01*
X780333D01*
X779000Y565833D01*
Y567166D01*
X780333Y568499D01*
X779000Y569832D01*
Y571165D01*
X780333Y568499D02*
X782999D01*
X779750Y598997D02*
X785082D01*
Y597664D01*
X779750Y592333D01*
Y591000D01*
D29*
X672910Y734180D02*
G03*
X672910Y734180I-25000J0D01*
G01*
X547012Y696476D02*
G03*
X547012Y669644I6708J-13416D01*
G01*
X560428D02*
G03*
X560428Y696476I-6708J13416D01*
G01*
X821630Y713750D02*
Y813250D01*
X379460Y679953D02*
Y811203D01*
Y679953D02*
X519459D01*
Y811203D01*
X379460D02*
X519459D01*
X453450Y610130D02*
X457700D01*
X387700D02*
X391450D01*
X408700D02*
X435950D01*
X453200Y540130D02*
X457700D01*
X387700D02*
X391450D01*
X408450D02*
X435950D01*
X457700D02*
Y610130D01*
X387700Y540130D02*
Y610130D01*
X576130Y540130D02*
X580380D01*
X642380D02*
X646130D01*
X597880D02*
X625130D01*
X576130Y610130D02*
X580630D01*
X642380D02*
X646130D01*
X597880D02*
X625379D01*
X576130Y540130D02*
Y610130D01*
X646130Y540130D02*
Y610130D01*
X572430Y540130D02*
Y610130D01*
X502430Y540130D02*
Y610130D01*
X524180D02*
X551680D01*
X568680D02*
X572430D01*
X502430D02*
X506930D01*
X524180Y540130D02*
X551430D01*
X568680D02*
X572430D01*
X502430D02*
X506680D01*
X571749Y640248D02*
X570749Y641248D01*
X568750D01*
X567750Y640248D01*
Y639249D01*
X568750Y638249D01*
X570749D01*
X571749Y637249D01*
Y636250D01*
X570749Y635250D01*
X568750D01*
X567750Y636250D01*
X573748Y639249D02*
Y636250D01*
X574748Y635250D01*
X575747Y636250D01*
X576747Y635250D01*
X577747Y636250D01*
Y639249D01*
X579746Y635250D02*
X581745D01*
X580746D01*
Y639249D01*
X579746D01*
X585744Y640248D02*
Y639249D01*
X584744D01*
X586744D01*
X585744D01*
Y636250D01*
X586744Y635250D01*
X593741Y639249D02*
X590742D01*
X589743Y638249D01*
Y636250D01*
X590742Y635250D01*
X593741D01*
X595741Y641248D02*
Y635250D01*
Y638249D01*
X596741Y639249D01*
X598740D01*
X599740Y638249D01*
Y635250D01*
X607737Y641248D02*
Y637249D01*
X609736Y635250D01*
X611736Y637249D01*
Y641248D01*
X613735Y635250D02*
X615734D01*
X614735D01*
Y641248D01*
X613735Y640248D01*
X618733Y635250D02*
Y636250D01*
X619733D01*
Y635250D01*
X618733D01*
X623732D02*
X625731D01*
X624731D01*
Y641248D01*
X623732Y640248D01*
X638161Y716430D02*
Y719096D01*
X636828Y717763D02*
X639494D01*
D30*
X762000Y695000D02*
Y701998D01*
X765499D01*
X766665Y700832D01*
Y698499D01*
X765499Y697333D01*
X762000D01*
X770164Y695000D02*
X772497D01*
X773663Y696166D01*
Y698499D01*
X772497Y699665D01*
X770164D01*
X768998Y698499D01*
Y696166D01*
X770164Y695000D01*
X775995Y699665D02*
Y696166D01*
X777162Y695000D01*
X778328Y696166D01*
X779494Y695000D01*
X780661Y696166D01*
Y699665D01*
X786492Y695000D02*
X784159D01*
X782993Y696166D01*
Y698499D01*
X784159Y699665D01*
X786492D01*
X787658Y698499D01*
Y697333D01*
X782993D01*
X789991Y699665D02*
Y695000D01*
Y697333D01*
X791157Y698499D01*
X792324Y699665D01*
X793490D01*
X803987Y695000D02*
X806319D01*
X805153D01*
Y699665D01*
X803987D01*
X809818Y695000D02*
Y699665D01*
X813317D01*
X814483Y698499D01*
Y695000D01*
X418499Y621968D02*
X416166D01*
X415000Y620801D01*
Y616136D01*
X416166Y614970D01*
X418499D01*
X419665Y616136D01*
Y620801D01*
X418499Y621968D01*
X426663D02*
X421998D01*
Y618469D01*
X424330D01*
X421998D01*
Y614970D01*
X433661Y621968D02*
X428996D01*
Y618469D01*
X431328D01*
X428996D01*
Y614970D01*
X608499Y621998D02*
X606166D01*
X605000Y620831D01*
Y616166D01*
X606166Y615000D01*
X608499D01*
X609665Y616166D01*
Y620831D01*
X608499Y621998D01*
X611998Y615000D02*
Y621998D01*
X616663Y615000D01*
Y621998D01*
X663262Y736455D02*
X664428Y737621D01*
Y739954D01*
X663262Y741120D01*
X658596D01*
X657430Y739954D01*
Y737621D01*
X658596Y736455D01*
X657430Y734122D02*
Y731790D01*
Y732956D01*
X664428D01*
X663262Y734122D01*
X594080Y782548D02*
Y775550D01*
X597579D01*
X598745Y776716D01*
Y781381D01*
X597579Y782548D01*
X594080D01*
X601078Y775550D02*
X603410D01*
X602244D01*
Y782548D01*
X601078Y781381D01*
X591080Y815558D02*
Y808560D01*
X594579D01*
X595745Y809726D01*
Y814391D01*
X594579Y815558D01*
X591080D01*
X602743Y808560D02*
X598078D01*
X602743Y813225D01*
Y814391D01*
X601577Y815558D01*
X599244D01*
X598078Y814391D01*
X386000Y662000D02*
Y668998D01*
X389499D01*
X390665Y667831D01*
Y665499D01*
X389499Y664333D01*
X386000D01*
X394164Y662000D02*
X396497D01*
X397663Y663166D01*
Y665499D01*
X396497Y666665D01*
X394164D01*
X392998Y665499D01*
Y663166D01*
X394164Y662000D01*
X399995Y666665D02*
Y663166D01*
X401162Y662000D01*
X402328Y663166D01*
X403494Y662000D01*
X404661Y663166D01*
Y666665D01*
X410492Y662000D02*
X408159D01*
X406993Y663166D01*
Y665499D01*
X408159Y666665D01*
X410492D01*
X411658Y665499D01*
Y664333D01*
X406993D01*
X413991Y666665D02*
Y662000D01*
Y664333D01*
X415157Y665499D01*
X416324Y666665D01*
X417490D01*
X429153Y662000D02*
X431485D01*
X432652Y663166D01*
Y665499D01*
X431485Y666665D01*
X429153D01*
X427986Y665499D01*
Y663166D01*
X429153Y662000D01*
X434984Y666665D02*
Y663166D01*
X436151Y662000D01*
X439649D01*
Y666665D01*
X443148Y667831D02*
Y666665D01*
X441982D01*
X444315D01*
X443148D01*
Y663166D01*
X444315Y662000D01*
X609664Y734665D02*
X604999D01*
X603832Y733499D01*
Y731166D01*
X604999Y730000D01*
X609664D01*
X610830Y731166D01*
Y733499D01*
X608497Y732333D02*
X610830Y734665D01*
Y733499D02*
X609664Y734665D01*
X610830Y741663D02*
Y736998D01*
X606165Y741663D01*
X604999D01*
X603832Y740497D01*
Y738164D01*
X604999Y736998D01*
X536584Y735665D02*
X531918D01*
X530752Y734499D01*
Y732166D01*
X531918Y731000D01*
X536584D01*
X537750Y732166D01*
Y734499D01*
X535417Y733333D02*
X537750Y735665D01*
Y734499D02*
X536584Y735665D01*
X537750Y737998D02*
Y740331D01*
Y739164D01*
X530752D01*
X531918Y737998D01*
X670520Y646760D02*
Y653758D01*
X674019D01*
X675185Y652591D01*
Y650259D01*
X674019Y649093D01*
X670520D01*
X672853D02*
X675185Y646760D01*
X677518D02*
X679850D01*
X678684D01*
Y653758D01*
X677518Y652591D01*
X615250Y692250D02*
Y699248D01*
X618749D01*
X619915Y698082D01*
Y695749D01*
X618749Y694583D01*
X615250D01*
X617583D02*
X619915Y692250D01*
X622248Y698082D02*
X623414Y699248D01*
X625747D01*
X626913Y698082D01*
Y696915D01*
X625747Y695749D01*
X624580D01*
X625747D01*
X626913Y694583D01*
Y693417D01*
X625747Y692250D01*
X623414D01*
X622248Y693417D01*
X668600Y627040D02*
Y634038D01*
X672099D01*
X673265Y632872D01*
Y630539D01*
X672099Y629373D01*
X668600D01*
X670933D02*
X673265Y627040D01*
X680263D02*
X675598D01*
X680263Y631705D01*
Y632872D01*
X679097Y634038D01*
X676764D01*
X675598Y632872D01*
X707180Y578420D02*
Y585418D01*
X710679D01*
X711845Y584251D01*
Y581919D01*
X710679Y580752D01*
X707180D01*
X709512D02*
X711845Y578420D01*
X714177Y585418D02*
Y578420D01*
X718843D01*
X721175D02*
X723508D01*
X722342D01*
Y585418D01*
X721175Y584251D01*
X527832Y681080D02*
X534830D01*
Y684579D01*
X533664Y685745D01*
X528998D01*
X527832Y684579D01*
Y681080D01*
X528998Y688078D02*
X527832Y689244D01*
Y691577D01*
X528998Y692743D01*
X530165D01*
X531331Y691577D01*
Y690410D01*
Y691577D01*
X532497Y692743D01*
X533664D01*
X534830Y691577D01*
Y689244D01*
X533664Y688078D01*
X798000Y546000D02*
Y552998D01*
X801499D01*
X802665Y551832D01*
Y549499D01*
X801499Y548333D01*
X798000D01*
X804998Y546000D02*
X807330D01*
X806164D01*
Y552998D01*
X804998Y551832D01*
X767530Y626840D02*
Y633838D01*
X771029D01*
X772195Y632672D01*
Y630339D01*
X771029Y629173D01*
X767530D01*
X769863D02*
X772195Y626840D01*
X778027D02*
Y633838D01*
X774528Y630339D01*
X779193D01*
X768240Y647500D02*
Y654498D01*
X771739D01*
X772905Y653332D01*
Y650999D01*
X771739Y649833D01*
X768240D01*
X770573D02*
X772905Y647500D01*
X779903Y654498D02*
X775238D01*
Y650999D01*
X777570Y652165D01*
X778737D01*
X779903Y650999D01*
Y648666D01*
X778737Y647500D01*
X776404D01*
X775238Y648666D01*
X615500Y672250D02*
Y679248D01*
X618999D01*
X620165Y678082D01*
Y675749D01*
X618999Y674583D01*
X615500D01*
X617833D02*
X620165Y672250D01*
X627163Y679248D02*
X624830Y678082D01*
X622498Y675749D01*
Y673417D01*
X623664Y672250D01*
X625997D01*
X627163Y673417D01*
Y674583D01*
X625997Y675749D01*
X622498D01*
X521915Y624081D02*
X520749Y625248D01*
X518416D01*
X517250Y624081D01*
Y622915D01*
X518416Y621749D01*
X520749D01*
X521915Y620583D01*
Y619416D01*
X520749Y618250D01*
X518416D01*
X517250Y619416D01*
X525414Y618250D02*
X527747D01*
X528913Y619416D01*
Y621749D01*
X527747Y622915D01*
X525414D01*
X524248Y621749D01*
Y619416D01*
X525414Y618250D01*
X532412D02*
Y624081D01*
Y621749D01*
X531245D01*
X533578D01*
X532412D01*
Y624081D01*
X533578Y625248D01*
X538243Y624081D02*
Y622915D01*
X537077D01*
X539409D01*
X538243D01*
Y619416D01*
X539409Y618250D01*
X542908Y617084D02*
X547574D01*
X553405Y625248D02*
X551073D01*
X549906Y624081D01*
Y619416D01*
X551073Y618250D01*
X553405D01*
X554571Y619416D01*
Y624081D01*
X553405Y625248D01*
X561569D02*
X556904D01*
Y621749D01*
X559236D01*
X556904D01*
Y618250D01*
X568567Y625248D02*
X563902D01*
Y621749D01*
X566234D01*
X563902D01*
Y618250D01*
D31*
X575925Y780045D02*
D03*
X575939Y812810D02*
D03*
M02*
