%FSLAX44Y44*%
%MOMM*%
G71*
G01*
G75*
G04 Layer_Color=65535*
%ADD10C,0.4000*%
%ADD11O,2.0000X1.2500*%
%ADD12O,2.0000X1.2500*%
%ADD13C,1.4000*%
%ADD14R,1.5000X1.5000*%
%ADD15C,2.7000*%
%ADD16R,2.0000X2.0000*%
%ADD17C,2.0000*%
%ADD18C,0.9000*%
%ADD19C,0.2000*%
%ADD20C,0.2500*%
%ADD21C,0.1000*%
%ADD22C,0.1500*%
%ADD23R,0.8000X2.8000*%
G36*
X437420Y611483D02*
X437573D01*
Y611330D01*
X437725D01*
Y610873D01*
X437573D01*
Y610568D01*
X437420D01*
Y610263D01*
X436963D01*
Y610111D01*
X436506D01*
Y610263D01*
X436353D01*
Y610111D01*
X435896D01*
Y610263D01*
X435744D01*
Y610111D01*
X435286D01*
Y610263D01*
X435134D01*
Y610111D01*
X434677D01*
Y610263D01*
X434524D01*
Y610111D01*
X434067D01*
Y610263D01*
X433915D01*
Y610111D01*
X433457D01*
Y610263D01*
X433305D01*
Y610111D01*
X432848D01*
Y610263D01*
X432695D01*
Y610111D01*
X432238D01*
Y610263D01*
X432085D01*
Y610111D01*
X431628D01*
Y610263D01*
X431476D01*
Y610111D01*
X431018D01*
Y610263D01*
X430866D01*
Y610111D01*
X430409D01*
Y610263D01*
X430256D01*
Y610111D01*
X430104D01*
Y610263D01*
X429647D01*
Y610568D01*
X429342D01*
Y610720D01*
X429494D01*
Y610873D01*
X429342D01*
Y611025D01*
X429494D01*
Y611178D01*
X429342D01*
Y611330D01*
X429494D01*
Y611483D01*
X429647D01*
Y611787D01*
X429952D01*
Y611940D01*
X437116D01*
Y611787D01*
X437268D01*
Y611940D01*
X437420D01*
Y611483D01*
D02*
G37*
G36*
X434677Y624896D02*
X435134D01*
Y624744D01*
X435591D01*
Y624591D01*
X436049D01*
Y624439D01*
X436201D01*
Y624286D01*
X436353D01*
Y624134D01*
X436506D01*
Y623982D01*
X436658D01*
Y624134D01*
X436811D01*
Y623677D01*
X436963D01*
Y623524D01*
X437116D01*
Y623372D01*
X437268D01*
Y623219D01*
X437420D01*
Y622457D01*
X437573D01*
Y622305D01*
X437725D01*
Y622152D01*
X437573D01*
Y622000D01*
X437725D01*
Y619714D01*
X437573D01*
Y619561D01*
X437725D01*
Y619409D01*
X437573D01*
Y619256D01*
X437420D01*
Y619104D01*
X437573D01*
Y618951D01*
X437420D01*
Y618494D01*
X437268D01*
Y618342D01*
X437116D01*
Y618037D01*
X436963D01*
Y617732D01*
X436811D01*
Y617580D01*
X436658D01*
Y617427D01*
X436506D01*
Y617275D01*
X436353D01*
Y617122D01*
X436201D01*
Y616970D01*
X436049D01*
Y616818D01*
X435591D01*
Y616665D01*
X435439D01*
Y616513D01*
X434829D01*
Y616665D01*
X434524D01*
Y616818D01*
X434372D01*
Y616970D01*
X434219D01*
Y617732D01*
X434372D01*
Y617884D01*
X434219D01*
Y618037D01*
X434372D01*
Y618189D01*
X434524D01*
Y618342D01*
X434677D01*
Y618189D01*
X434829D01*
Y618342D01*
X434982D01*
Y618494D01*
X435134D01*
Y618647D01*
X435286D01*
Y618799D01*
X435439D01*
Y619256D01*
X435591D01*
Y619409D01*
X435744D01*
Y619866D01*
X435896D01*
Y620018D01*
X436049D01*
Y620171D01*
X435896D01*
Y620323D01*
X436049D01*
Y620476D01*
X435896D01*
Y620628D01*
X436049D01*
Y620781D01*
X435896D01*
Y620933D01*
X436049D01*
Y621085D01*
X435896D01*
Y621238D01*
X436049D01*
Y621390D01*
X435896D01*
Y621848D01*
X435744D01*
Y622305D01*
X435591D01*
Y622457D01*
X435439D01*
Y622610D01*
X435286D01*
Y622762D01*
X435134D01*
Y622915D01*
X434677D01*
Y623067D01*
X434524D01*
Y622915D01*
X434372D01*
Y623067D01*
X433915D01*
Y622915D01*
X433762D01*
Y622762D01*
X433610D01*
Y622915D01*
X433457D01*
Y622762D01*
X433305D01*
Y622610D01*
X433152D01*
Y622152D01*
X433000D01*
Y622000D01*
X432848D01*
Y621848D01*
X432695D01*
Y621695D01*
X432848D01*
Y621543D01*
X432695D01*
Y621390D01*
X432543D01*
Y620933D01*
X432390D01*
Y620781D01*
X432543D01*
Y620628D01*
X432390D01*
Y620476D01*
X432238D01*
Y620018D01*
X432085D01*
Y619561D01*
X431933D01*
Y619104D01*
X431781D01*
Y618951D01*
X431628D01*
Y618494D01*
X431476D01*
Y618342D01*
X431323D01*
Y618037D01*
X431018D01*
Y617732D01*
X430714D01*
Y617580D01*
X430561D01*
Y617427D01*
X430409D01*
Y617275D01*
X429952D01*
Y617122D01*
X429494D01*
Y616970D01*
X429342D01*
Y617122D01*
X429189D01*
Y616970D01*
X429037D01*
Y617122D01*
X428885D01*
Y616970D01*
X428732D01*
Y617122D01*
X428580D01*
Y616970D01*
X428427D01*
Y617122D01*
X427970D01*
Y617275D01*
X427513D01*
Y617427D01*
X427360D01*
Y617580D01*
X427208D01*
Y617732D01*
X426903D01*
Y618037D01*
X426598D01*
Y618342D01*
X426446D01*
Y618494D01*
X426293D01*
Y618951D01*
X426141D01*
Y619104D01*
X425988D01*
Y619866D01*
X425836D01*
Y620018D01*
X425988D01*
Y620171D01*
X425836D01*
Y620323D01*
X425684D01*
Y620476D01*
X425836D01*
Y620933D01*
X425684D01*
Y621085D01*
X425836D01*
Y621238D01*
X425988D01*
Y621390D01*
X425836D01*
Y621543D01*
X425988D01*
Y621695D01*
X425836D01*
Y621848D01*
X425988D01*
Y622305D01*
X426141D01*
Y622457D01*
X425988D01*
Y622610D01*
X426141D01*
Y622762D01*
X426293D01*
Y623219D01*
X426446D01*
Y623372D01*
X426598D01*
Y623524D01*
X426750D01*
Y623677D01*
X426598D01*
Y623829D01*
X426903D01*
Y624134D01*
X427208D01*
Y624439D01*
X427360D01*
Y624286D01*
X427513D01*
Y624439D01*
X427665D01*
Y624591D01*
X427817D01*
Y624744D01*
X427970D01*
Y624591D01*
X428122D01*
Y624744D01*
X428275D01*
Y624591D01*
X428427D01*
Y624744D01*
X428580D01*
Y624591D01*
X428732D01*
Y624439D01*
X428885D01*
Y624286D01*
X429037D01*
Y623829D01*
X429189D01*
Y623677D01*
X429037D01*
Y623372D01*
X428885D01*
Y623067D01*
X428580D01*
Y622762D01*
X428275D01*
Y622457D01*
X428122D01*
Y622305D01*
X427970D01*
Y622152D01*
X427817D01*
Y622000D01*
X427970D01*
Y621848D01*
X427817D01*
Y621695D01*
X427665D01*
Y620018D01*
X427817D01*
Y619866D01*
X427665D01*
Y619714D01*
X427817D01*
Y619561D01*
X427970D01*
Y619409D01*
X428122D01*
Y619256D01*
X428275D01*
Y619104D01*
X428427D01*
Y618951D01*
X428885D01*
Y618799D01*
X429037D01*
Y618951D01*
X429494D01*
Y619104D01*
X429647D01*
Y619256D01*
X429799D01*
Y619409D01*
X429952D01*
Y619866D01*
X430104D01*
Y620018D01*
X430256D01*
Y620476D01*
X430409D01*
Y620628D01*
X430561D01*
Y620781D01*
X430409D01*
Y620933D01*
X430561D01*
Y621390D01*
X430714D01*
Y621543D01*
X430866D01*
Y621695D01*
X430714D01*
Y621848D01*
X430866D01*
Y622152D01*
X431018D01*
Y622457D01*
X431171D01*
Y622915D01*
X431323D01*
Y623067D01*
X431476D01*
Y623524D01*
X431628D01*
Y623677D01*
X431781D01*
Y623829D01*
X431933D01*
Y623982D01*
X432085D01*
Y624134D01*
X432238D01*
Y624286D01*
X432390D01*
Y624439D01*
X432695D01*
Y624591D01*
X433000D01*
Y624744D01*
X433457D01*
Y624896D01*
X433915D01*
Y625048D01*
X434067D01*
Y624896D01*
X434524D01*
Y625048D01*
X434677D01*
Y624896D01*
D02*
G37*
G36*
X435591Y632213D02*
X436049D01*
Y632060D01*
X436506D01*
Y631908D01*
X436658D01*
Y631755D01*
X436811D01*
Y631603D01*
X436963D01*
Y631451D01*
X437116D01*
Y631298D01*
X437268D01*
Y631146D01*
X437420D01*
Y630688D01*
X437573D01*
Y630536D01*
X437420D01*
Y630383D01*
X437573D01*
Y630231D01*
X437725D01*
Y627945D01*
X437573D01*
Y627487D01*
X437420D01*
Y627030D01*
X437268D01*
Y626878D01*
X437116D01*
Y626725D01*
X436963D01*
Y626573D01*
X436811D01*
Y626420D01*
X436658D01*
Y626268D01*
X436506D01*
Y626115D01*
X436353D01*
Y625963D01*
X436201D01*
Y625811D01*
X436049D01*
Y625963D01*
X435896D01*
Y625811D01*
X435134D01*
Y625658D01*
X434982D01*
Y625811D01*
X434829D01*
Y625658D01*
X430104D01*
Y625811D01*
X429952D01*
Y625963D01*
X429799D01*
Y625811D01*
X429647D01*
Y625963D01*
X429494D01*
Y626420D01*
X429342D01*
Y626878D01*
X429494D01*
Y627030D01*
X429647D01*
Y627183D01*
X429799D01*
Y627335D01*
X429952D01*
Y627487D01*
X434982D01*
Y627640D01*
X435439D01*
Y627792D01*
X435591D01*
Y627945D01*
X435744D01*
Y628097D01*
X435896D01*
Y628250D01*
X436049D01*
Y628402D01*
X435896D01*
Y628554D01*
X436049D01*
Y628707D01*
X435896D01*
Y628859D01*
X436049D01*
Y629012D01*
X435896D01*
Y629164D01*
X436049D01*
Y629316D01*
X435896D01*
Y629469D01*
X436049D01*
Y629621D01*
X435896D01*
Y629774D01*
X435744D01*
Y630231D01*
X435439D01*
Y630536D01*
X435286D01*
Y630383D01*
X435134D01*
Y630536D01*
X430104D01*
Y630688D01*
X429952D01*
Y630841D01*
X429799D01*
Y630688D01*
X429647D01*
Y630841D01*
X429494D01*
Y630993D01*
X429647D01*
Y631146D01*
X429494D01*
Y631298D01*
X429342D01*
Y631755D01*
X429494D01*
Y631908D01*
X429647D01*
Y632213D01*
X429952D01*
Y632365D01*
X435286D01*
Y632213D01*
X435439D01*
Y632365D01*
X435591D01*
Y632213D01*
D02*
G37*
G36*
X428122Y611940D02*
X428275D01*
Y611787D01*
X428427D01*
Y611635D01*
X428580D01*
Y611483D01*
X428732D01*
Y611330D01*
X428580D01*
Y611178D01*
X428732D01*
Y611025D01*
X428580D01*
Y610873D01*
X428732D01*
Y610720D01*
X428580D01*
Y610263D01*
X428275D01*
Y610111D01*
X427970D01*
Y609958D01*
X427817D01*
Y610111D01*
X427665D01*
Y609958D01*
X427513D01*
Y610111D01*
X427055D01*
Y610263D01*
X426903D01*
Y610416D01*
X426750D01*
Y610873D01*
X426598D01*
Y611025D01*
X426750D01*
Y611178D01*
X426598D01*
Y611330D01*
X426750D01*
Y611787D01*
X426903D01*
Y611940D01*
X427360D01*
Y612092D01*
X428122D01*
Y611940D01*
D02*
G37*
G36*
X436353Y586637D02*
X436811D01*
Y586485D01*
X436963D01*
Y586332D01*
X437116D01*
Y586180D01*
X437268D01*
Y586027D01*
X437116D01*
Y585875D01*
X437268D01*
Y585723D01*
X437420D01*
Y585570D01*
X437268D01*
Y585723D01*
X437116D01*
Y585570D01*
X437268D01*
Y585418D01*
X437116D01*
Y584960D01*
X436963D01*
Y584808D01*
X436811D01*
Y584655D01*
X436658D01*
Y584808D01*
X436506D01*
Y584655D01*
X426293D01*
Y584808D01*
X426141D01*
Y584960D01*
X425988D01*
Y585113D01*
X425836D01*
Y585265D01*
X425684D01*
Y586027D01*
X425836D01*
Y586180D01*
X425684D01*
Y586332D01*
X425988D01*
Y586637D01*
X426141D01*
Y586485D01*
X426293D01*
Y586637D01*
X426446D01*
Y586790D01*
X426598D01*
Y586637D01*
X426750D01*
Y586790D01*
X426903D01*
Y586637D01*
X427055D01*
Y586790D01*
X427208D01*
Y586637D01*
X427360D01*
Y586790D01*
X427513D01*
Y586637D01*
X427665D01*
Y586790D01*
X427817D01*
Y586637D01*
X427970D01*
Y586790D01*
X428122D01*
Y586637D01*
X428275D01*
Y586790D01*
X428427D01*
Y586637D01*
X428580D01*
Y586790D01*
X428732D01*
Y586637D01*
X428885D01*
Y586790D01*
X429037D01*
Y586637D01*
X429189D01*
Y586790D01*
X429342D01*
Y586637D01*
X429494D01*
Y586790D01*
X429647D01*
Y586637D01*
X429799D01*
Y586790D01*
X429952D01*
Y586637D01*
X430104D01*
Y586790D01*
X430256D01*
Y586637D01*
X430409D01*
Y586790D01*
X430561D01*
Y586637D01*
X430714D01*
Y586790D01*
X430866D01*
Y586637D01*
X431018D01*
Y586790D01*
X431171D01*
Y586637D01*
X431323D01*
Y586790D01*
X431476D01*
Y586637D01*
X431628D01*
Y586790D01*
X431781D01*
Y586637D01*
X431933D01*
Y586790D01*
X432085D01*
Y586637D01*
X432238D01*
Y586790D01*
X432390D01*
Y586637D01*
X432543D01*
Y586790D01*
X432695D01*
Y586637D01*
X432848D01*
Y586790D01*
X433000D01*
Y586637D01*
X433152D01*
Y586790D01*
X433305D01*
Y586637D01*
X433457D01*
Y586790D01*
X433610D01*
Y586637D01*
X433762D01*
Y586790D01*
X433915D01*
Y586637D01*
X434067D01*
Y586790D01*
X434219D01*
Y586637D01*
X434372D01*
Y586790D01*
X434524D01*
Y586637D01*
X434677D01*
Y586790D01*
X434829D01*
Y586637D01*
X434982D01*
Y586790D01*
X435134D01*
Y586637D01*
X435286D01*
Y586790D01*
X435439D01*
Y586637D01*
X435591D01*
Y586790D01*
X435744D01*
Y586637D01*
X435896D01*
Y586790D01*
X436049D01*
Y586637D01*
X436201D01*
Y586790D01*
X436353D01*
Y586637D01*
D02*
G37*
G36*
X438182Y600355D02*
X438945D01*
Y600203D01*
X439097D01*
Y600355D01*
X439249D01*
Y600203D01*
X439707D01*
Y600051D01*
X440164D01*
Y599898D01*
X440621D01*
Y599746D01*
X440774D01*
Y599593D01*
X440926D01*
Y599746D01*
X441079D01*
Y599593D01*
X441231D01*
Y599746D01*
X441384D01*
Y599593D01*
X441536D01*
Y599746D01*
X442298D01*
Y599898D01*
X442450D01*
Y599746D01*
X442908D01*
Y599898D01*
X443060D01*
Y599746D01*
X443517D01*
Y599593D01*
X443670D01*
Y599746D01*
X443822D01*
Y599593D01*
X443975D01*
Y599746D01*
X444127D01*
Y599593D01*
X444280D01*
Y599441D01*
X444737D01*
Y599288D01*
X444889D01*
Y599441D01*
X445042D01*
Y599288D01*
X445194D01*
Y599136D01*
X445347D01*
Y598984D01*
X445804D01*
Y598831D01*
X445956D01*
Y598679D01*
X446109D01*
Y598526D01*
X446261D01*
Y598374D01*
X446413D01*
Y598526D01*
X446566D01*
Y598069D01*
X446871D01*
Y597764D01*
X447023D01*
Y597917D01*
X447176D01*
Y597459D01*
X447328D01*
Y597307D01*
X447481D01*
Y597155D01*
X447633D01*
Y597002D01*
X447785D01*
Y596850D01*
X447938D01*
Y596697D01*
X448243D01*
Y596850D01*
X448548D01*
Y596697D01*
X449005D01*
Y596850D01*
X449157D01*
Y596697D01*
X449614D01*
Y596545D01*
X449767D01*
Y596697D01*
X449919D01*
Y596545D01*
X450072D01*
Y596697D01*
X450224D01*
Y596545D01*
X450377D01*
Y596392D01*
X450834D01*
Y596240D01*
X450986D01*
Y596087D01*
X451444D01*
Y595935D01*
X451596D01*
Y595783D01*
X451749D01*
Y595630D01*
X451901D01*
Y595783D01*
X452053D01*
Y595630D01*
X452206D01*
Y595478D01*
X452358D01*
Y595325D01*
X452511D01*
Y595173D01*
X452663D01*
Y595020D01*
X452816D01*
Y594868D01*
X452968D01*
Y594716D01*
X453120D01*
Y594563D01*
X453273D01*
Y594411D01*
X453425D01*
Y594106D01*
X453578D01*
Y593801D01*
X453730D01*
Y593649D01*
X453882D01*
Y593191D01*
X454035D01*
Y593039D01*
X454187D01*
Y592582D01*
X454340D01*
Y592429D01*
X454187D01*
Y592277D01*
X454340D01*
Y592124D01*
X454492D01*
Y591057D01*
X454645D01*
Y590905D01*
X454797D01*
Y590753D01*
X455102D01*
Y590600D01*
X455407D01*
Y590448D01*
X455559D01*
Y590295D01*
X455712D01*
Y590143D01*
X455864D01*
Y589990D01*
X456016D01*
Y589838D01*
X456169D01*
Y589686D01*
X456321D01*
Y589228D01*
X456474D01*
Y589076D01*
X456626D01*
Y588923D01*
X456778D01*
Y588771D01*
X456931D01*
Y588314D01*
X457083D01*
Y587856D01*
X457236D01*
Y587399D01*
X457388D01*
Y586942D01*
X457541D01*
Y586790D01*
X457388D01*
Y586637D01*
X457541D01*
Y584655D01*
X457388D01*
Y584503D01*
X457541D01*
Y584351D01*
X457388D01*
Y583893D01*
X457236D01*
Y583436D01*
X457083D01*
Y583131D01*
X456931D01*
Y582826D01*
X456778D01*
Y582674D01*
X456626D01*
Y582522D01*
X456778D01*
Y582369D01*
X456626D01*
Y582217D01*
X456474D01*
Y582064D01*
X456321D01*
Y581912D01*
X456169D01*
Y581759D01*
X456016D01*
Y581455D01*
X455864D01*
Y581302D01*
X455712D01*
Y580997D01*
X455407D01*
Y580845D01*
X455102D01*
Y580692D01*
X454949D01*
Y580540D01*
X454797D01*
Y580387D01*
X454645D01*
Y580235D01*
X454492D01*
Y579473D01*
X454340D01*
Y579321D01*
X454492D01*
Y579168D01*
X454340D01*
Y579016D01*
X454187D01*
Y578558D01*
X454035D01*
Y578406D01*
X454187D01*
Y578254D01*
X454035D01*
Y578101D01*
X453882D01*
Y577644D01*
X453730D01*
Y577491D01*
X453578D01*
Y577339D01*
X453425D01*
Y577187D01*
X453273D01*
Y576729D01*
X452968D01*
Y576424D01*
X452816D01*
Y576272D01*
X452663D01*
Y576120D01*
X452358D01*
Y575967D01*
X452206D01*
Y575815D01*
X452053D01*
Y575662D01*
X451749D01*
Y575510D01*
X451596D01*
Y575358D01*
X451444D01*
Y575205D01*
X451291D01*
Y575358D01*
X451139D01*
Y575205D01*
X450986D01*
Y575053D01*
X450529D01*
Y574900D01*
X450072D01*
Y574748D01*
X449614D01*
Y574595D01*
X449462D01*
Y574748D01*
X449310D01*
Y574595D01*
X449157D01*
Y574748D01*
X449005D01*
Y574595D01*
X448852D01*
Y574748D01*
X448700D01*
Y574595D01*
X448243D01*
Y574748D01*
X448090D01*
Y574595D01*
X447785D01*
Y574291D01*
X447633D01*
Y574138D01*
X447481D01*
Y573986D01*
X447328D01*
Y573833D01*
X447176D01*
Y573681D01*
X447023D01*
Y573528D01*
X446871D01*
Y573376D01*
X446718D01*
Y573223D01*
X446566D01*
Y573071D01*
X446413D01*
Y572919D01*
X446261D01*
Y572766D01*
X446109D01*
Y572614D01*
X445956D01*
Y572461D01*
X445499D01*
Y572309D01*
X445347D01*
Y572156D01*
X445194D01*
Y572309D01*
X445042D01*
Y572156D01*
X444889D01*
Y572004D01*
X444737D01*
Y571852D01*
X444584D01*
Y572004D01*
X444432D01*
Y571852D01*
X444280D01*
Y571699D01*
X443517D01*
Y571547D01*
X443365D01*
Y571699D01*
X443213D01*
Y571547D01*
X443060D01*
Y571699D01*
X442908D01*
Y571547D01*
X442755D01*
Y571699D01*
X442603D01*
Y571547D01*
X442146D01*
Y571699D01*
X441993D01*
Y571547D01*
X441841D01*
Y571699D01*
X441688D01*
Y571547D01*
X441536D01*
Y571699D01*
X440774D01*
Y571547D01*
X440317D01*
Y571394D01*
X440164D01*
Y571242D01*
X440012D01*
Y571394D01*
X439859D01*
Y571242D01*
X439402D01*
Y571090D01*
X439249D01*
Y570937D01*
X439097D01*
Y571090D01*
X438945D01*
Y570937D01*
X438792D01*
Y571090D01*
X438640D01*
Y570937D01*
X436963D01*
Y571090D01*
X436811D01*
Y570937D01*
X436658D01*
Y571090D01*
X436506D01*
Y570937D01*
X436353D01*
Y571090D01*
X435896D01*
Y571242D01*
X435744D01*
Y571394D01*
X435591D01*
Y571242D01*
X435439D01*
Y571394D01*
X435134D01*
Y571547D01*
X434829D01*
Y571699D01*
X434524D01*
Y571852D01*
X434219D01*
Y572004D01*
X434067D01*
Y572156D01*
X433915D01*
Y572309D01*
X433762D01*
Y572156D01*
X433610D01*
Y572614D01*
X433457D01*
Y572461D01*
X433305D01*
Y572766D01*
X433000D01*
Y573223D01*
X432695D01*
Y573528D01*
X432543D01*
Y573681D01*
X432390D01*
Y573833D01*
X432238D01*
Y573986D01*
X432390D01*
Y574138D01*
X432238D01*
Y574291D01*
X432085D01*
Y574443D01*
X431933D01*
Y574595D01*
X431781D01*
Y574748D01*
X431933D01*
Y574900D01*
X431781D01*
Y575358D01*
X431628D01*
Y575510D01*
X431476D01*
Y575662D01*
X431628D01*
Y575815D01*
X431476D01*
Y576577D01*
X431323D01*
Y576729D01*
X431476D01*
Y576882D01*
X431323D01*
Y577034D01*
X431476D01*
Y577187D01*
X431323D01*
Y577339D01*
X431476D01*
Y577491D01*
X431323D01*
Y577644D01*
X431476D01*
Y577796D01*
X431323D01*
Y577949D01*
X431476D01*
Y578711D01*
X431628D01*
Y578863D01*
X431781D01*
Y579016D01*
X431628D01*
Y579168D01*
X431781D01*
Y579625D01*
X431933D01*
Y579778D01*
X432085D01*
Y580235D01*
X432238D01*
Y580387D01*
X432085D01*
Y580540D01*
X431933D01*
Y580692D01*
X431781D01*
Y580845D01*
X431628D01*
Y580997D01*
X431476D01*
Y581150D01*
X431323D01*
Y581302D01*
X431171D01*
Y581607D01*
X431018D01*
Y581759D01*
X430866D01*
Y582064D01*
X430714D01*
Y582217D01*
X430561D01*
Y583284D01*
X430714D01*
Y583436D01*
X430866D01*
Y583588D01*
X431323D01*
Y583741D01*
X431476D01*
Y583588D01*
X431933D01*
Y583436D01*
X432238D01*
Y583131D01*
X432390D01*
Y582979D01*
X432543D01*
Y582826D01*
X432695D01*
Y582674D01*
X432848D01*
Y582369D01*
X433000D01*
Y582217D01*
X433152D01*
Y581912D01*
X433457D01*
Y581759D01*
X433762D01*
Y581607D01*
X433915D01*
Y581455D01*
X434067D01*
Y581302D01*
X434372D01*
Y581150D01*
X434677D01*
Y580997D01*
X435134D01*
Y580845D01*
X435286D01*
Y580692D01*
X435439D01*
Y580845D01*
X435591D01*
Y580692D01*
X435744D01*
Y580845D01*
X435896D01*
Y580692D01*
X436049D01*
Y580845D01*
X436201D01*
Y580692D01*
X437268D01*
Y580845D01*
X437420D01*
Y580692D01*
X437573D01*
Y580845D01*
X437725D01*
Y580692D01*
X437878D01*
Y580845D01*
X438335D01*
Y580997D01*
X438487D01*
Y581150D01*
X438640D01*
Y580997D01*
X438792D01*
Y581150D01*
X438945D01*
Y581302D01*
X439097D01*
Y581455D01*
X439249D01*
Y581302D01*
X439402D01*
Y581455D01*
X439554D01*
Y581607D01*
X439707D01*
Y581759D01*
X439859D01*
Y581912D01*
X440012D01*
Y582064D01*
X440317D01*
Y582369D01*
X440469D01*
Y582522D01*
X440621D01*
Y582674D01*
X440774D01*
Y582826D01*
X440926D01*
Y583284D01*
X441079D01*
Y583436D01*
X441231D01*
Y583893D01*
X441384D01*
Y584046D01*
X441536D01*
Y584808D01*
X441688D01*
Y584960D01*
X441536D01*
Y585113D01*
X441688D01*
Y585265D01*
X441841D01*
Y585418D01*
X441688D01*
Y585570D01*
X441841D01*
Y585723D01*
X441688D01*
Y585875D01*
X441841D01*
Y586027D01*
X441688D01*
Y586180D01*
X441536D01*
Y586332D01*
X441688D01*
Y586485D01*
X441536D01*
Y586637D01*
X441688D01*
Y586790D01*
X441536D01*
Y587247D01*
X441384D01*
Y587399D01*
X441536D01*
Y587552D01*
X441384D01*
Y587704D01*
X441231D01*
Y588009D01*
X441079D01*
Y588314D01*
X440926D01*
Y588466D01*
X440774D01*
Y588619D01*
X440621D01*
Y588771D01*
X440469D01*
Y588923D01*
X440621D01*
Y589076D01*
X440317D01*
Y589381D01*
X440012D01*
Y589533D01*
X439707D01*
Y589686D01*
X439554D01*
Y589838D01*
X439402D01*
Y589990D01*
X439097D01*
Y590143D01*
X438792D01*
Y590295D01*
X438640D01*
Y590448D01*
X438182D01*
Y590600D01*
X438030D01*
Y590448D01*
X437878D01*
Y590600D01*
X437420D01*
Y590753D01*
X436353D01*
Y590600D01*
X435591D01*
Y590448D01*
X435439D01*
Y590600D01*
X435286D01*
Y590448D01*
X434829D01*
Y590295D01*
X434677D01*
Y590143D01*
X434524D01*
Y590295D01*
X434372D01*
Y590143D01*
X434219D01*
Y589990D01*
X434067D01*
Y589838D01*
X433762D01*
Y589686D01*
X433457D01*
Y589533D01*
X433305D01*
Y589381D01*
X433152D01*
Y589228D01*
X433000D01*
Y589076D01*
X432848D01*
Y588923D01*
X432695D01*
Y588771D01*
X432543D01*
Y588314D01*
X432390D01*
Y588161D01*
X432238D01*
Y588009D01*
X432085D01*
Y587856D01*
X431933D01*
Y587704D01*
X431781D01*
Y587856D01*
X431628D01*
Y587704D01*
X431476D01*
Y587856D01*
X431323D01*
Y587704D01*
X431171D01*
Y587856D01*
X430866D01*
Y588161D01*
X430714D01*
Y588314D01*
X430561D01*
Y589076D01*
X430714D01*
Y589228D01*
X430866D01*
Y589686D01*
X431018D01*
Y589838D01*
X431171D01*
Y589990D01*
X431323D01*
Y590143D01*
X431476D01*
Y590295D01*
X431628D01*
Y590448D01*
X431781D01*
Y590600D01*
X431933D01*
Y590753D01*
X432085D01*
Y590905D01*
X432238D01*
Y591057D01*
X432085D01*
Y591515D01*
X431933D01*
Y591667D01*
X431781D01*
Y592124D01*
X431628D01*
Y592277D01*
X431781D01*
Y592429D01*
X431628D01*
Y592582D01*
X431476D01*
Y592734D01*
X431628D01*
Y592887D01*
X431476D01*
Y593649D01*
X431323D01*
Y593801D01*
X431476D01*
Y593954D01*
X431323D01*
Y594106D01*
X431476D01*
Y594258D01*
X431323D01*
Y594411D01*
X431476D01*
Y594563D01*
X431323D01*
Y594716D01*
X431476D01*
Y595478D01*
X431628D01*
Y595630D01*
X431476D01*
Y595783D01*
X431628D01*
Y595935D01*
X431781D01*
Y596697D01*
X431933D01*
Y596850D01*
X432085D01*
Y597307D01*
X432238D01*
Y597459D01*
X432390D01*
Y597612D01*
X432543D01*
Y597764D01*
X432390D01*
Y597917D01*
X432695D01*
Y598222D01*
X432848D01*
Y598374D01*
X433000D01*
Y598526D01*
X433152D01*
Y598679D01*
X433305D01*
Y598831D01*
X433457D01*
Y598984D01*
X433610D01*
Y599136D01*
X433915D01*
Y599288D01*
X434219D01*
Y599441D01*
X434372D01*
Y599593D01*
X434524D01*
Y599746D01*
X434677D01*
Y599593D01*
X434829D01*
Y599746D01*
X434982D01*
Y599898D01*
X435134D01*
Y600051D01*
X435286D01*
Y599898D01*
X435439D01*
Y600051D01*
X435591D01*
Y600203D01*
X436049D01*
Y600355D01*
X436201D01*
Y600203D01*
X436353D01*
Y600355D01*
X436811D01*
Y600508D01*
X436963D01*
Y600355D01*
X437116D01*
Y600508D01*
X438182D01*
Y600355D01*
D02*
G37*
G36*
X430256Y609196D02*
X430714D01*
Y609044D01*
X430866D01*
Y609196D01*
X431018D01*
Y609044D01*
X431323D01*
Y608891D01*
X431628D01*
Y608739D01*
X431781D01*
Y608587D01*
X431933D01*
Y608434D01*
X432085D01*
Y608282D01*
X432238D01*
Y608129D01*
X432390D01*
Y607977D01*
X432543D01*
Y607824D01*
X432695D01*
Y607367D01*
X432848D01*
Y606910D01*
X433000D01*
Y606452D01*
X433152D01*
Y606300D01*
X433000D01*
Y606148D01*
X433152D01*
Y605995D01*
X433000D01*
Y605843D01*
X433152D01*
Y605690D01*
X433000D01*
Y605538D01*
X433152D01*
Y605386D01*
X433000D01*
Y605233D01*
X433152D01*
Y605081D01*
X433000D01*
Y604928D01*
X433152D01*
Y604776D01*
X433000D01*
Y604623D01*
X433152D01*
Y604471D01*
X433000D01*
Y604319D01*
X433152D01*
Y604166D01*
X433000D01*
Y604014D01*
X433152D01*
Y603861D01*
X433000D01*
Y603709D01*
X433152D01*
Y603556D01*
X433305D01*
Y603709D01*
X433457D01*
Y603556D01*
X433610D01*
Y603709D01*
X433762D01*
Y603556D01*
X433915D01*
Y603709D01*
X434067D01*
Y603556D01*
X434219D01*
Y603709D01*
X434372D01*
Y603556D01*
X434524D01*
Y603709D01*
X434677D01*
Y603556D01*
X434829D01*
Y603709D01*
X434982D01*
Y603556D01*
X435134D01*
Y603709D01*
X435286D01*
Y603556D01*
X435439D01*
Y603709D01*
X435591D01*
Y603556D01*
X435744D01*
Y603709D01*
X435896D01*
Y603556D01*
X436049D01*
Y603709D01*
X436201D01*
Y603556D01*
X436353D01*
Y603709D01*
X436506D01*
Y603556D01*
X436658D01*
Y603709D01*
X436811D01*
Y603556D01*
X436963D01*
Y603709D01*
X437116D01*
Y603556D01*
X437268D01*
Y603404D01*
X437420D01*
Y603251D01*
X437573D01*
Y603099D01*
X437725D01*
Y602947D01*
X437573D01*
Y602794D01*
X437725D01*
Y602642D01*
X437573D01*
Y602489D01*
X437725D01*
Y602337D01*
X437573D01*
Y602184D01*
X437420D01*
Y602032D01*
X437268D01*
Y601880D01*
X437116D01*
Y601727D01*
X436963D01*
Y601880D01*
X436811D01*
Y601727D01*
X436658D01*
Y601880D01*
X436506D01*
Y601727D01*
X436353D01*
Y601880D01*
X436201D01*
Y601727D01*
X436049D01*
Y601880D01*
X435896D01*
Y601727D01*
X435744D01*
Y601880D01*
X435591D01*
Y601727D01*
X435439D01*
Y601880D01*
X435286D01*
Y601727D01*
X435134D01*
Y601880D01*
X434982D01*
Y601727D01*
X434829D01*
Y601880D01*
X434677D01*
Y601727D01*
X434524D01*
Y601880D01*
X434372D01*
Y601727D01*
X434219D01*
Y601880D01*
X434067D01*
Y601727D01*
X433915D01*
Y601880D01*
X433762D01*
Y601727D01*
X433610D01*
Y601880D01*
X433457D01*
Y601727D01*
X433305D01*
Y601880D01*
X433152D01*
Y601727D01*
X433000D01*
Y601880D01*
X432848D01*
Y601727D01*
X432695D01*
Y601880D01*
X432543D01*
Y601727D01*
X432390D01*
Y601880D01*
X432238D01*
Y601727D01*
X432085D01*
Y601880D01*
X431933D01*
Y601727D01*
X431781D01*
Y601880D01*
X431628D01*
Y601727D01*
X431476D01*
Y601880D01*
X431323D01*
Y601727D01*
X431171D01*
Y601880D01*
X431018D01*
Y601727D01*
X430866D01*
Y601880D01*
X430714D01*
Y601727D01*
X430561D01*
Y601880D01*
X430409D01*
Y601727D01*
X430256D01*
Y601880D01*
X430104D01*
Y601727D01*
X429952D01*
Y601880D01*
X429799D01*
Y601727D01*
X429647D01*
Y601880D01*
X429494D01*
Y601727D01*
X429342D01*
Y601880D01*
X429189D01*
Y601727D01*
X429037D01*
Y601880D01*
X428885D01*
Y601727D01*
X428732D01*
Y601880D01*
X428580D01*
Y601727D01*
X428427D01*
Y601880D01*
X428275D01*
Y601727D01*
X428122D01*
Y601880D01*
X427970D01*
Y601727D01*
X427817D01*
Y601880D01*
X427665D01*
Y601727D01*
X427513D01*
Y601880D01*
X427360D01*
Y601727D01*
X427208D01*
Y601880D01*
X427055D01*
Y601727D01*
X426903D01*
Y601880D01*
X426750D01*
Y601727D01*
X426598D01*
Y601880D01*
X426446D01*
Y602032D01*
X426293D01*
Y602184D01*
X426141D01*
Y602337D01*
X425988D01*
Y602489D01*
X426141D01*
Y602642D01*
X425988D01*
Y602794D01*
X426141D01*
Y602947D01*
X425988D01*
Y603099D01*
X426141D01*
Y603251D01*
X425988D01*
Y603404D01*
X426141D01*
Y603556D01*
X425988D01*
Y603709D01*
X426141D01*
Y603861D01*
X425988D01*
Y604014D01*
X426141D01*
Y604166D01*
X425988D01*
Y604319D01*
X426141D01*
Y604471D01*
X425988D01*
Y604623D01*
X426141D01*
Y604776D01*
X425988D01*
Y604928D01*
X426141D01*
Y605081D01*
X425988D01*
Y605233D01*
X426141D01*
Y605386D01*
X425988D01*
Y605538D01*
X426141D01*
Y605690D01*
X425988D01*
Y605843D01*
X426141D01*
Y605995D01*
X425988D01*
Y606148D01*
X426141D01*
Y606300D01*
X425988D01*
Y606452D01*
X426141D01*
Y606605D01*
X425988D01*
Y606757D01*
X426141D01*
Y606910D01*
X426293D01*
Y607367D01*
X426446D01*
Y607519D01*
X426293D01*
Y607672D01*
X426446D01*
Y607824D01*
X426598D01*
Y607977D01*
X426750D01*
Y608129D01*
X426903D01*
Y608434D01*
X427208D01*
Y608587D01*
X427360D01*
Y608739D01*
X427513D01*
Y608891D01*
X427665D01*
Y609044D01*
X427817D01*
Y608891D01*
X427970D01*
Y609044D01*
X428122D01*
Y609196D01*
X428275D01*
Y609044D01*
X428427D01*
Y609196D01*
X428885D01*
Y609349D01*
X429952D01*
Y609196D01*
X430104D01*
Y609349D01*
X430256D01*
Y609196D01*
D02*
G37*
G36*
X434982Y648675D02*
X435286D01*
Y648522D01*
X435591D01*
Y648370D01*
X435744D01*
Y648522D01*
X435896D01*
Y648370D01*
X436049D01*
Y648217D01*
X436201D01*
Y648065D01*
X436353D01*
Y648217D01*
X436506D01*
Y647913D01*
X436811D01*
Y647608D01*
X437116D01*
Y647150D01*
X437268D01*
Y646998D01*
X437420D01*
Y646541D01*
X437573D01*
Y646388D01*
X437725D01*
Y646236D01*
X437573D01*
Y646083D01*
X437725D01*
Y644407D01*
X437573D01*
Y644254D01*
X437725D01*
Y644102D01*
X437573D01*
Y643949D01*
X437420D01*
Y643492D01*
X437268D01*
Y643340D01*
X440164D01*
Y643187D01*
X440469D01*
Y642882D01*
X440621D01*
Y642730D01*
X440774D01*
Y642273D01*
X440621D01*
Y642120D01*
X440469D01*
Y641968D01*
X440621D01*
Y641815D01*
X440469D01*
Y641663D01*
X440012D01*
Y641511D01*
X430104D01*
Y641663D01*
X429952D01*
Y641815D01*
X429799D01*
Y641663D01*
X429647D01*
Y641815D01*
X429494D01*
Y641968D01*
X429647D01*
Y642120D01*
X429494D01*
Y642273D01*
X429342D01*
Y642730D01*
X429494D01*
Y642882D01*
X429647D01*
Y643187D01*
X429952D01*
Y643340D01*
X429799D01*
Y643492D01*
X429647D01*
Y643949D01*
X429494D01*
Y644102D01*
X429342D01*
Y646388D01*
X429494D01*
Y646541D01*
X429647D01*
Y646693D01*
X429494D01*
Y646845D01*
X429647D01*
Y646998D01*
X429799D01*
Y647150D01*
X429952D01*
Y647608D01*
X430104D01*
Y647760D01*
X430256D01*
Y647913D01*
X430561D01*
Y648065D01*
X430866D01*
Y648217D01*
X431018D01*
Y648370D01*
X431171D01*
Y648522D01*
X431628D01*
Y648675D01*
X432085D01*
Y648827D01*
X432238D01*
Y648675D01*
X432390D01*
Y648827D01*
X432543D01*
Y648675D01*
X432695D01*
Y648827D01*
X434372D01*
Y648675D01*
X434524D01*
Y648827D01*
X434677D01*
Y648675D01*
X434829D01*
Y648827D01*
X434982D01*
Y648675D01*
D02*
G37*
G36*
X437116Y652333D02*
X437268D01*
Y652180D01*
X437420D01*
Y652028D01*
X437573D01*
Y651876D01*
X437725D01*
Y651723D01*
X437573D01*
Y651571D01*
X437725D01*
Y651418D01*
X437573D01*
Y651266D01*
X437725D01*
Y651114D01*
X437573D01*
Y650656D01*
X437420D01*
Y650199D01*
X437268D01*
Y650046D01*
X437116D01*
Y649894D01*
X436963D01*
Y649742D01*
X436811D01*
Y649589D01*
X436658D01*
Y649742D01*
X436506D01*
Y649589D01*
X436049D01*
Y649437D01*
X426141D01*
Y649589D01*
X425684D01*
Y649894D01*
X425531D01*
Y650199D01*
X425379D01*
Y650351D01*
X425531D01*
Y650504D01*
X425379D01*
Y650656D01*
X425531D01*
Y650809D01*
X425684D01*
Y651114D01*
X425988D01*
Y651266D01*
X435896D01*
Y651418D01*
X436049D01*
Y651571D01*
X435896D01*
Y651723D01*
X436049D01*
Y652180D01*
X436201D01*
Y652333D01*
X436658D01*
Y652485D01*
X436811D01*
Y652333D01*
X436963D01*
Y652485D01*
X437116D01*
Y652333D01*
D02*
G37*
G36*
X430561Y659192D02*
X431018D01*
Y659040D01*
X431476D01*
Y658887D01*
X431628D01*
Y658735D01*
X431781D01*
Y658887D01*
X431933D01*
Y658735D01*
X432085D01*
Y658582D01*
X432543D01*
Y658430D01*
X432695D01*
Y658278D01*
X433152D01*
Y658125D01*
X433610D01*
Y657973D01*
X433762D01*
Y657820D01*
X433915D01*
Y657973D01*
X434067D01*
Y657820D01*
X434219D01*
Y657668D01*
X434677D01*
Y657515D01*
X434982D01*
Y657363D01*
X435286D01*
Y657210D01*
X435744D01*
Y657058D01*
X435896D01*
Y656906D01*
X436049D01*
Y657058D01*
X436201D01*
Y656906D01*
X436506D01*
Y656753D01*
X436811D01*
Y656601D01*
X437116D01*
Y656448D01*
X437420D01*
Y656296D01*
X437573D01*
Y656448D01*
X437725D01*
Y656296D01*
X437878D01*
Y656143D01*
X438335D01*
Y655991D01*
X438640D01*
Y655839D01*
X438945D01*
Y655686D01*
X439097D01*
Y655534D01*
X439249D01*
Y655381D01*
X439402D01*
Y655534D01*
X439554D01*
Y655229D01*
X439859D01*
Y655077D01*
X440012D01*
Y654924D01*
X440164D01*
Y654467D01*
X440317D01*
Y654314D01*
X440469D01*
Y654162D01*
X440621D01*
Y654010D01*
X440469D01*
Y653857D01*
X440621D01*
Y653705D01*
X440774D01*
Y653552D01*
X440621D01*
Y653400D01*
X440774D01*
Y652943D01*
X440621D01*
Y652790D01*
X440774D01*
Y652638D01*
X440621D01*
Y652485D01*
X440774D01*
Y652333D01*
X440621D01*
Y652180D01*
X440469D01*
Y652028D01*
X440164D01*
Y651876D01*
X439554D01*
Y652028D01*
X439402D01*
Y652180D01*
X439249D01*
Y652028D01*
X439097D01*
Y652485D01*
X438945D01*
Y652638D01*
X439097D01*
Y652790D01*
X438945D01*
Y653247D01*
X438792D01*
Y653705D01*
X438640D01*
Y653857D01*
X438487D01*
Y654010D01*
X438335D01*
Y654162D01*
X438182D01*
Y654314D01*
X438030D01*
Y654162D01*
X437878D01*
Y654314D01*
X437725D01*
Y654467D01*
X437268D01*
Y654619D01*
X436506D01*
Y654467D01*
X436353D01*
Y654619D01*
X436201D01*
Y654467D01*
X436049D01*
Y654314D01*
X435591D01*
Y654162D01*
X435286D01*
Y654010D01*
X434982D01*
Y653857D01*
X434829D01*
Y654010D01*
X434677D01*
Y653857D01*
X434524D01*
Y653705D01*
X434372D01*
Y653552D01*
X434219D01*
Y653705D01*
X434067D01*
Y653552D01*
X433915D01*
Y653400D01*
X433457D01*
Y653247D01*
X433000D01*
Y653095D01*
X432848D01*
Y652943D01*
X432695D01*
Y653095D01*
X432543D01*
Y652943D01*
X432390D01*
Y652790D01*
X431933D01*
Y652638D01*
X431781D01*
Y652485D01*
X431323D01*
Y652333D01*
X430866D01*
Y652180D01*
X430714D01*
Y652028D01*
X430561D01*
Y652180D01*
X430409D01*
Y652028D01*
X430256D01*
Y652180D01*
X430104D01*
Y652028D01*
X429952D01*
Y652180D01*
X429799D01*
Y652333D01*
X429647D01*
Y652485D01*
X429494D01*
Y652638D01*
X429342D01*
Y653095D01*
X429494D01*
Y653247D01*
X429342D01*
Y653400D01*
X429494D01*
Y653552D01*
X429647D01*
Y653705D01*
X429799D01*
Y653857D01*
X429952D01*
Y654010D01*
X430104D01*
Y653857D01*
X430256D01*
Y654010D01*
X430561D01*
Y654162D01*
X430866D01*
Y654314D01*
X431018D01*
Y654162D01*
X431171D01*
Y654314D01*
X431323D01*
Y654467D01*
X431781D01*
Y654619D01*
X431933D01*
Y654772D01*
X432390D01*
Y654924D01*
X432848D01*
Y655077D01*
X433000D01*
Y655229D01*
X433152D01*
Y655077D01*
X433305D01*
Y655229D01*
X433610D01*
Y655381D01*
X433915D01*
Y655534D01*
X434372D01*
Y655686D01*
X434219D01*
Y655839D01*
X434067D01*
Y655991D01*
X433610D01*
Y656143D01*
X433152D01*
Y656296D01*
X433000D01*
Y656448D01*
X432543D01*
Y656601D01*
X432085D01*
Y656753D01*
X431628D01*
Y656906D01*
X431476D01*
Y657058D01*
X431323D01*
Y656906D01*
X431171D01*
Y657058D01*
X431018D01*
Y657210D01*
X430866D01*
Y657363D01*
X430714D01*
Y657210D01*
X430561D01*
Y657363D01*
X430256D01*
Y657515D01*
X429952D01*
Y657668D01*
X429799D01*
Y657820D01*
X429647D01*
Y657973D01*
X429494D01*
Y658125D01*
X429342D01*
Y658582D01*
X429494D01*
Y658735D01*
X429342D01*
Y658887D01*
X429494D01*
Y659040D01*
X429647D01*
Y659192D01*
X430104D01*
Y659344D01*
X430561D01*
Y659192D01*
D02*
G37*
G36*
X434067Y640749D02*
X434524D01*
Y640596D01*
X434677D01*
Y640749D01*
X434829D01*
Y640596D01*
X435286D01*
Y640444D01*
X435439D01*
Y640596D01*
X435591D01*
Y640444D01*
X435744D01*
Y640291D01*
X436201D01*
Y640139D01*
X436353D01*
Y639986D01*
X436506D01*
Y639834D01*
X436658D01*
Y639682D01*
X436811D01*
Y639529D01*
X436963D01*
Y639377D01*
X437116D01*
Y639224D01*
X437268D01*
Y639072D01*
X437420D01*
Y638615D01*
X437573D01*
Y638157D01*
X437725D01*
Y636480D01*
X437573D01*
Y636328D01*
X437725D01*
Y636176D01*
X437573D01*
Y636023D01*
X437420D01*
Y635871D01*
X437573D01*
Y635718D01*
X437420D01*
Y635566D01*
X437268D01*
Y635414D01*
X437420D01*
Y635261D01*
X437573D01*
Y635414D01*
X437725D01*
Y635261D01*
X437878D01*
Y635414D01*
X438030D01*
Y635261D01*
X438182D01*
Y635414D01*
X438335D01*
Y635261D01*
X438487D01*
Y635414D01*
X438640D01*
Y635261D01*
X438792D01*
Y635414D01*
X438945D01*
Y635261D01*
X439097D01*
Y635414D01*
X439249D01*
Y635261D01*
X439402D01*
Y635414D01*
X439554D01*
Y635261D01*
X439707D01*
Y635414D01*
X439859D01*
Y635261D01*
X440012D01*
Y635414D01*
X440164D01*
Y635261D01*
X440317D01*
Y635109D01*
X440469D01*
Y634956D01*
X440621D01*
Y634804D01*
X440774D01*
Y634651D01*
X440621D01*
Y634499D01*
X440774D01*
Y634042D01*
X440621D01*
Y633889D01*
X440469D01*
Y633737D01*
X440317D01*
Y633584D01*
X440164D01*
Y633432D01*
X440012D01*
Y633584D01*
X439859D01*
Y633432D01*
X439707D01*
Y633584D01*
X439554D01*
Y633432D01*
X439402D01*
Y633584D01*
X439249D01*
Y633432D01*
X439097D01*
Y633584D01*
X438945D01*
Y633432D01*
X438792D01*
Y633584D01*
X438640D01*
Y633432D01*
X438487D01*
Y633584D01*
X438335D01*
Y633432D01*
X438182D01*
Y633584D01*
X438030D01*
Y633432D01*
X437878D01*
Y633584D01*
X437725D01*
Y633432D01*
X437573D01*
Y633584D01*
X437420D01*
Y633432D01*
X437268D01*
Y633584D01*
X437116D01*
Y633432D01*
X436963D01*
Y633584D01*
X436811D01*
Y633432D01*
X436658D01*
Y633584D01*
X436506D01*
Y633432D01*
X436353D01*
Y633584D01*
X436201D01*
Y633432D01*
X436049D01*
Y633584D01*
X435896D01*
Y633432D01*
X435744D01*
Y633584D01*
X435591D01*
Y633432D01*
X435439D01*
Y633584D01*
X435286D01*
Y633432D01*
X435134D01*
Y633584D01*
X434982D01*
Y633432D01*
X434829D01*
Y633584D01*
X434677D01*
Y633432D01*
X434524D01*
Y633584D01*
X434372D01*
Y633432D01*
X434219D01*
Y633584D01*
X434067D01*
Y633432D01*
X433915D01*
Y633584D01*
X433762D01*
Y633432D01*
X433610D01*
Y633584D01*
X433457D01*
Y633432D01*
X433305D01*
Y633584D01*
X433152D01*
Y633432D01*
X433000D01*
Y633584D01*
X432848D01*
Y633432D01*
X432695D01*
Y633584D01*
X432543D01*
Y633432D01*
X432390D01*
Y633584D01*
X432238D01*
Y633432D01*
X432085D01*
Y633584D01*
X431933D01*
Y633432D01*
X431781D01*
Y633584D01*
X431628D01*
Y633432D01*
X431476D01*
Y633584D01*
X431323D01*
Y633432D01*
X431171D01*
Y633584D01*
X431018D01*
Y633432D01*
X430866D01*
Y633584D01*
X430714D01*
Y633432D01*
X430561D01*
Y633584D01*
X430409D01*
Y633432D01*
X430256D01*
Y633584D01*
X430104D01*
Y633432D01*
X429952D01*
Y633584D01*
X429799D01*
Y633737D01*
X429647D01*
Y633889D01*
X429494D01*
Y634042D01*
X429342D01*
Y634194D01*
X429494D01*
Y634347D01*
X429342D01*
Y634804D01*
X429494D01*
Y634956D01*
X429647D01*
Y635109D01*
X429799D01*
Y635414D01*
X429647D01*
Y635718D01*
X429494D01*
Y636176D01*
X429342D01*
Y638157D01*
X429494D01*
Y638615D01*
X429647D01*
Y639072D01*
X429799D01*
Y639224D01*
X429952D01*
Y639377D01*
X430104D01*
Y639529D01*
X430256D01*
Y639682D01*
X430409D01*
Y639834D01*
X430561D01*
Y639986D01*
X430714D01*
Y640139D01*
X430866D01*
Y640291D01*
X431323D01*
Y640444D01*
X431476D01*
Y640596D01*
X431628D01*
Y640444D01*
X431781D01*
Y640596D01*
X432238D01*
Y640749D01*
X432695D01*
Y640901D01*
X432848D01*
Y640749D01*
X433305D01*
Y640901D01*
X433457D01*
Y640749D01*
X433915D01*
Y640901D01*
X434067D01*
Y640749D01*
D02*
G37*
%LPC*%
G36*
X434524Y655839D02*
X434372D01*
Y655686D01*
X434524D01*
Y655839D01*
D02*
G37*
G36*
X452816Y579625D02*
X452663D01*
Y579473D01*
X452511D01*
Y579625D01*
X452358D01*
Y579473D01*
X451901D01*
Y579321D01*
X451749D01*
Y579473D01*
X451596D01*
Y579321D01*
X451139D01*
Y579473D01*
X450986D01*
Y579321D01*
X450834D01*
Y579473D01*
X450681D01*
Y579321D01*
X450529D01*
Y579168D01*
X450377D01*
Y579016D01*
X450224D01*
Y578254D01*
X450072D01*
Y578101D01*
X449919D01*
Y577949D01*
X449767D01*
Y577491D01*
X449614D01*
Y577339D01*
X449462D01*
Y577187D01*
X449310D01*
Y576729D01*
X449157D01*
Y576882D01*
X449005D01*
Y576424D01*
X448700D01*
Y576120D01*
X449157D01*
Y576272D01*
X449310D01*
Y576120D01*
X449462D01*
Y576272D01*
X449614D01*
Y576120D01*
X449767D01*
Y576272D01*
X449919D01*
Y576424D01*
X450377D01*
Y576577D01*
X450681D01*
Y576729D01*
X450986D01*
Y576882D01*
X451139D01*
Y577034D01*
X451291D01*
Y577187D01*
X451444D01*
Y577339D01*
X451596D01*
Y577491D01*
X451749D01*
Y577644D01*
X451901D01*
Y577796D01*
X452053D01*
Y577949D01*
X452206D01*
Y578101D01*
X452358D01*
Y578254D01*
X452511D01*
Y578711D01*
X452663D01*
Y578863D01*
X452816D01*
Y579016D01*
X452663D01*
Y579168D01*
X452816D01*
Y579625D01*
D02*
G37*
G36*
X446718Y584655D02*
X446566D01*
Y584503D01*
X446261D01*
Y584351D01*
X446109D01*
Y584503D01*
X445956D01*
Y584351D01*
X445804D01*
Y584503D01*
X445651D01*
Y584351D01*
X445499D01*
Y584198D01*
X445347D01*
Y584351D01*
X445194D01*
Y584198D01*
X443517D01*
Y584046D01*
X443365D01*
Y583893D01*
X443517D01*
Y583741D01*
X443365D01*
Y583893D01*
X443213D01*
Y583741D01*
X443365D01*
Y583588D01*
X443213D01*
Y583131D01*
X443060D01*
Y582979D01*
X442908D01*
Y582826D01*
X443060D01*
Y582674D01*
X442908D01*
Y582522D01*
X442755D01*
Y582369D01*
X442603D01*
Y581912D01*
X442450D01*
Y581759D01*
X442298D01*
Y581607D01*
X442450D01*
Y581455D01*
X442603D01*
Y580997D01*
X442908D01*
Y580692D01*
X443060D01*
Y580540D01*
X443213D01*
Y580083D01*
X443365D01*
Y579930D01*
X443517D01*
Y579473D01*
X443670D01*
Y579321D01*
X443822D01*
Y579168D01*
X443670D01*
Y579016D01*
X443822D01*
Y578558D01*
X443975D01*
Y578406D01*
X443822D01*
Y578254D01*
X443975D01*
Y577796D01*
X444127D01*
Y577644D01*
X443975D01*
Y577491D01*
X444127D01*
Y577339D01*
X443975D01*
Y577187D01*
X444127D01*
Y577034D01*
X443975D01*
Y576882D01*
X444127D01*
Y576729D01*
X443975D01*
Y576577D01*
X444127D01*
Y576424D01*
X444584D01*
Y576577D01*
X444737D01*
Y576424D01*
X444889D01*
Y576577D01*
X445042D01*
Y576424D01*
X445194D01*
Y576577D01*
X445651D01*
Y576729D01*
X446109D01*
Y576882D01*
X446261D01*
Y577034D01*
X446413D01*
Y577187D01*
X446566D01*
Y577034D01*
X446718D01*
Y577187D01*
X446871D01*
Y577339D01*
X447023D01*
Y577491D01*
X447176D01*
Y577644D01*
X447328D01*
Y577796D01*
X447481D01*
Y577949D01*
X447633D01*
Y578101D01*
X447785D01*
Y578254D01*
X447938D01*
Y578406D01*
X448090D01*
Y578558D01*
X448243D01*
Y579016D01*
X448395D01*
Y579168D01*
X448548D01*
Y579930D01*
X448700D01*
Y580387D01*
X448852D01*
Y580540D01*
X448700D01*
Y580692D01*
X448852D01*
Y580845D01*
X448700D01*
Y580997D01*
X448852D01*
Y581150D01*
X448700D01*
Y581302D01*
X448852D01*
Y581455D01*
X448700D01*
Y581607D01*
X448548D01*
Y581759D01*
X448700D01*
Y581912D01*
X448548D01*
Y582369D01*
X448395D01*
Y582522D01*
X448243D01*
Y582674D01*
X448395D01*
Y582826D01*
X448243D01*
Y582979D01*
X448090D01*
Y583131D01*
X448243D01*
Y583284D01*
X447938D01*
Y583588D01*
X447785D01*
Y583741D01*
X447633D01*
Y583893D01*
X447481D01*
Y584046D01*
X447328D01*
Y584198D01*
X447176D01*
Y584351D01*
X447023D01*
Y584503D01*
X446718D01*
Y584655D01*
D02*
G37*
G36*
X451749Y590143D02*
X450681D01*
Y589990D01*
X450529D01*
Y589838D01*
X450681D01*
Y589686D01*
X450529D01*
Y588923D01*
X450377D01*
Y588466D01*
X450224D01*
Y588009D01*
X450072D01*
Y587856D01*
X449919D01*
Y587399D01*
X449767D01*
Y587247D01*
X449614D01*
Y586790D01*
X449462D01*
Y586637D01*
X449310D01*
Y586485D01*
X449157D01*
Y586332D01*
X449005D01*
Y586180D01*
X448852D01*
Y586027D01*
X448700D01*
Y585875D01*
X448548D01*
Y585723D01*
X448395D01*
Y585570D01*
X448700D01*
Y585265D01*
X449005D01*
Y584960D01*
X449157D01*
Y584808D01*
X449310D01*
Y584655D01*
X449462D01*
Y584503D01*
X449614D01*
Y584046D01*
X449767D01*
Y583893D01*
X449919D01*
Y583741D01*
X450072D01*
Y583284D01*
X450224D01*
Y582826D01*
X450377D01*
Y582674D01*
X450529D01*
Y582522D01*
X450377D01*
Y582369D01*
X450529D01*
Y581302D01*
X451291D01*
Y581150D01*
X451444D01*
Y581302D01*
X451901D01*
Y581455D01*
X452053D01*
Y581302D01*
X452206D01*
Y581455D01*
X452358D01*
Y581302D01*
X452511D01*
Y581455D01*
X452663D01*
Y581607D01*
X453120D01*
Y581759D01*
X453425D01*
Y581912D01*
X453730D01*
Y582064D01*
X453882D01*
Y582217D01*
X454035D01*
Y582369D01*
X454187D01*
Y582522D01*
X454340D01*
Y582674D01*
X454492D01*
Y582826D01*
X454645D01*
Y582979D01*
X454797D01*
Y583131D01*
X454949D01*
Y583588D01*
X455102D01*
Y583741D01*
X455254D01*
Y583893D01*
X455407D01*
Y584046D01*
X455254D01*
Y584198D01*
X455407D01*
Y584351D01*
X455559D01*
Y585113D01*
X455712D01*
Y585265D01*
X455559D01*
Y585418D01*
X455712D01*
Y585570D01*
X455559D01*
Y585723D01*
X455712D01*
Y585875D01*
X455559D01*
Y586027D01*
X455712D01*
Y586180D01*
X455559D01*
Y586942D01*
X455407D01*
Y587399D01*
X455254D01*
Y587552D01*
X455102D01*
Y587704D01*
X455254D01*
Y587856D01*
X455102D01*
Y588009D01*
X454949D01*
Y588161D01*
X454797D01*
Y588314D01*
X454645D01*
Y588619D01*
X454340D01*
Y588923D01*
X454035D01*
Y589076D01*
X453882D01*
Y589228D01*
X453730D01*
Y589381D01*
X453578D01*
Y589533D01*
X453425D01*
Y589686D01*
X453273D01*
Y589533D01*
X453120D01*
Y589686D01*
X452968D01*
Y589838D01*
X452511D01*
Y589990D01*
X451749D01*
Y590143D01*
D02*
G37*
G36*
X448548Y576272D02*
X448395D01*
Y576120D01*
X448548D01*
Y575967D01*
X448700D01*
Y576120D01*
X448548D01*
Y576272D01*
D02*
G37*
G36*
X446109Y574748D02*
X445651D01*
Y574595D01*
X445499D01*
Y574748D01*
X445347D01*
Y574595D01*
X445194D01*
Y574748D01*
X445042D01*
Y574595D01*
X443975D01*
Y574748D01*
X443822D01*
Y574595D01*
X443365D01*
Y574291D01*
X443213D01*
Y573986D01*
X443060D01*
Y573833D01*
X442908D01*
Y573376D01*
X442755D01*
Y573223D01*
X442603D01*
Y573071D01*
X443060D01*
Y573223D01*
X443213D01*
Y573071D01*
X443365D01*
Y573223D01*
X443517D01*
Y573071D01*
X443670D01*
Y573223D01*
X444127D01*
Y573376D01*
X444280D01*
Y573528D01*
X444432D01*
Y573376D01*
X444584D01*
Y573528D01*
X444737D01*
Y573681D01*
X444889D01*
Y573833D01*
X445194D01*
Y574138D01*
X445347D01*
Y573986D01*
X445499D01*
Y574138D01*
X445651D01*
Y574291D01*
X445804D01*
Y574443D01*
X445956D01*
Y574595D01*
X446109D01*
Y574748D01*
D02*
G37*
G36*
X440926Y580235D02*
X440774D01*
Y580083D01*
X440621D01*
Y579930D01*
X440469D01*
Y579778D01*
X440164D01*
Y579625D01*
X439859D01*
Y579473D01*
X439554D01*
Y579321D01*
X439249D01*
Y579168D01*
X438792D01*
Y579016D01*
X438640D01*
Y578863D01*
X438487D01*
Y579016D01*
X438335D01*
Y578863D01*
X438182D01*
Y579016D01*
X438030D01*
Y578863D01*
X437878D01*
Y579016D01*
X437725D01*
Y578863D01*
X437268D01*
Y578711D01*
X437116D01*
Y578863D01*
X436963D01*
Y578711D01*
X436811D01*
Y578863D01*
X436658D01*
Y578711D01*
X436506D01*
Y578863D01*
X436353D01*
Y578711D01*
X436201D01*
Y578863D01*
X436049D01*
Y578711D01*
X435896D01*
Y578863D01*
X435439D01*
Y579016D01*
X435286D01*
Y578863D01*
X435134D01*
Y579016D01*
X434982D01*
Y578863D01*
X434829D01*
Y579016D01*
X434677D01*
Y579168D01*
X434219D01*
Y579321D01*
X433762D01*
Y578863D01*
X433610D01*
Y578711D01*
X433457D01*
Y577949D01*
X433305D01*
Y576882D01*
X433457D01*
Y576729D01*
X433305D01*
Y576577D01*
X433457D01*
Y576424D01*
X433305D01*
Y576272D01*
X433457D01*
Y575815D01*
X433610D01*
Y575358D01*
X433762D01*
Y575205D01*
X433915D01*
Y575053D01*
X434067D01*
Y574900D01*
X433915D01*
Y574748D01*
X434067D01*
Y574595D01*
X434219D01*
Y574443D01*
X434372D01*
Y574291D01*
X434524D01*
Y574138D01*
X434677D01*
Y573986D01*
X434829D01*
Y573833D01*
X434982D01*
Y573681D01*
X435134D01*
Y573528D01*
X435286D01*
Y573376D01*
X435439D01*
Y573528D01*
X435591D01*
Y573376D01*
X435744D01*
Y573223D01*
X435896D01*
Y573071D01*
X436049D01*
Y573223D01*
X436201D01*
Y573071D01*
X436353D01*
Y572919D01*
X437116D01*
Y572766D01*
X437268D01*
Y572919D01*
X437420D01*
Y572766D01*
X437878D01*
Y572919D01*
X438030D01*
Y572766D01*
X438182D01*
Y572919D01*
X438335D01*
Y572766D01*
X438487D01*
Y572919D01*
X438945D01*
Y573071D01*
X439402D01*
Y573223D01*
X439707D01*
Y573376D01*
X440012D01*
Y573528D01*
X440164D01*
Y573681D01*
X440317D01*
Y573833D01*
X440621D01*
Y573986D01*
X440926D01*
Y574291D01*
X441079D01*
Y574443D01*
X441231D01*
Y574748D01*
X441384D01*
Y574900D01*
X441536D01*
Y575053D01*
X441688D01*
Y575205D01*
X441536D01*
Y575358D01*
X441688D01*
Y575510D01*
X441841D01*
Y575967D01*
X441993D01*
Y576120D01*
X442146D01*
Y576272D01*
X441993D01*
Y576424D01*
X442146D01*
Y578101D01*
X441993D01*
Y578254D01*
X442146D01*
Y578406D01*
X441993D01*
Y578558D01*
X441841D01*
Y579016D01*
X441688D01*
Y579168D01*
X441536D01*
Y579625D01*
X441384D01*
Y579778D01*
X441231D01*
Y579930D01*
X441079D01*
Y580083D01*
X440926D01*
Y580235D01*
D02*
G37*
G36*
X443975Y576577D02*
X443822D01*
Y576424D01*
X443975D01*
Y576577D01*
D02*
G37*
G36*
X449005Y595325D02*
X448548D01*
Y595173D01*
X448700D01*
Y595020D01*
X448852D01*
Y594868D01*
X449005D01*
Y594716D01*
X449157D01*
Y594563D01*
X449310D01*
Y594106D01*
X449462D01*
Y593954D01*
X449614D01*
Y593801D01*
X449767D01*
Y593649D01*
X449919D01*
Y593191D01*
X450072D01*
Y593039D01*
X450224D01*
Y592582D01*
X450377D01*
Y592124D01*
X450529D01*
Y591972D01*
X450681D01*
Y592124D01*
X450834D01*
Y591972D01*
X450986D01*
Y592124D01*
X451139D01*
Y591972D01*
X451291D01*
Y592124D01*
X451444D01*
Y591972D01*
X451596D01*
Y592124D01*
X451749D01*
Y591972D01*
X452206D01*
Y591819D01*
X452358D01*
Y591972D01*
X452511D01*
Y591819D01*
X452968D01*
Y591972D01*
X452816D01*
Y592429D01*
X452663D01*
Y592582D01*
X452511D01*
Y593039D01*
X452358D01*
Y593191D01*
X452206D01*
Y593344D01*
X452053D01*
Y593496D01*
X451901D01*
Y593801D01*
X451596D01*
Y594106D01*
X451291D01*
Y594411D01*
X450986D01*
Y594563D01*
X450834D01*
Y594716D01*
X450681D01*
Y594868D01*
X450529D01*
Y594716D01*
X450377D01*
Y594868D01*
X450224D01*
Y595020D01*
X449767D01*
Y595173D01*
X449005D01*
Y595325D01*
D02*
G37*
G36*
X430256Y607367D02*
X428885D01*
Y607215D01*
X428427D01*
Y607062D01*
X428275D01*
Y606910D01*
X428122D01*
Y606757D01*
X427970D01*
Y606300D01*
X427817D01*
Y606148D01*
X427970D01*
Y605995D01*
X427817D01*
Y605538D01*
X427970D01*
Y605386D01*
X427817D01*
Y604928D01*
X427970D01*
Y604776D01*
X427817D01*
Y604319D01*
X427970D01*
Y604166D01*
X427817D01*
Y603709D01*
X427970D01*
Y603556D01*
X428122D01*
Y603709D01*
X428275D01*
Y603556D01*
X428427D01*
Y603709D01*
X428580D01*
Y603556D01*
X428732D01*
Y603709D01*
X428885D01*
Y603556D01*
X429037D01*
Y603709D01*
X429189D01*
Y603556D01*
X429342D01*
Y603709D01*
X429494D01*
Y603556D01*
X429647D01*
Y603709D01*
X429799D01*
Y603556D01*
X429952D01*
Y603709D01*
X430104D01*
Y603556D01*
X430256D01*
Y603709D01*
X430409D01*
Y603556D01*
X430561D01*
Y603709D01*
X430714D01*
Y603556D01*
X430866D01*
Y603709D01*
X431018D01*
Y603556D01*
X431171D01*
Y603709D01*
X431323D01*
Y603861D01*
X431171D01*
Y604014D01*
X431323D01*
Y604166D01*
X431171D01*
Y604319D01*
X431323D01*
Y604471D01*
X431171D01*
Y604623D01*
X431323D01*
Y604776D01*
X431171D01*
Y604928D01*
X431323D01*
Y605081D01*
X431171D01*
Y605233D01*
X431323D01*
Y605386D01*
X431171D01*
Y605538D01*
X431323D01*
Y605690D01*
X431171D01*
Y605843D01*
X431323D01*
Y605995D01*
X431171D01*
Y606757D01*
X431018D01*
Y606910D01*
X430866D01*
Y607062D01*
X430561D01*
Y607215D01*
X430256D01*
Y607367D01*
D02*
G37*
G36*
X437725Y598679D02*
X437573D01*
Y598526D01*
X436811D01*
Y598374D01*
X436658D01*
Y598526D01*
X436506D01*
Y598374D01*
X436201D01*
Y598222D01*
X435896D01*
Y598069D01*
X435591D01*
Y597917D01*
X435286D01*
Y597764D01*
X435134D01*
Y597612D01*
X434982D01*
Y597459D01*
X434677D01*
Y597155D01*
X434372D01*
Y596850D01*
X434219D01*
Y596697D01*
X434067D01*
Y596545D01*
X433915D01*
Y596392D01*
X433762D01*
Y595935D01*
X433610D01*
Y595783D01*
X433457D01*
Y595020D01*
X433305D01*
Y594868D01*
X433457D01*
Y594716D01*
X433305D01*
Y593954D01*
X433457D01*
Y593801D01*
X433305D01*
Y593344D01*
X433457D01*
Y593191D01*
X433305D01*
Y593039D01*
X433457D01*
Y592582D01*
X433610D01*
Y592429D01*
X433762D01*
Y591972D01*
X433915D01*
Y592124D01*
X434372D01*
Y592277D01*
X434829D01*
Y592429D01*
X435439D01*
Y592582D01*
X436353D01*
Y592734D01*
X436506D01*
Y592582D01*
X436658D01*
Y592734D01*
X436811D01*
Y592582D01*
X436963D01*
Y592734D01*
X437116D01*
Y592582D01*
X437573D01*
Y592429D01*
X437725D01*
Y592582D01*
X437878D01*
Y592429D01*
X438030D01*
Y592582D01*
X438182D01*
Y592429D01*
X438335D01*
Y592277D01*
X438487D01*
Y592429D01*
X438640D01*
Y592277D01*
X439097D01*
Y592124D01*
X439249D01*
Y591972D01*
X439402D01*
Y592124D01*
X439554D01*
Y591972D01*
X439707D01*
Y591819D01*
X440164D01*
Y591667D01*
X440317D01*
Y591515D01*
X440469D01*
Y591362D01*
X440774D01*
Y591057D01*
X440926D01*
Y591210D01*
X441079D01*
Y591362D01*
X441231D01*
Y591515D01*
X441384D01*
Y591667D01*
X441536D01*
Y592124D01*
X441688D01*
Y592277D01*
X441841D01*
Y592734D01*
X441993D01*
Y593191D01*
X442146D01*
Y593344D01*
X441993D01*
Y593496D01*
X442146D01*
Y594868D01*
X441993D01*
Y595020D01*
X442146D01*
Y595173D01*
X441993D01*
Y595325D01*
X441841D01*
Y595478D01*
X441993D01*
Y595630D01*
X441841D01*
Y595935D01*
X441688D01*
Y596240D01*
X441536D01*
Y596392D01*
X441384D01*
Y596697D01*
X441231D01*
Y597002D01*
X441079D01*
Y597155D01*
X440926D01*
Y597307D01*
X440774D01*
Y597459D01*
X440621D01*
Y597612D01*
X440317D01*
Y597917D01*
X440164D01*
Y597764D01*
X440012D01*
Y597917D01*
X439859D01*
Y598069D01*
X439707D01*
Y598222D01*
X439554D01*
Y598069D01*
X439402D01*
Y598222D01*
X439249D01*
Y598374D01*
X439097D01*
Y598526D01*
X438945D01*
Y598374D01*
X438792D01*
Y598526D01*
X438640D01*
Y598374D01*
X438487D01*
Y598526D01*
X437725D01*
Y598679D01*
D02*
G37*
G36*
X433915Y639072D02*
X433762D01*
Y638919D01*
X433610D01*
Y639072D01*
X433457D01*
Y638919D01*
X433305D01*
Y639072D01*
X433152D01*
Y638919D01*
X432695D01*
Y638767D01*
X432238D01*
Y638615D01*
X432085D01*
Y638767D01*
X431933D01*
Y638615D01*
X431781D01*
Y638462D01*
X431628D01*
Y638310D01*
X431476D01*
Y638157D01*
X431323D01*
Y638005D01*
X431171D01*
Y637852D01*
X431018D01*
Y637700D01*
X431171D01*
Y637547D01*
X431018D01*
Y636785D01*
X431171D01*
Y636633D01*
X431018D01*
Y636480D01*
X431171D01*
Y636328D01*
X431323D01*
Y635871D01*
X431476D01*
Y635718D01*
X431628D01*
Y635566D01*
X431781D01*
Y635718D01*
X431933D01*
Y635566D01*
X432085D01*
Y635414D01*
X432543D01*
Y635261D01*
X432695D01*
Y635414D01*
X432848D01*
Y635261D01*
X433305D01*
Y635414D01*
X433457D01*
Y635261D01*
X433915D01*
Y635414D01*
X434067D01*
Y635261D01*
X434219D01*
Y635414D01*
X434372D01*
Y635261D01*
X434524D01*
Y635414D01*
X434982D01*
Y635566D01*
X435134D01*
Y635718D01*
X435286D01*
Y635566D01*
X435439D01*
Y635871D01*
X435744D01*
Y636328D01*
X435896D01*
Y636480D01*
X436049D01*
Y636633D01*
X435896D01*
Y636785D01*
X436049D01*
Y637547D01*
X435896D01*
Y638005D01*
X435744D01*
Y638157D01*
X435591D01*
Y638310D01*
X435439D01*
Y638462D01*
X435286D01*
Y638615D01*
X435134D01*
Y638767D01*
X434982D01*
Y638615D01*
X434829D01*
Y638767D01*
X434677D01*
Y638919D01*
X434524D01*
Y638767D01*
X434372D01*
Y638919D01*
X433915D01*
Y639072D01*
D02*
G37*
G36*
X434524Y646998D02*
X434372D01*
Y646845D01*
X434219D01*
Y646998D01*
X434067D01*
Y646845D01*
X433915D01*
Y646998D01*
X433762D01*
Y646845D01*
X433610D01*
Y646998D01*
X433457D01*
Y646845D01*
X433305D01*
Y646998D01*
X432848D01*
Y646845D01*
X432695D01*
Y646998D01*
X432543D01*
Y646845D01*
X432085D01*
Y646693D01*
X431933D01*
Y646541D01*
X431781D01*
Y646693D01*
X431628D01*
Y646388D01*
X431323D01*
Y645931D01*
X431171D01*
Y645779D01*
X431018D01*
Y644712D01*
X431171D01*
Y644559D01*
X431018D01*
Y644407D01*
X431171D01*
Y644254D01*
X431323D01*
Y644102D01*
X431476D01*
Y643949D01*
X431628D01*
Y643797D01*
X431781D01*
Y643645D01*
X432238D01*
Y643492D01*
X432695D01*
Y643340D01*
X434372D01*
Y643492D01*
X434829D01*
Y643645D01*
X435286D01*
Y643797D01*
X435439D01*
Y643949D01*
X435591D01*
Y644102D01*
X435744D01*
Y644254D01*
X435896D01*
Y644712D01*
X436049D01*
Y645779D01*
X435896D01*
Y645931D01*
X435744D01*
Y646388D01*
X435439D01*
Y646693D01*
X435286D01*
Y646541D01*
X435134D01*
Y646693D01*
X434982D01*
Y646845D01*
X434524D01*
Y646998D01*
D02*
G37*
G36*
X445499Y594868D02*
X445347D01*
Y594716D01*
X445194D01*
Y594868D01*
X444127D01*
Y594716D01*
X443975D01*
Y594563D01*
X444127D01*
Y594411D01*
X443975D01*
Y594258D01*
X444127D01*
Y594106D01*
X443975D01*
Y593954D01*
X444127D01*
Y593801D01*
X443975D01*
Y593649D01*
X444127D01*
Y593496D01*
X443975D01*
Y593039D01*
X443822D01*
Y592887D01*
X443975D01*
Y592734D01*
X443822D01*
Y592277D01*
X443670D01*
Y592124D01*
X443822D01*
Y591972D01*
X443670D01*
Y591819D01*
X443517D01*
Y591362D01*
X443365D01*
Y591210D01*
X443213D01*
Y590753D01*
X443060D01*
Y590600D01*
X442908D01*
Y590448D01*
X442755D01*
Y590295D01*
X442603D01*
Y590143D01*
X442450D01*
Y589990D01*
X442298D01*
Y589533D01*
X442450D01*
Y589381D01*
X442603D01*
Y589228D01*
X442755D01*
Y589076D01*
X442908D01*
Y588619D01*
X443060D01*
Y588466D01*
X443213D01*
Y588314D01*
X443060D01*
Y588161D01*
X443213D01*
Y587704D01*
X443365D01*
Y587552D01*
X443517D01*
Y587399D01*
X443365D01*
Y587247D01*
X443517D01*
Y586485D01*
X443670D01*
Y586332D01*
X443517D01*
Y586180D01*
X443670D01*
Y586027D01*
X443822D01*
Y586180D01*
X443975D01*
Y586027D01*
X444432D01*
Y586180D01*
X444584D01*
Y586027D01*
X444737D01*
Y586180D01*
X445194D01*
Y586332D01*
X445347D01*
Y586180D01*
X445499D01*
Y586332D01*
X445651D01*
Y586180D01*
X445804D01*
Y586332D01*
X445956D01*
Y586485D01*
X446109D01*
Y586637D01*
X446261D01*
Y586485D01*
X446413D01*
Y586637D01*
X446566D01*
Y586790D01*
X446718D01*
Y586942D01*
X446871D01*
Y586790D01*
X447023D01*
Y587094D01*
X447328D01*
Y587247D01*
X447481D01*
Y587399D01*
X447633D01*
Y587704D01*
X447938D01*
Y588161D01*
X448090D01*
Y588314D01*
X448243D01*
Y588771D01*
X448395D01*
Y588923D01*
X448548D01*
Y589381D01*
X448700D01*
Y589533D01*
X448548D01*
Y589686D01*
X448700D01*
Y590143D01*
X448852D01*
Y590295D01*
X448700D01*
Y590448D01*
X448852D01*
Y590600D01*
X448700D01*
Y590753D01*
X448852D01*
Y590905D01*
X448700D01*
Y591057D01*
X448852D01*
Y591210D01*
X448700D01*
Y591362D01*
X448548D01*
Y591819D01*
X448395D01*
Y591972D01*
X448548D01*
Y592124D01*
X448395D01*
Y592277D01*
X448243D01*
Y592734D01*
X448090D01*
Y592887D01*
X447938D01*
Y593039D01*
X447785D01*
Y593191D01*
X447633D01*
Y593649D01*
X447328D01*
Y593954D01*
X447176D01*
Y593801D01*
X447023D01*
Y593954D01*
X446871D01*
Y594106D01*
X446718D01*
Y594258D01*
X446566D01*
Y594411D01*
X446109D01*
Y594563D01*
X445956D01*
Y594716D01*
X445499D01*
Y594868D01*
D02*
G37*
G36*
X443213Y598374D02*
X443060D01*
Y598222D01*
X442908D01*
Y598374D01*
X442450D01*
Y598222D01*
X442603D01*
Y598069D01*
X442755D01*
Y597917D01*
X442908D01*
Y597459D01*
X443060D01*
Y597307D01*
X443213D01*
Y597155D01*
X443365D01*
Y597002D01*
X443517D01*
Y596850D01*
X443670D01*
Y596697D01*
X443822D01*
Y596850D01*
X444280D01*
Y596697D01*
X444432D01*
Y596850D01*
X444889D01*
Y596697D01*
X445651D01*
Y596545D01*
X445804D01*
Y596697D01*
X445956D01*
Y596545D01*
X446109D01*
Y596697D01*
X445956D01*
Y596850D01*
X445804D01*
Y597002D01*
X445651D01*
Y597155D01*
X445499D01*
Y597307D01*
X445347D01*
Y597459D01*
X445194D01*
Y597612D01*
X444889D01*
Y597764D01*
X444584D01*
Y597917D01*
X444127D01*
Y598069D01*
X443975D01*
Y598222D01*
X443822D01*
Y598069D01*
X443670D01*
Y598222D01*
X443213D01*
Y598374D01*
D02*
G37*
%LPD*%
G36*
X449614Y594106D02*
X449462D01*
Y594258D01*
X449614D01*
Y594106D01*
D02*
G37*
G36*
X443213Y597459D02*
X443060D01*
Y597612D01*
X443213D01*
Y597459D01*
D02*
G37*
D19*
X584440Y711720D02*
G03*
X584440Y751320I15000J19800D01*
G01*
X568720D02*
G03*
X568720Y711720I-15000J-19800D01*
G01*
X584440Y711720D02*
Y751320D01*
X568720Y711720D02*
Y751320D01*
X550000Y665740D02*
Y673360D01*
Y665740D02*
X600800D01*
Y680980D01*
X550000D02*
X600800D01*
X550000Y673360D02*
Y680980D01*
X600800Y673360D02*
X603086D01*
X547714D02*
X550000D01*
X392400Y600680D02*
Y628680D01*
Y600680D02*
X420400D01*
Y628680D01*
X392400D02*
X420400D01*
X569860Y789520D02*
X622860D01*
X569860Y761520D02*
X622860D01*
Y789520D01*
X569860Y823240D02*
X622860D01*
X569860Y795240D02*
X622860D01*
Y823240D01*
X642620Y736600D02*
X650240D01*
X642620Y685800D02*
Y736600D01*
Y685800D02*
X657860D01*
Y736600D01*
X650240D02*
X657860D01*
X650240Y683514D02*
Y685800D01*
Y736600D02*
Y738886D01*
X600800Y693680D02*
Y701300D01*
X550000D02*
X600800D01*
X550000Y686060D02*
Y701300D01*
Y686060D02*
X600800D01*
Y693680D01*
X547714D02*
X550000D01*
X600800D02*
X603086D01*
X685930Y647180D02*
X805930D01*
Y577180D02*
Y647180D01*
X685930Y577180D02*
X805930D01*
X685930D02*
Y647180D01*
X500000Y660332D02*
Y656333D01*
X501333Y655000D01*
X502666Y656333D01*
X503999Y655000D01*
X505332Y656333D01*
Y660332D01*
X507997D02*
Y656333D01*
X509330Y655000D01*
X510663Y656333D01*
X511996Y655000D01*
X513329Y656333D01*
Y660332D01*
X515995D02*
Y656333D01*
X517328Y655000D01*
X518661Y656333D01*
X519994Y655000D01*
X521326Y656333D01*
Y660332D01*
X523992Y655000D02*
Y656333D01*
X525325D01*
Y655000D01*
X523992D01*
X530657Y652334D02*
Y660332D01*
X534655D01*
X535988Y658999D01*
Y656333D01*
X534655Y655000D01*
X530657D01*
X538654D02*
X541320D01*
X539987D01*
Y660332D01*
X538654D01*
X545319Y658999D02*
X550650D01*
X553316Y655000D02*
X557315D01*
X558648Y656333D01*
X557315Y657666D01*
X554649D01*
X553316Y658999D01*
X554649Y660332D01*
X558648D01*
X561314D02*
Y656333D01*
X562646Y655000D01*
X566645D01*
Y660332D01*
X569311Y652334D02*
Y660332D01*
X573310D01*
X574643Y658999D01*
Y656333D01*
X573310Y655000D01*
X569311D01*
X577308Y652334D02*
Y660332D01*
X581307D01*
X582640Y658999D01*
Y656333D01*
X581307Y655000D01*
X577308D01*
X585306D02*
X587972D01*
X586639D01*
Y662997D01*
X585306D01*
X591970Y660332D02*
Y656333D01*
X593303Y655000D01*
X597302D01*
Y653667D01*
X595969Y652334D01*
X594636D01*
X597302Y655000D02*
Y660332D01*
X599968Y655000D02*
Y656333D01*
X601301D01*
Y655000D01*
X599968D01*
X611964Y660332D02*
X607965D01*
X606632Y658999D01*
Y656333D01*
X607965Y655000D01*
X611964D01*
X615963D02*
X618628D01*
X619961Y656333D01*
Y658999D01*
X618628Y660332D01*
X615963D01*
X614630Y658999D01*
Y656333D01*
X615963Y655000D01*
X622627D02*
Y660332D01*
X623960D01*
X625293Y658999D01*
Y655000D01*
Y658999D01*
X626626Y660332D01*
X627959Y658999D01*
Y655000D01*
D20*
X407650Y635180D02*
G03*
X407650Y635180I-1250J0D01*
G01*
D21*
X679950Y635100D02*
G03*
X679950Y635100I-25000J0D01*
G01*
X379460Y679954D02*
Y811204D01*
Y679954D02*
X519460D01*
Y811204D01*
X379460D02*
X519460D01*
X528960Y646090D02*
X533210Y646090D01*
X463210D02*
X466960D01*
X484210D02*
X511460D01*
X528710Y576090D02*
X533210Y576090D01*
X463210D02*
X466960D01*
X483960D02*
X511460D01*
X533210D02*
Y646090D01*
X463210Y576090D02*
Y646090D01*
X547090Y576590D02*
X551340Y576590D01*
X613340Y576590D02*
X617090D01*
X568840D02*
X596090D01*
X547090Y646590D02*
X551590Y646590D01*
X613340Y646590D02*
X617090D01*
X568840D02*
X596340D01*
X547090Y576590D02*
Y646590D01*
X617090Y576590D02*
Y646590D01*
X808870Y680470D02*
Y811720D01*
X668870D02*
X808870D01*
X668870Y680470D02*
Y811720D01*
Y680470D02*
X808870D01*
X672700Y625351D02*
X670034D01*
X671367Y624018D02*
Y626684D01*
D22*
X537172Y602059D02*
Y599726D01*
X538339Y598560D01*
X543004D01*
X544170Y599726D01*
Y602059D01*
X543004Y603225D01*
X538339D01*
X537172Y602059D01*
Y610223D02*
Y605558D01*
X540671D01*
Y607891D01*
Y605558D01*
X544170D01*
X537172Y617221D02*
Y612556D01*
X540671D01*
Y614888D01*
Y612556D01*
X544170D01*
X620172Y607849D02*
Y605516D01*
X621339Y604350D01*
X626004D01*
X627170Y605516D01*
Y607849D01*
X626004Y609015D01*
X621339D01*
X620172Y607849D01*
X627170Y611348D02*
X620172D01*
X627170Y616013D01*
X620172D01*
X652675Y650451D02*
X651509Y651618D01*
X649176D01*
X648010Y650451D01*
Y645786D01*
X649176Y644620D01*
X651509D01*
X652675Y645786D01*
X655008Y644620D02*
X657340D01*
X656174D01*
Y651618D01*
X655008Y650451D01*
X591000Y777998D02*
Y771000D01*
X594499D01*
X595665Y772166D01*
Y776831D01*
X594499Y777998D01*
X591000D01*
X597998Y771000D02*
X600330D01*
X599164D01*
Y777998D01*
X597998Y776831D01*
X588000Y811998D02*
Y805000D01*
X591499D01*
X592665Y806166D01*
Y810831D01*
X591499Y811998D01*
X588000D01*
X599663Y805000D02*
X594998D01*
X599663Y809665D01*
Y810831D01*
X598497Y811998D01*
X596164D01*
X594998Y810831D01*
X389499Y668998D02*
X387166D01*
X386000Y667831D01*
Y663166D01*
X387166Y662000D01*
X389499D01*
X390665Y663166D01*
Y667831D01*
X389499Y668998D01*
X392998D02*
Y663166D01*
X394164Y662000D01*
X396497D01*
X397663Y663166D01*
Y668998D01*
X399995D02*
X404661D01*
X402328D01*
Y662000D01*
X400080Y587200D02*
Y594198D01*
X403579D01*
X404745Y593032D01*
Y590699D01*
X403579Y589533D01*
X400080D01*
X407078Y587200D02*
X409410D01*
X408244D01*
Y594198D01*
X407078Y593032D01*
X617834Y731665D02*
X613168D01*
X612002Y730499D01*
Y728166D01*
X613168Y727000D01*
X617834D01*
X619000Y728166D01*
Y730499D01*
X616667Y729333D02*
X619000Y731665D01*
Y730499D02*
X617834Y731665D01*
X619000Y738663D02*
Y733998D01*
X614335Y738663D01*
X613168D01*
X612002Y737497D01*
Y735164D01*
X613168Y733998D01*
X538834Y732665D02*
X534169D01*
X533002Y731499D01*
Y729166D01*
X534169Y728000D01*
X538834D01*
X540000Y729166D01*
Y731499D01*
X537667Y730333D02*
X540000Y732665D01*
Y731499D02*
X538834Y732665D01*
X540000Y734998D02*
Y737330D01*
Y736164D01*
X533002D01*
X534169Y734998D01*
X570280Y669880D02*
Y676878D01*
X573779D01*
X574945Y675712D01*
Y673379D01*
X573779Y672213D01*
X570280D01*
X572612D02*
X574945Y669880D01*
X577277D02*
X579610D01*
X578444D01*
Y676878D01*
X577277Y675712D01*
X655000Y703000D02*
X648002D01*
Y706499D01*
X649169Y707665D01*
X651501D01*
X652667Y706499D01*
Y703000D01*
Y705333D02*
X655000Y707665D01*
X649169Y709998D02*
X648002Y711164D01*
Y713497D01*
X649169Y714663D01*
X650335D01*
X651501Y713497D01*
Y712330D01*
Y713497D01*
X652667Y714663D01*
X653834D01*
X655000Y713497D01*
Y711164D01*
X653834Y709998D01*
X568360Y690800D02*
Y697798D01*
X571859D01*
X573025Y696631D01*
Y694299D01*
X571859Y693133D01*
X568360D01*
X570693D02*
X573025Y690800D01*
X580023D02*
X575358D01*
X580023Y695465D01*
Y696631D01*
X578857Y697798D01*
X576524D01*
X575358Y696631D01*
X794000Y671748D02*
X796333D01*
X795166D01*
Y664750D01*
X794000D01*
X796333D01*
X799831D02*
Y671748D01*
X804497Y664750D01*
Y671748D01*
X741490Y612500D02*
Y619498D01*
X744989D01*
X746155Y618331D01*
Y615999D01*
X744989Y614832D01*
X741490D01*
X743823D02*
X746155Y612500D01*
X748488Y619498D02*
Y612500D01*
X753153D01*
X755486D02*
X757818D01*
X756652D01*
Y619498D01*
X755486Y618331D01*
D23*
X572845Y775495D02*
D03*
X572859Y809250D02*
D03*
M02*
