M48
;Layer_Color=9474304
;FILE_FORMAT=2:5
INCH,LZ
;TYPE=PLATED
T1F00S00C0.01968
T2F00S00C0.02756
T3F00S00C0.03346
T4F00S00C0.03543
T5F00S00C0.03937
T6F00S00C0.04724
T7F00S00C0.09055
%
T01
X0252933Y0250039
X0262776
T02
X0218Y0282016
Y0288
Y0293984
X0236
Y0288
Y0282016
T03
X0211535Y0265102
Y0273102
X0241535
Y0265102
X0256Y0265
Y0295
T04
X016Y0242
T05
X0313457Y0231173
Y0250858
X0283929
X0274087
Y0231173
X0283929
X0238225Y0227988
X0220508
X0204807Y0227791
X0187091
Y0253382
X0204807
X0220508Y0253579
X0238225
X026737Y0279713
Y0289555
Y0297429
Y0307272
X0200476Y030756
Y0297718
Y0289844
Y0280001
T06
X0214197Y0305323
X0255378
Y0318599
X0214197
T07
X0189847Y0267698
X0278Y0267902
Y0319575
X0189847Y0319372
M30
