%FSLAX44Y44*%
%MOMM*%
G71*
G01*
G75*
G04 Layer_Physical_Order=1*
G04 Layer_Color=255*
%ADD10C,0.4000*%
%ADD11O,2.0000X1.2500*%
%ADD12O,2.0000X1.2500*%
%ADD13C,1.4000*%
%ADD14R,1.5000X1.5000*%
%ADD15C,2.7000*%
%ADD16R,2.0000X2.0000*%
%ADD17C,2.0000*%
%ADD18C,0.9000*%
G36*
X806650Y640087D02*
X805405Y639839D01*
X804513Y641991D01*
X802984Y643984D01*
X800991Y645513D01*
X798671Y646474D01*
X796180Y646802D01*
X793690Y646474D01*
X791369Y645513D01*
X789376Y643984D01*
X787847Y641991D01*
X786886Y639670D01*
X786558Y637180D01*
X786886Y634689D01*
X787847Y632369D01*
X789376Y630376D01*
X791301Y628899D01*
Y595461D01*
X789376Y593984D01*
X787847Y591991D01*
X786886Y589670D01*
X786558Y587180D01*
X786886Y584689D01*
X787847Y582369D01*
X789376Y580376D01*
X791369Y578847D01*
X793690Y577886D01*
X796180Y577558D01*
X798671Y577886D01*
X800991Y578847D01*
X802984Y580376D01*
X804513Y582369D01*
X805405Y584521D01*
X806650Y584273D01*
Y571600D01*
X612804D01*
X612242Y572739D01*
X613424Y574278D01*
X614385Y576599D01*
X614713Y579090D01*
X614385Y581580D01*
X613424Y583901D01*
X611894Y585894D01*
X609902Y587423D01*
X609720Y587498D01*
Y635681D01*
X609902Y635756D01*
X611894Y637286D01*
X613424Y639278D01*
X614385Y641599D01*
X614713Y644090D01*
X614385Y646580D01*
X613424Y648901D01*
X611894Y650894D01*
X609902Y652423D01*
X607581Y653384D01*
X605090Y653712D01*
X602600Y653384D01*
X600279Y652423D01*
X598286Y650894D01*
X596757Y648901D01*
X595796Y646580D01*
X595468Y644090D01*
X595796Y641599D01*
X596757Y639278D01*
X598286Y637286D01*
X600279Y635756D01*
X600462Y635681D01*
Y587499D01*
X600279Y587423D01*
X598286Y585894D01*
X596757Y583901D01*
X595796Y581580D01*
X595468Y579090D01*
X595796Y576599D01*
X596757Y574278D01*
X597939Y572739D01*
X597377Y571600D01*
X567804D01*
X567242Y572739D01*
X568424Y574278D01*
X569385Y576599D01*
X569713Y579090D01*
X569385Y581580D01*
X568424Y583901D01*
X566894Y585894D01*
X564902Y587423D01*
X564720Y587498D01*
Y635681D01*
X564902Y635756D01*
X566894Y637286D01*
X568424Y639278D01*
X569385Y641599D01*
X569713Y644090D01*
X569385Y646580D01*
X568424Y648901D01*
X566894Y650894D01*
X564902Y652423D01*
X564720Y652498D01*
Y691159D01*
X564720Y691159D01*
X564367Y692931D01*
X563364Y694432D01*
X563364Y694432D01*
X551516Y706281D01*
X552002Y707454D01*
X557470D01*
X559765Y707756D01*
X561903Y708642D01*
X563739Y710051D01*
X565148Y711887D01*
X566034Y714025D01*
X566145Y714874D01*
X567153Y715547D01*
X585920Y734314D01*
X587126Y733815D01*
X586824Y731520D01*
X587126Y729225D01*
X588012Y727087D01*
X589421Y725251D01*
X590328Y724555D01*
Y723285D01*
X589421Y722589D01*
X588012Y720753D01*
X587126Y718615D01*
X586991Y717590D01*
X611889D01*
X611754Y718615D01*
X610868Y720753D01*
X609459Y722589D01*
X608552Y723285D01*
Y724555D01*
X609459Y725251D01*
X610868Y727087D01*
X611754Y729225D01*
X612056Y731520D01*
X611754Y733815D01*
X610868Y735953D01*
X609459Y737789D01*
X608552Y738485D01*
Y739755D01*
X609459Y740451D01*
X610868Y742287D01*
X611754Y744426D01*
X612056Y746720D01*
X611754Y749015D01*
X610868Y751153D01*
X609459Y752989D01*
X607623Y754398D01*
X605485Y755284D01*
X603190Y755586D01*
X596660D01*
X596174Y756759D01*
X627265Y787851D01*
X642407D01*
X642654Y786605D01*
X642336Y786474D01*
X639716Y784464D01*
X637706Y781844D01*
X636443Y778793D01*
X636012Y775520D01*
X636443Y772246D01*
X637145Y770551D01*
X630965Y764371D01*
X629961Y762869D01*
X629609Y761098D01*
X629609Y761098D01*
Y720090D01*
X629609Y720090D01*
X629961Y718319D01*
X630965Y716817D01*
X695227Y652555D01*
X695227Y652555D01*
X696729Y651551D01*
X696729Y651551D01*
X696729Y651551D01*
D01*
X696729Y651551D01*
X696729Y651551D01*
X698500Y651199D01*
X721871D01*
Y647408D01*
X721180Y646802D01*
X718690Y646474D01*
X716369Y645513D01*
X714376Y643984D01*
X712847Y641991D01*
X711886Y639670D01*
X711558Y637180D01*
X711886Y634689D01*
X712847Y632369D01*
X714376Y630376D01*
X716369Y628847D01*
X718690Y627886D01*
X721180Y627558D01*
X723671Y627886D01*
X725991Y628847D01*
X727984Y630376D01*
X729513Y632369D01*
X730475Y634689D01*
X730803Y637180D01*
X730475Y639670D01*
X730320Y640044D01*
X730777Y640728D01*
X731129Y642500D01*
X731129Y642500D01*
Y655768D01*
X730777Y657539D01*
X729773Y659041D01*
X729773Y659041D01*
X729713Y659101D01*
X728211Y660105D01*
X726440Y660457D01*
X726440Y660457D01*
X700417D01*
X638867Y722007D01*
Y759180D01*
X643691Y764005D01*
X645387Y763303D01*
X648660Y762872D01*
X651934Y763303D01*
X654984Y764566D01*
X657604Y766576D01*
X657616Y766593D01*
X658819Y766184D01*
Y764425D01*
X652913Y758519D01*
X652730Y758594D01*
X650240Y758922D01*
X647750Y758594D01*
X645429Y757633D01*
X643436Y756104D01*
X641907Y754111D01*
X640946Y751790D01*
X640618Y749300D01*
X640946Y746810D01*
X641907Y744489D01*
X643436Y742496D01*
X645429Y740967D01*
X647750Y740006D01*
X650240Y739678D01*
X652730Y740006D01*
X655051Y740967D01*
X657044Y742496D01*
X658573Y744489D01*
X659534Y746810D01*
X659862Y749300D01*
X659534Y751790D01*
X659459Y751973D01*
X666721Y759235D01*
X667725Y760737D01*
X668077Y762508D01*
X668077Y762508D01*
Y782320D01*
X668077Y782320D01*
X668077Y782320D01*
Y782320D01*
X668077D01*
X668077Y782320D01*
X667725Y784091D01*
X667323Y784693D01*
X666721Y785593D01*
X666721Y785593D01*
X656561Y795753D01*
X655059Y796757D01*
X653288Y797109D01*
X653263Y797233D01*
X653201Y797548D01*
X654984Y798287D01*
X657604Y800297D01*
X659614Y802916D01*
X660877Y805967D01*
X661308Y809240D01*
X660877Y812514D01*
X659614Y815564D01*
X657604Y818184D01*
X654984Y820194D01*
X651934Y821458D01*
X648660Y821889D01*
X645387Y821458D01*
X642336Y820194D01*
X639716Y818184D01*
X637706Y815564D01*
X636443Y812514D01*
X636012Y809240D01*
X636443Y805967D01*
X637706Y802916D01*
X639716Y800297D01*
X642304Y798312D01*
X641896Y797109D01*
X625348D01*
X625348Y797109D01*
X623577Y796757D01*
X622075Y795753D01*
X622075Y795753D01*
X564088Y737766D01*
X563739Y737789D01*
X562832Y738485D01*
Y739755D01*
X563739Y740451D01*
X565148Y742287D01*
X566034Y744426D01*
X566336Y746720D01*
X566034Y749015D01*
X565148Y751153D01*
X563739Y752989D01*
X561903Y754398D01*
X559765Y755284D01*
X557470Y755586D01*
X549970D01*
X547675Y755284D01*
X545537Y754398D01*
X544756Y753799D01*
X543617Y754361D01*
Y762980D01*
X556600D01*
Y788060D01*
X533965D01*
Y792599D01*
X538066Y796700D01*
X556600D01*
Y821780D01*
X531520D01*
Y803247D01*
X526063Y797790D01*
X525059Y796288D01*
X524707Y794517D01*
X524707Y794516D01*
Y701644D01*
X524707Y701644D01*
X525059Y699873D01*
X526063Y698371D01*
X528081Y696353D01*
X528005Y696171D01*
X527678Y693680D01*
X528005Y691190D01*
X528967Y688869D01*
X530496Y686876D01*
X532489Y685347D01*
X534809Y684386D01*
X536561Y684155D01*
Y682885D01*
X534809Y682654D01*
X532489Y681693D01*
X530496Y680164D01*
X528967Y678171D01*
X528005Y675851D01*
X527678Y673360D01*
X528005Y670870D01*
X528967Y668549D01*
X530496Y666556D01*
X532489Y665027D01*
X534809Y664066D01*
X537300Y663738D01*
X539790Y664066D01*
X542111Y665027D01*
X544104Y666556D01*
X545633Y668549D01*
X546594Y670870D01*
X546922Y673360D01*
X546594Y675851D01*
X545633Y678171D01*
X544104Y680164D01*
X542111Y681693D01*
X539790Y682654D01*
X538039Y682885D01*
Y684155D01*
X539790Y684386D01*
X542111Y685347D01*
X544104Y686876D01*
X545633Y688869D01*
X546594Y691190D01*
X546922Y693680D01*
X546594Y696171D01*
X546469Y696473D01*
X547525Y697179D01*
X555462Y689242D01*
Y652498D01*
X555279Y652423D01*
X553286Y650894D01*
X551757Y648901D01*
X550796Y646580D01*
X550468Y644090D01*
X550796Y641599D01*
X551757Y639278D01*
X553286Y637286D01*
X555279Y635756D01*
X555462Y635681D01*
Y587498D01*
X555279Y587423D01*
X553286Y585894D01*
X551757Y583901D01*
X550796Y581580D01*
X550468Y579090D01*
X550796Y576599D01*
X551757Y574278D01*
X552939Y572739D01*
X552377Y571600D01*
X528307D01*
X527746Y572739D01*
X528543Y573779D01*
X529505Y576099D01*
X529832Y578590D01*
X529505Y581080D01*
X528543Y583401D01*
X527014Y585394D01*
X525021Y586923D01*
X524839Y586998D01*
Y635181D01*
X525021Y635257D01*
X527014Y636786D01*
X528543Y638779D01*
X529505Y641099D01*
X529832Y643590D01*
X529505Y646080D01*
X528543Y648401D01*
X527014Y650394D01*
X525021Y651923D01*
X522701Y652884D01*
X520210Y653212D01*
X517720Y652884D01*
X515399Y651923D01*
X513406Y650394D01*
X511877Y648401D01*
X510916Y646080D01*
X510588Y643590D01*
X510916Y641099D01*
X511877Y638779D01*
X513406Y636786D01*
X515399Y635257D01*
X515581Y635181D01*
Y586998D01*
X515399Y586923D01*
X513406Y585394D01*
X511877Y583401D01*
X510916Y581080D01*
X510588Y578590D01*
X510916Y576099D01*
X511877Y573779D01*
X512675Y572739D01*
X512113Y571600D01*
X483307D01*
X482745Y572739D01*
X483543Y573779D01*
X484505Y576099D01*
X484665Y577320D01*
X465755D01*
X465916Y576099D01*
X466877Y573779D01*
X467675Y572739D01*
X467113Y571600D01*
X382830D01*
Y825401D01*
X472340D01*
X472768Y824205D01*
X470813Y822600D01*
X468809Y820158D01*
X467319Y817372D01*
X466402Y814348D01*
X466217Y812474D01*
X498203D01*
X498018Y814348D01*
X497101Y817372D01*
X495611Y820158D01*
X493607Y822600D01*
X491165Y824605D01*
X491364Y825401D01*
X695621D01*
X696049Y824205D01*
X694723Y823117D01*
X692719Y820675D01*
X691229Y817888D01*
X690312Y814864D01*
X690127Y812990D01*
X722113D01*
X721928Y814864D01*
X721011Y817888D01*
X719521Y820675D01*
X717517Y823117D01*
X715074Y825121D01*
X715145Y825401D01*
X806650D01*
Y640087D01*
D02*
G37*
%LPC*%
G36*
X476480Y653045D02*
Y644860D01*
X484665D01*
X484505Y646080D01*
X483543Y648401D01*
X482014Y650394D01*
X480021Y651923D01*
X477701Y652884D01*
X476480Y653045D01*
D02*
G37*
G36*
X613500Y703302D02*
X611009Y702974D01*
X608689Y702013D01*
X606696Y700484D01*
X605167Y698491D01*
X604206Y696171D01*
X603878Y693680D01*
X604206Y691190D01*
X605167Y688869D01*
X606696Y686876D01*
X608689Y685347D01*
X608871Y685272D01*
Y681769D01*
X608689Y681693D01*
X606696Y680164D01*
X605167Y678171D01*
X604206Y675851D01*
X603878Y673360D01*
X604206Y670870D01*
X605167Y668549D01*
X606696Y666556D01*
X608689Y665027D01*
X611009Y664066D01*
X613500Y663738D01*
X615990Y664066D01*
X618311Y665027D01*
X620304Y666556D01*
X621833Y668549D01*
X622794Y670870D01*
X623122Y673360D01*
X622794Y675851D01*
X621833Y678171D01*
X620304Y680164D01*
X618311Y681693D01*
X618129Y681769D01*
Y685272D01*
X618311Y685347D01*
X620304Y686876D01*
X621833Y688869D01*
X622794Y691190D01*
X623122Y693680D01*
X622794Y696171D01*
X621833Y698491D01*
X620304Y700484D01*
X618311Y702013D01*
X615990Y702974D01*
X613500Y703302D01*
D02*
G37*
G36*
X473940Y653045D02*
X472720Y652884D01*
X470399Y651923D01*
X468406Y650394D01*
X466877Y648401D01*
X465916Y646080D01*
X465755Y644860D01*
X473940D01*
Y653045D01*
D02*
G37*
G36*
X641180Y642033D02*
X640612Y641959D01*
X638900Y641249D01*
X637429Y640121D01*
X636301Y638650D01*
X635591Y636938D01*
X635517Y636370D01*
X641180D01*
Y642033D01*
D02*
G37*
G36*
X643720D02*
Y636370D01*
X649384D01*
X649309Y636938D01*
X648600Y638650D01*
X647471Y640121D01*
X646001Y641249D01*
X644288Y641959D01*
X643720Y642033D01*
D02*
G37*
G36*
X722113Y679200D02*
X707390D01*
Y664477D01*
X709264Y664662D01*
X712288Y665579D01*
X715074Y667069D01*
X717517Y669073D01*
X719521Y671516D01*
X721011Y674302D01*
X721928Y677326D01*
X722113Y679200D01*
D02*
G37*
G36*
X480940Y695946D02*
X479066Y695761D01*
X476042Y694844D01*
X473256Y693355D01*
X470813Y691350D01*
X468809Y688908D01*
X467319Y686122D01*
X466402Y683098D01*
X466217Y681224D01*
X480940D01*
Y695946D01*
D02*
G37*
G36*
X704850Y679200D02*
X690127D01*
X690312Y677326D01*
X691229Y674302D01*
X692719Y671516D01*
X694723Y669073D01*
X697166Y667069D01*
X699952Y665579D01*
X702976Y664662D01*
X704850Y664477D01*
Y679200D01*
D02*
G37*
G36*
X480940Y678683D02*
X466217D01*
X466402Y676809D01*
X467319Y673785D01*
X468809Y670999D01*
X470813Y668557D01*
X473256Y666552D01*
X476042Y665063D01*
X479066Y664146D01*
X480940Y663961D01*
Y678683D01*
D02*
G37*
G36*
X498203D02*
X483480D01*
Y663961D01*
X485354Y664146D01*
X488378Y665063D01*
X491165Y666552D01*
X493607Y668557D01*
X495611Y670999D01*
X497101Y673785D01*
X498018Y676809D01*
X498203Y678683D01*
D02*
G37*
G36*
X476480Y588045D02*
Y579860D01*
X484665D01*
X484505Y581080D01*
X483543Y583401D01*
X482014Y585394D01*
X480021Y586923D01*
X477701Y587884D01*
X476480Y588045D01*
D02*
G37*
G36*
X416440Y624720D02*
X396360D01*
Y604640D01*
X416440D01*
Y624720D01*
D02*
G37*
G36*
X473940Y588045D02*
X472720Y587884D01*
X470399Y586923D01*
X468406Y585394D01*
X466877Y583401D01*
X465916Y581080D01*
X465755Y579860D01*
X473940D01*
Y588045D01*
D02*
G37*
G36*
X696180Y596802D02*
X693690Y596474D01*
X691369Y595513D01*
X689376Y593984D01*
X687847Y591991D01*
X686886Y589670D01*
X686558Y587180D01*
X686886Y584689D01*
X687847Y582369D01*
X689376Y580376D01*
X691369Y578847D01*
X693690Y577886D01*
X696180Y577558D01*
X698671Y577886D01*
X700991Y578847D01*
X702984Y580376D01*
X704513Y582369D01*
X705475Y584689D01*
X705803Y587180D01*
X705475Y589670D01*
X704513Y591991D01*
X702984Y593984D01*
X700991Y595513D01*
X698671Y596474D01*
X696180Y596802D01*
D02*
G37*
G36*
Y646802D02*
X693690Y646474D01*
X691369Y645513D01*
X689376Y643984D01*
X687847Y641991D01*
X686886Y639670D01*
X686558Y637180D01*
X686886Y634689D01*
X687847Y632369D01*
X689376Y630376D01*
X691369Y628847D01*
X691551Y628771D01*
Y612180D01*
X691551Y612180D01*
X691904Y610409D01*
X692907Y608907D01*
X711961Y589853D01*
X711886Y589670D01*
X711558Y587180D01*
X711886Y584689D01*
X712847Y582369D01*
X714376Y580376D01*
X716369Y578847D01*
X718690Y577886D01*
X721180Y577558D01*
X723671Y577886D01*
X725991Y578847D01*
X727984Y580376D01*
X729513Y582369D01*
X730475Y584689D01*
X730803Y587180D01*
X730475Y589670D01*
X729513Y591991D01*
X727984Y593984D01*
X725991Y595513D01*
X723671Y596474D01*
X721180Y596802D01*
X718690Y596474D01*
X718508Y596399D01*
X700809Y614097D01*
Y628771D01*
X700991Y628847D01*
X702984Y630376D01*
X704513Y632369D01*
X705475Y634689D01*
X705803Y637180D01*
X705475Y639670D01*
X704513Y641991D01*
X702984Y643984D01*
X700991Y645513D01*
X698671Y646474D01*
X696180Y646802D01*
D02*
G37*
G36*
X473940Y642320D02*
X465755D01*
X465916Y641099D01*
X466877Y638779D01*
X468406Y636786D01*
X470399Y635257D01*
X472720Y634295D01*
X473940Y634135D01*
Y642320D01*
D02*
G37*
G36*
X484665D02*
X476480D01*
Y634135D01*
X477701Y634295D01*
X480021Y635257D01*
X482014Y636786D01*
X483543Y638779D01*
X484505Y641099D01*
X484665Y642320D01*
D02*
G37*
G36*
X649384Y633830D02*
X643720D01*
Y628166D01*
X644288Y628241D01*
X646001Y628951D01*
X647471Y630079D01*
X648600Y631550D01*
X649309Y633262D01*
X649384Y633830D01*
D02*
G37*
G36*
X650240Y682722D02*
X647750Y682394D01*
X645429Y681433D01*
X643436Y679904D01*
X641907Y677911D01*
X640946Y675590D01*
X640618Y673100D01*
X640946Y670610D01*
X641907Y668289D01*
X643436Y666296D01*
X645429Y664767D01*
X645611Y664691D01*
Y652310D01*
X645611Y652310D01*
X645963Y650539D01*
X646967Y649037D01*
X660414Y635590D01*
X660349Y635100D01*
X660591Y633262D01*
X661301Y631550D01*
X662429Y630079D01*
X663900Y628951D01*
X665612Y628241D01*
X667450Y627999D01*
X669288Y628241D01*
X671001Y628951D01*
X672471Y630079D01*
X673600Y631550D01*
X674309Y633262D01*
X674551Y635100D01*
X674309Y636938D01*
X673600Y638650D01*
X672471Y640121D01*
X671001Y641249D01*
X669288Y641959D01*
X667450Y642201D01*
X666960Y642136D01*
X654869Y654228D01*
Y664691D01*
X655051Y664767D01*
X657044Y666296D01*
X658573Y668289D01*
X659534Y670610D01*
X659862Y673100D01*
X659534Y675590D01*
X658573Y677911D01*
X657044Y679904D01*
X655051Y681433D01*
X652730Y682394D01*
X650240Y682722D01*
D02*
G37*
G36*
X641180Y633830D02*
X635517D01*
X635591Y633262D01*
X636301Y631550D01*
X637429Y630079D01*
X638900Y628951D01*
X640612Y628241D01*
X641180Y628166D01*
Y633830D01*
D02*
G37*
G36*
X483480Y695946D02*
Y681224D01*
X498203D01*
X498018Y683098D01*
X497101Y686122D01*
X495611Y688908D01*
X493607Y691350D01*
X491165Y693355D01*
X488378Y694844D01*
X485354Y695761D01*
X483480Y695946D01*
D02*
G37*
G36*
X509210Y790826D02*
X506720Y790498D01*
X504399Y789537D01*
X502406Y788008D01*
X500877Y786015D01*
X499916Y783694D01*
X499588Y781204D01*
X499916Y778713D01*
X500877Y776392D01*
X502406Y774399D01*
X504399Y772870D01*
X506720Y771909D01*
X509210Y771581D01*
X511700Y771909D01*
X514021Y772870D01*
X516014Y774399D01*
X517543Y776392D01*
X518504Y778713D01*
X518832Y781204D01*
X518504Y783694D01*
X517543Y786015D01*
X516014Y788008D01*
X514021Y789537D01*
X511700Y790498D01*
X509210Y790826D01*
D02*
G37*
G36*
X677850Y789925D02*
X676630Y789764D01*
X674309Y788803D01*
X672316Y787274D01*
X670787Y785281D01*
X669826Y782960D01*
X669665Y781740D01*
X677850D01*
Y789925D01*
D02*
G37*
G36*
X688575Y779200D02*
X680390D01*
Y771015D01*
X681610Y771176D01*
X683931Y772137D01*
X685924Y773666D01*
X687453Y775659D01*
X688414Y777980D01*
X688575Y779200D01*
D02*
G37*
G36*
X509210Y765826D02*
X506720Y765498D01*
X504399Y764537D01*
X502406Y763008D01*
X500877Y761015D01*
X499916Y758694D01*
X499588Y756204D01*
X499916Y753713D01*
X500877Y751392D01*
X502406Y749399D01*
X504399Y747870D01*
X506720Y746909D01*
X507256Y746839D01*
Y745568D01*
X506720Y745498D01*
X504399Y744537D01*
X502406Y743008D01*
X500877Y741015D01*
X499916Y738694D01*
X499588Y736204D01*
X499916Y733713D01*
X500877Y731392D01*
X502406Y729399D01*
X504399Y727870D01*
X506720Y726909D01*
X509210Y726581D01*
X511700Y726909D01*
X514021Y727870D01*
X516014Y729399D01*
X517543Y731392D01*
X518504Y733713D01*
X518832Y736204D01*
X518504Y738694D01*
X517543Y741015D01*
X516014Y743008D01*
X514021Y744537D01*
X511700Y745498D01*
X511165Y745568D01*
Y746839D01*
X511700Y746909D01*
X514021Y747870D01*
X516014Y749399D01*
X517543Y751392D01*
X518504Y753713D01*
X518832Y756204D01*
X518504Y758694D01*
X517543Y761015D01*
X516014Y763008D01*
X514021Y764537D01*
X511700Y765498D01*
X509210Y765826D01*
D02*
G37*
G36*
X677850Y779200D02*
X669665D01*
X669826Y777980D01*
X670787Y775659D01*
X672316Y773666D01*
X674309Y772137D01*
X676630Y771176D01*
X677850Y771015D01*
Y779200D01*
D02*
G37*
G36*
X704850Y810450D02*
X690127D01*
X690312Y808576D01*
X691229Y805552D01*
X692719Y802766D01*
X694723Y800323D01*
X697166Y798319D01*
X699952Y796829D01*
X702976Y795912D01*
X704850Y795727D01*
Y810450D01*
D02*
G37*
G36*
X722113D02*
X707390D01*
Y795727D01*
X709264Y795912D01*
X712288Y796829D01*
X715074Y798319D01*
X717517Y800323D01*
X719521Y802766D01*
X721011Y805552D01*
X721928Y808576D01*
X722113Y810450D01*
D02*
G37*
G36*
X498203Y809933D02*
X483480D01*
Y795211D01*
X485354Y795396D01*
X488378Y796313D01*
X491165Y797802D01*
X493607Y799807D01*
X495611Y802249D01*
X497101Y805036D01*
X498018Y808059D01*
X498203Y809933D01*
D02*
G37*
G36*
X680390Y789925D02*
Y781740D01*
X688575D01*
X688414Y782960D01*
X687453Y785281D01*
X685924Y787274D01*
X683931Y788803D01*
X681610Y789764D01*
X680390Y789925D01*
D02*
G37*
G36*
X480940Y809933D02*
X466217D01*
X466402Y808059D01*
X467319Y805036D01*
X468809Y802249D01*
X470813Y799807D01*
X473256Y797802D01*
X476042Y796313D01*
X479066Y795396D01*
X480940Y795211D01*
Y809933D01*
D02*
G37*
G36*
X507940Y709933D02*
X499755D01*
X499916Y708713D01*
X500877Y706392D01*
X502406Y704399D01*
X504399Y702870D01*
X506720Y701909D01*
X507940Y701748D01*
Y709933D01*
D02*
G37*
G36*
X518665D02*
X510480D01*
Y701748D01*
X511700Y701909D01*
X514021Y702870D01*
X516014Y704399D01*
X517543Y706392D01*
X518504Y708713D01*
X518665Y709933D01*
D02*
G37*
G36*
X679120Y720092D02*
X676630Y719764D01*
X674309Y718803D01*
X672316Y717274D01*
X670787Y715281D01*
X669826Y712960D01*
X669498Y710470D01*
X669826Y707980D01*
X670787Y705659D01*
X672316Y703666D01*
X674309Y702137D01*
X676630Y701176D01*
X679120Y700848D01*
X681610Y701176D01*
X683931Y702137D01*
X685924Y703666D01*
X687453Y705659D01*
X688414Y707980D01*
X688742Y710470D01*
X688414Y712960D01*
X687453Y715281D01*
X685924Y717274D01*
X683931Y718803D01*
X681610Y719764D01*
X679120Y720092D01*
D02*
G37*
G36*
X704850Y696462D02*
X702976Y696278D01*
X699952Y695361D01*
X697166Y693871D01*
X694723Y691867D01*
X692719Y689425D01*
X691229Y686638D01*
X690312Y683614D01*
X690127Y681740D01*
X704850D01*
Y696462D01*
D02*
G37*
G36*
X707390D02*
Y681740D01*
X722113D01*
X721928Y683614D01*
X721011Y686638D01*
X719521Y689425D01*
X717517Y691867D01*
X715074Y693871D01*
X712288Y695361D01*
X709264Y696278D01*
X707390Y696462D01*
D02*
G37*
G36*
X510480Y720659D02*
Y712474D01*
X518665D01*
X518504Y713694D01*
X517543Y716015D01*
X516014Y718008D01*
X514021Y719537D01*
X511700Y720498D01*
X510480Y720659D01*
D02*
G37*
G36*
X679120Y765092D02*
X676630Y764764D01*
X674309Y763803D01*
X672316Y762274D01*
X670787Y760281D01*
X669826Y757960D01*
X669498Y755470D01*
X669826Y752980D01*
X670787Y750659D01*
X672316Y748666D01*
X674309Y747137D01*
X676630Y746176D01*
X677166Y746105D01*
Y744835D01*
X676630Y744764D01*
X674309Y743803D01*
X672316Y742274D01*
X670787Y740281D01*
X669826Y737960D01*
X669498Y735470D01*
X669826Y732980D01*
X670787Y730659D01*
X672316Y728666D01*
X674309Y727137D01*
X676630Y726176D01*
X679120Y725848D01*
X681610Y726176D01*
X683931Y727137D01*
X685924Y728666D01*
X687453Y730659D01*
X688414Y732980D01*
X688742Y735470D01*
X688414Y737960D01*
X687453Y740281D01*
X685924Y742274D01*
X683931Y743803D01*
X681610Y744764D01*
X681075Y744835D01*
Y746105D01*
X681610Y746176D01*
X683931Y747137D01*
X685924Y748666D01*
X687453Y750659D01*
X688414Y752980D01*
X688742Y755470D01*
X688414Y757960D01*
X687453Y760281D01*
X685924Y762274D01*
X683931Y763803D01*
X681610Y764764D01*
X679120Y765092D01*
D02*
G37*
G36*
X507940Y720659D02*
X506720Y720498D01*
X504399Y719537D01*
X502406Y718008D01*
X500877Y716015D01*
X499916Y713694D01*
X499755Y712474D01*
X507940D01*
Y720659D01*
D02*
G37*
G36*
X598170Y715050D02*
X586991D01*
X587126Y714025D01*
X588012Y711887D01*
X589421Y710051D01*
X591257Y708642D01*
X593395Y707756D01*
X595690Y707454D01*
X598170D01*
Y715050D01*
D02*
G37*
G36*
X611889D02*
X600710D01*
Y707454D01*
X603190D01*
X605485Y707756D01*
X607623Y708642D01*
X609459Y710051D01*
X610868Y711887D01*
X611754Y714025D01*
X611889Y715050D01*
D02*
G37*
%LPD*%
D10*
X538988Y712042D02*
Y772922D01*
Y712042D02*
X545501Y705530D01*
X545720D02*
X560091Y691159D01*
X545501Y705530D02*
X545720D01*
X726440Y655828D02*
X726500Y655768D01*
X538988Y772922D02*
X544060D01*
X706120Y680720D02*
Y753720D01*
X679120Y780720D02*
X706120Y753720D01*
X482210Y738204D02*
X509210Y711204D01*
X482210Y738204D02*
Y811203D01*
X544060Y772922D02*
Y775520D01*
X553720Y731520D02*
X564388D01*
X625348Y792480D01*
X653288D01*
X663448Y782320D01*
Y762508D02*
Y782320D01*
X650240Y749300D02*
X663448Y762508D01*
X553720Y718820D02*
X563880D01*
X589280Y744220D01*
X599440D01*
X634238Y761098D02*
X648660Y775520D01*
X634238Y720090D02*
Y761098D01*
Y720090D02*
X698500Y655828D01*
X726440D01*
X679120Y780720D02*
X697230Y798830D01*
Y803080D01*
X706120Y811970D01*
X482210Y667090D02*
Y697605D01*
X495808Y711204D01*
X509210D01*
X475210Y660090D02*
X482210Y667090D01*
X627634Y649916D02*
X642450Y635100D01*
X627634Y649916D02*
Y701040D01*
X609854Y718820D02*
X627634Y701040D01*
X599440Y718820D02*
X609854D01*
X650240Y652310D02*
Y673100D01*
Y652310D02*
X667450Y635100D01*
X529336Y794517D02*
X544060Y809240D01*
X529336Y701644D02*
Y794517D01*
Y701644D02*
X537300Y693680D01*
X605091Y579090D02*
Y644090D01*
X795930Y587180D02*
Y637180D01*
X520210Y578090D02*
Y643090D01*
X613500Y673360D02*
Y693680D01*
X475210Y578090D02*
Y660090D01*
X726500Y642500D02*
Y655768D01*
X721180Y637180D02*
X726500Y642500D01*
X560091Y579090D02*
Y691159D01*
X696180Y612180D02*
X721180Y587180D01*
X696180Y612180D02*
Y637180D01*
D11*
X599440Y746720D02*
D03*
Y716320D02*
D03*
X553720D02*
D03*
Y746720D02*
D03*
D12*
X599440Y731520D02*
D03*
X553720D02*
D03*
D13*
X537300Y673360D02*
D03*
X613500D02*
D03*
X509210Y781204D02*
D03*
Y756204D02*
D03*
Y736204D02*
D03*
Y711204D02*
D03*
X520210Y578590D02*
D03*
Y643590D02*
D03*
X475210Y578590D02*
D03*
Y643590D02*
D03*
X560090Y644090D02*
D03*
Y579090D02*
D03*
X605090Y644090D02*
D03*
Y579090D02*
D03*
X679120Y710470D02*
D03*
Y735470D02*
D03*
Y755470D02*
D03*
Y780470D02*
D03*
X650240Y749300D02*
D03*
Y673100D02*
D03*
X613500Y693680D02*
D03*
X537300D02*
D03*
X696180Y587180D02*
D03*
X721180D02*
D03*
X796180D02*
D03*
Y637180D02*
D03*
X721180D02*
D03*
X696180D02*
D03*
D14*
X406400Y614680D02*
D03*
D15*
X482210Y811204D02*
D03*
Y679954D02*
D03*
X706120Y680470D02*
D03*
Y811720D02*
D03*
D16*
X544060Y775520D02*
D03*
Y809240D02*
D03*
D17*
X648660Y775520D02*
D03*
Y809240D02*
D03*
D18*
X667450Y635100D02*
D03*
X642450D02*
D03*
M02*
