%FSLAX44Y44*%
%MOMM*%
G71*
G01*
G75*
G04 Layer_Color=8388736*
%ADD10C,0.4000*%
%ADD11O,2.0000X1.2500*%
%ADD12O,2.0000X1.2500*%
%ADD13C,1.4000*%
%ADD14R,1.5000X1.5000*%
%ADD15C,2.7000*%
%ADD16R,2.0000X2.0000*%
%ADD17C,2.0000*%
%ADD18C,0.9000*%
%ADD19C,0.2000*%
%ADD20C,0.2500*%
%ADD21C,0.1000*%
%ADD22C,0.1500*%
%ADD23R,0.8000X2.8000*%
%ADD24O,2.2000X1.4500*%
%ADD25O,2.2000X1.4500*%
%ADD26C,1.6000*%
%ADD27R,1.7000X1.7000*%
%ADD28C,2.9000*%
%ADD29R,2.2000X2.2000*%
%ADD30C,2.2000*%
%ADD31C,1.1000*%
D24*
X599440Y746720D02*
D03*
Y716320D02*
D03*
X553720D02*
D03*
Y746720D02*
D03*
D25*
X599440Y731520D02*
D03*
X553720D02*
D03*
D26*
X537300Y673360D02*
D03*
X613500D02*
D03*
X509210Y781204D02*
D03*
Y756204D02*
D03*
Y736204D02*
D03*
Y711204D02*
D03*
X520210Y578590D02*
D03*
Y643590D02*
D03*
X475210Y578590D02*
D03*
Y643590D02*
D03*
X560090Y644090D02*
D03*
Y579090D02*
D03*
X605090Y644090D02*
D03*
Y579090D02*
D03*
X679120Y710470D02*
D03*
Y735470D02*
D03*
Y755470D02*
D03*
Y780470D02*
D03*
X650240Y749300D02*
D03*
Y673100D02*
D03*
X613500Y693680D02*
D03*
X537300D02*
D03*
X696180Y587180D02*
D03*
X721180D02*
D03*
X796180D02*
D03*
Y637180D02*
D03*
X721180D02*
D03*
X696180D02*
D03*
D27*
X406400Y614680D02*
D03*
D28*
X482210Y811204D02*
D03*
Y679954D02*
D03*
X706120Y680470D02*
D03*
Y811720D02*
D03*
D29*
X544060Y775520D02*
D03*
Y809240D02*
D03*
D30*
X648660Y775520D02*
D03*
Y809240D02*
D03*
D31*
X667450Y635100D02*
D03*
X642450D02*
D03*
M02*
